<svg width="296" height="152" viewBox="0 0 296 152" fill="none" xmlns="http://www.w3.org/2000/svg">
<path d="M19.45 118.796C19.423 120.65 20.62 122.153 22.537 122.126C24.04 122.126 25.003 121.289 25.309 120.209L24.436 119.876C24.148 120.74 23.626 121.298 22.537 121.298C21.268 121.298 20.413 120.299 20.413 118.787C20.413 117.302 21.268 116.393 22.537 116.393C23.077 116.393 23.491 116.528 23.779 116.807C24.076 117.077 24.283 117.392 24.4 117.761L25.3 117.437C25.03 116.492 24.076 115.574 22.537 115.574C20.746 115.538 19.423 116.987 19.45 118.796ZM26.23 118.697H27.382V117.527H26.23V118.697ZM26.23 122H27.382V120.83H26.23V122ZM32.2294 122H33.1114V115.7H32.3914C32.0044 116.429 31.3204 116.906 30.5284 117.086V118.022C31.2124 117.923 31.8784 117.455 32.2294 116.87V117.752V122ZM34.5423 118.823C34.5423 120.956 35.5503 122.126 37.0713 122.126C38.5653 122.126 39.5823 120.956 39.5823 118.823C39.5823 116.726 38.4663 115.574 37.0713 115.574C35.6583 115.574 34.5423 116.726 34.5423 118.823ZM38.6373 118.823C38.6373 120.443 38.0433 121.325 37.0713 121.325C36.0903 121.325 35.4873 120.443 35.4873 118.823C35.4873 117.329 36.1083 116.375 37.0713 116.375C38.0163 116.375 38.6373 117.329 38.6373 118.823ZM40.6068 118.823C40.6068 120.956 41.6148 122.126 43.1358 122.126C44.6298 122.126 45.6468 120.956 45.6468 118.823C45.6468 116.726 44.5308 115.574 43.1358 115.574C41.7228 115.574 40.6068 116.726 40.6068 118.823ZM44.7018 118.823C44.7018 120.443 44.1078 121.325 43.1358 121.325C42.1548 121.325 41.5518 120.443 41.5518 118.823C41.5518 117.329 42.1728 116.375 43.1358 116.375C44.0808 116.375 44.7018 117.329 44.7018 118.823ZM47.4452 122H48.3182L52.8002 115.7H51.9362L47.4452 122ZM50.7932 120.164C50.7932 121.325 51.3602 122.045 52.2872 122.045C53.2232 122.045 53.7722 121.325 53.7722 120.164C53.7722 119.048 53.1962 118.31 52.2872 118.31C51.3962 118.31 50.7932 119.048 50.7932 120.164ZM53.0162 120.164C53.0162 120.956 52.7462 121.424 52.2872 121.424C51.8282 121.424 51.5582 120.956 51.5582 120.164C51.5582 119.426 51.8732 118.931 52.2872 118.931C52.7102 118.931 53.0162 119.426 53.0162 120.164ZM46.4822 117.482C46.4822 118.643 47.0492 119.363 47.9762 119.363C48.9122 119.363 49.4612 118.643 49.4612 117.482C49.4612 116.366 48.8852 115.628 47.9762 115.628C47.0852 115.628 46.4822 116.366 46.4822 117.482ZM48.7052 117.482C48.7052 118.274 48.4352 118.742 47.9762 118.742C47.5172 118.742 47.2472 118.274 47.2472 117.482C47.2472 116.744 47.5622 116.249 47.9762 116.249C48.3992 116.249 48.7052 116.744 48.7052 117.482ZM19.9 131H20.8V127.724V125.618L22.951 131H23.59L25.723 125.618V127.724V131H26.614V124.7H25.183L23.77 128.309L23.293 129.497L22.816 128.309L21.367 124.7H19.9V131ZM28.1196 127.697H29.2716V126.527H28.1196V127.697ZM28.1196 131H29.2716V129.83H28.1196V131ZM32.931 130.937C33.21 131.045 33.75 131.126 34.155 131.126C36.126 131.126 37.098 129.704 37.098 127.625C37.098 126.554 36.819 125.726 36.315 125.213C35.892 124.79 35.361 124.574 34.713 124.574C33.399 124.574 32.589 125.546 32.589 126.761C32.589 127.841 33.354 128.696 34.542 128.696C35.28 128.696 35.955 128.291 36.207 127.679C36.207 128.687 35.955 129.398 35.46 129.803C35.1 130.1 34.65 130.244 34.119 130.244C33.705 130.244 33.309 130.172 32.931 130.019V130.937ZM35.991 126.653C35.991 127.418 35.46 127.931 34.758 127.931C34.074 127.931 33.525 127.418 33.525 126.653C33.525 125.87 34.074 125.357 34.758 125.357C35.46 125.357 35.991 125.87 35.991 126.653ZM38.0027 129.2C38.0927 130.37 38.9477 131.126 40.2527 131.126C41.5577 131.126 42.3767 130.361 42.3767 129.389C42.3767 128.543 41.8727 127.922 41.1077 127.76C41.8007 127.535 42.2597 126.986 42.2597 126.239C42.2597 125.285 41.4947 124.574 40.2527 124.574C39.0197 124.574 38.2367 125.339 38.1647 126.32L39.0827 126.491C39.1367 125.807 39.5957 125.357 40.2527 125.357C40.8467 125.357 41.3507 125.762 41.3507 126.383C41.3507 127.013 40.8557 127.418 40.2347 127.418H39.7847V128.183H40.2347C40.9367 128.183 41.4497 128.588 41.4497 129.272C41.4497 129.929 40.9367 130.343 40.2527 130.343C39.4787 130.343 38.9837 129.821 38.9477 129.002L38.0027 129.2ZM44.1845 131H45.0575L49.5395 124.7H48.6755L44.1845 131ZM47.5325 129.164C47.5325 130.325 48.0995 131.045 49.0265 131.045C49.9625 131.045 50.5115 130.325 50.5115 129.164C50.5115 128.048 49.9355 127.31 49.0265 127.31C48.1355 127.31 47.5325 128.048 47.5325 129.164ZM49.7555 129.164C49.7555 129.956 49.4855 130.424 49.0265 130.424C48.5675 130.424 48.2975 129.956 48.2975 129.164C48.2975 128.426 48.6125 127.931 49.0265 127.931C49.4495 127.931 49.7555 128.426 49.7555 129.164ZM43.2215 126.482C43.2215 127.643 43.7885 128.363 44.7155 128.363C45.6515 128.363 46.2005 127.643 46.2005 126.482C46.2005 125.366 45.6245 124.628 44.7155 124.628C43.8245 124.628 43.2215 125.366 43.2215 126.482ZM45.4445 126.482C45.4445 127.274 45.1745 127.742 44.7155 127.742C44.2565 127.742 43.9865 127.274 43.9865 126.482C43.9865 125.744 44.3015 125.249 44.7155 125.249C45.1385 125.249 45.4445 125.744 45.4445 126.482ZM21.475 140H22.375V137.327L24.589 133.7H23.518L22.456 135.581L21.934 136.481L21.403 135.581L20.269 133.7H19.189L21.475 137.363V140ZM24.7358 136.697H25.8878V135.527H24.7358V136.697ZM24.7358 140H25.8878V138.83H24.7358V140ZM30.7352 140H31.6172V133.7H30.8972C30.5102 134.429 29.8262 134.906 29.0342 135.086V136.022C29.7182 135.923 30.3842 135.455 30.7352 134.87V135.752V140ZM33.0392 138.308C33.0392 139.343 33.8132 140.126 35.2622 140.126C36.7112 140.126 37.4762 139.343 37.4762 138.308C37.4762 137.507 36.9542 136.904 36.2522 136.742C36.8912 136.526 37.3142 135.995 37.3142 135.266C37.3142 134.267 36.4772 133.574 35.2622 133.574C34.0382 133.574 33.2102 134.267 33.2102 135.266C33.2102 135.995 33.6512 136.526 34.2722 136.742C33.5972 136.886 33.0392 137.507 33.0392 138.308ZM36.4142 135.356C36.4142 135.995 35.9102 136.391 35.2622 136.391C34.6052 136.391 34.1102 135.995 34.1102 135.356C34.1102 134.753 34.5962 134.348 35.2622 134.348C35.9282 134.348 36.4142 134.753 36.4142 135.356ZM36.5402 138.227C36.5402 138.902 36.0452 139.343 35.2622 139.343C34.4792 139.343 33.9752 138.902 33.9752 138.227C33.9752 137.561 34.4792 137.093 35.2622 137.093C36.0362 137.093 36.5402 137.561 36.5402 138.227ZM39.2714 140H40.1444L44.6264 133.7H43.7624L39.2714 140ZM42.6194 138.164C42.6194 139.325 43.1864 140.045 44.1134 140.045C45.0494 140.045 45.5984 139.325 45.5984 138.164C45.5984 137.048 45.0224 136.31 44.1134 136.31C43.2224 136.31 42.6194 137.048 42.6194 138.164ZM44.8424 138.164C44.8424 138.956 44.5724 139.424 44.1134 139.424C43.6544 139.424 43.3844 138.956 43.3844 138.164C43.3844 137.426 43.6994 136.931 44.1134 136.931C44.5364 136.931 44.8424 137.426 44.8424 138.164ZM38.3084 135.482C38.3084 136.643 38.8754 137.363 39.8024 137.363C40.7384 137.363 41.2874 136.643 41.2874 135.482C41.2874 134.366 40.7114 133.628 39.8024 133.628C38.9114 133.628 38.3084 134.366 38.3084 135.482ZM40.5314 135.482C40.5314 136.274 40.2614 136.742 39.8024 136.742C39.3434 136.742 39.0734 136.274 39.0734 135.482C39.0734 134.744 39.3884 134.249 39.8024 134.249C40.2254 134.249 40.5314 134.744 40.5314 135.482ZM24.058 149H25.237L22.267 145.292L24.787 142.7H23.572L20.8 145.67V144.194V142.7H19.9V149H20.8V146.804L21.637 145.94L24.058 149ZM25.7466 145.697H26.8986V144.527H25.7466V145.697ZM25.7466 149H26.8986V147.83H25.7466V149ZM30.198 147.2C30.288 148.37 31.143 149.126 32.448 149.126C33.753 149.126 34.572 148.361 34.572 147.389C34.572 146.543 34.068 145.922 33.303 145.76C33.996 145.535 34.455 144.986 34.455 144.239C34.455 143.285 33.69 142.574 32.448 142.574C31.215 142.574 30.432 143.339 30.36 144.32L31.278 144.491C31.332 143.807 31.791 143.357 32.448 143.357C33.042 143.357 33.546 143.762 33.546 144.383C33.546 145.013 33.051 145.418 32.43 145.418H31.98V146.183H32.43C33.132 146.183 33.645 146.588 33.645 147.272C33.645 147.929 33.132 148.343 32.448 148.343C31.674 148.343 31.179 147.821 31.143 147.002L30.198 147.2ZM36.3798 149H37.2528L41.7348 142.7H40.8708L36.3798 149ZM39.7278 147.164C39.7278 148.325 40.2948 149.045 41.2218 149.045C42.1578 149.045 42.7068 148.325 42.7068 147.164C42.7068 146.048 42.1308 145.31 41.2218 145.31C40.3308 145.31 39.7278 146.048 39.7278 147.164ZM41.9508 147.164C41.9508 147.956 41.6808 148.424 41.2218 148.424C40.7628 148.424 40.4928 147.956 40.4928 147.164C40.4928 146.426 40.8078 145.931 41.2218 145.931C41.6448 145.931 41.9508 146.426 41.9508 147.164ZM35.4168 144.482C35.4168 145.643 35.9838 146.363 36.9108 146.363C37.8468 146.363 38.3958 145.643 38.3958 144.482C38.3958 143.366 37.8198 142.628 36.9108 142.628C36.0198 142.628 35.4168 143.366 35.4168 144.482ZM37.6398 144.482C37.6398 145.274 37.3698 145.742 36.9108 145.742C36.4518 145.742 36.1818 145.274 36.1818 144.482C36.1818 143.744 36.4968 143.249 36.9108 143.249C37.3338 143.249 37.6398 143.744 37.6398 144.482Z" fill="black"/>
<path d="M132.45 118.796C132.423 120.65 133.62 122.153 135.537 122.126C137.04 122.126 138.003 121.289 138.309 120.209L137.436 119.876C137.148 120.74 136.626 121.298 135.537 121.298C134.268 121.298 133.413 120.299 133.413 118.787C133.413 117.302 134.268 116.393 135.537 116.393C136.077 116.393 136.491 116.528 136.779 116.807C137.076 117.077 137.283 117.392 137.4 117.761L138.3 117.437C138.03 116.492 137.076 115.574 135.537 115.574C133.746 115.538 132.423 116.987 132.45 118.796ZM139.23 118.697H140.382V117.527H139.23V118.697ZM139.23 122H140.382V120.83H139.23V122ZM143.789 118.823C143.789 120.956 144.797 122.126 146.318 122.126C147.812 122.126 148.829 120.956 148.829 118.823C148.829 116.726 147.713 115.574 146.318 115.574C144.905 115.574 143.789 116.726 143.789 118.823ZM147.884 118.823C147.884 120.443 147.29 121.325 146.318 121.325C145.337 121.325 144.734 120.443 144.734 118.823C144.734 117.329 145.355 116.375 146.318 116.375C147.263 116.375 147.884 117.329 147.884 118.823ZM150.628 122H151.501L155.983 115.7H155.119L150.628 122ZM153.976 120.164C153.976 121.325 154.543 122.045 155.47 122.045C156.406 122.045 156.955 121.325 156.955 120.164C156.955 119.048 156.379 118.31 155.47 118.31C154.579 118.31 153.976 119.048 153.976 120.164ZM156.199 120.164C156.199 120.956 155.929 121.424 155.47 121.424C155.011 121.424 154.741 120.956 154.741 120.164C154.741 119.426 155.056 118.931 155.47 118.931C155.893 118.931 156.199 119.426 156.199 120.164ZM149.665 117.482C149.665 118.643 150.232 119.363 151.159 119.363C152.095 119.363 152.644 118.643 152.644 117.482C152.644 116.366 152.068 115.628 151.159 115.628C150.268 115.628 149.665 116.366 149.665 117.482ZM151.888 117.482C151.888 118.274 151.618 118.742 151.159 118.742C150.7 118.742 150.43 118.274 150.43 117.482C150.43 116.744 150.745 116.249 151.159 116.249C151.582 116.249 151.888 116.744 151.888 117.482ZM132.9 131H133.8V127.724V125.618L135.951 131H136.59L138.723 125.618V127.724V131H139.614V124.7H138.183L136.77 128.309L136.293 129.497L135.816 128.309L134.367 124.7H132.9V131ZM141.12 127.697H142.272V126.527H141.12V127.697ZM141.12 131H142.272V129.83H141.12V131ZM145.679 127.823C145.679 129.956 146.687 131.126 148.208 131.126C149.702 131.126 150.719 129.956 150.719 127.823C150.719 125.726 149.603 124.574 148.208 124.574C146.795 124.574 145.679 125.726 145.679 127.823ZM149.774 127.823C149.774 129.443 149.18 130.325 148.208 130.325C147.227 130.325 146.624 129.443 146.624 127.823C146.624 126.329 147.245 125.375 148.208 125.375C149.153 125.375 149.774 126.329 149.774 127.823ZM152.517 131H153.39L157.872 124.7H157.008L152.517 131ZM155.865 129.164C155.865 130.325 156.432 131.045 157.359 131.045C158.295 131.045 158.844 130.325 158.844 129.164C158.844 128.048 158.268 127.31 157.359 127.31C156.468 127.31 155.865 128.048 155.865 129.164ZM158.088 129.164C158.088 129.956 157.818 130.424 157.359 130.424C156.9 130.424 156.63 129.956 156.63 129.164C156.63 128.426 156.945 127.931 157.359 127.931C157.782 127.931 158.088 128.426 158.088 129.164ZM151.554 126.482C151.554 127.643 152.121 128.363 153.048 128.363C153.984 128.363 154.533 127.643 154.533 126.482C154.533 125.366 153.957 124.628 153.048 124.628C152.157 124.628 151.554 125.366 151.554 126.482ZM153.777 126.482C153.777 127.274 153.507 127.742 153.048 127.742C152.589 127.742 152.319 127.274 152.319 126.482C152.319 125.744 152.634 125.249 153.048 125.249C153.471 125.249 153.777 125.744 153.777 126.482ZM134.475 140H135.375V137.327L137.589 133.7H136.518L135.456 135.581L134.934 136.481L134.403 135.581L133.269 133.7H132.189L134.475 137.363V140ZM137.736 136.697H138.888V135.527H137.736V136.697ZM137.736 140H138.888V138.83H137.736V140ZM142.295 136.823C142.295 138.956 143.303 140.126 144.824 140.126C146.318 140.126 147.335 138.956 147.335 136.823C147.335 134.726 146.219 133.574 144.824 133.574C143.411 133.574 142.295 134.726 142.295 136.823ZM146.39 136.823C146.39 138.443 145.796 139.325 144.824 139.325C143.843 139.325 143.24 138.443 143.24 136.823C143.24 135.329 143.861 134.375 144.824 134.375C145.769 134.375 146.39 135.329 146.39 136.823ZM149.134 140H150.007L154.489 133.7H153.625L149.134 140ZM152.482 138.164C152.482 139.325 153.049 140.045 153.976 140.045C154.912 140.045 155.461 139.325 155.461 138.164C155.461 137.048 154.885 136.31 153.976 136.31C153.085 136.31 152.482 137.048 152.482 138.164ZM154.705 138.164C154.705 138.956 154.435 139.424 153.976 139.424C153.517 139.424 153.247 138.956 153.247 138.164C153.247 137.426 153.562 136.931 153.976 136.931C154.399 136.931 154.705 137.426 154.705 138.164ZM148.171 135.482C148.171 136.643 148.738 137.363 149.665 137.363C150.601 137.363 151.15 136.643 151.15 135.482C151.15 134.366 150.574 133.628 149.665 133.628C148.774 133.628 148.171 134.366 148.171 135.482ZM150.394 135.482C150.394 136.274 150.124 136.742 149.665 136.742C149.206 136.742 148.936 136.274 148.936 135.482C148.936 134.744 149.251 134.249 149.665 134.249C150.088 134.249 150.394 134.744 150.394 135.482ZM137.058 149H138.237L135.267 145.292L137.787 142.7H136.572L133.8 145.67V144.194V142.7H132.9V149H133.8V146.804L134.637 145.94L137.058 149ZM138.747 145.697H139.899V144.527H138.747V145.697ZM138.747 149H139.899V147.83H138.747V149ZM143.306 145.823C143.306 147.956 144.314 149.126 145.835 149.126C147.329 149.126 148.346 147.956 148.346 145.823C148.346 143.726 147.23 142.574 145.835 142.574C144.422 142.574 143.306 143.726 143.306 145.823ZM147.401 145.823C147.401 147.443 146.807 148.325 145.835 148.325C144.854 148.325 144.251 147.443 144.251 145.823C144.251 144.329 144.872 143.375 145.835 143.375C146.78 143.375 147.401 144.329 147.401 145.823ZM150.144 149H151.017L155.499 142.7H154.635L150.144 149ZM153.492 147.164C153.492 148.325 154.059 149.045 154.986 149.045C155.922 149.045 156.471 148.325 156.471 147.164C156.471 146.048 155.895 145.31 154.986 145.31C154.095 145.31 153.492 146.048 153.492 147.164ZM155.715 147.164C155.715 147.956 155.445 148.424 154.986 148.424C154.527 148.424 154.257 147.956 154.257 147.164C154.257 146.426 154.572 145.931 154.986 145.931C155.409 145.931 155.715 146.426 155.715 147.164ZM149.181 144.482C149.181 145.643 149.748 146.363 150.675 146.363C151.611 146.363 152.16 145.643 152.16 144.482C152.16 143.366 151.584 142.628 150.675 142.628C149.784 142.628 149.181 143.366 149.181 144.482ZM151.404 144.482C151.404 145.274 151.134 145.742 150.675 145.742C150.216 145.742 149.946 145.274 149.946 144.482C149.946 143.744 150.261 143.249 150.675 143.249C151.098 143.249 151.404 143.744 151.404 144.482Z" fill="black"/>
<path d="M241.45 118.796C241.423 120.65 242.62 122.153 244.537 122.126C246.04 122.126 247.003 121.289 247.309 120.209L246.436 119.876C246.148 120.74 245.626 121.298 244.537 121.298C243.268 121.298 242.413 120.299 242.413 118.787C242.413 117.302 243.268 116.393 244.537 116.393C245.077 116.393 245.491 116.528 245.779 116.807C246.076 117.077 246.283 117.392 246.4 117.761L247.3 117.437C247.03 116.492 246.076 115.574 244.537 115.574C242.746 115.538 241.423 116.987 241.45 118.796ZM248.23 118.697H249.382V117.527H248.23V118.697ZM248.23 122H249.382V120.83H248.23V122ZM252.789 118.823C252.789 120.956 253.797 122.126 255.318 122.126C256.812 122.126 257.829 120.956 257.829 118.823C257.829 116.726 256.713 115.574 255.318 115.574C253.905 115.574 252.789 116.726 252.789 118.823ZM256.884 118.823C256.884 120.443 256.29 121.325 255.318 121.325C254.337 121.325 253.734 120.443 253.734 118.823C253.734 117.329 254.355 116.375 255.318 116.375C256.263 116.375 256.884 117.329 256.884 118.823ZM259.628 122H260.501L264.983 115.7H264.119L259.628 122ZM262.976 120.164C262.976 121.325 263.543 122.045 264.47 122.045C265.406 122.045 265.955 121.325 265.955 120.164C265.955 119.048 265.379 118.31 264.47 118.31C263.579 118.31 262.976 119.048 262.976 120.164ZM265.199 120.164C265.199 120.956 264.929 121.424 264.47 121.424C264.011 121.424 263.741 120.956 263.741 120.164C263.741 119.426 264.056 118.931 264.47 118.931C264.893 118.931 265.199 119.426 265.199 120.164ZM258.665 117.482C258.665 118.643 259.232 119.363 260.159 119.363C261.095 119.363 261.644 118.643 261.644 117.482C261.644 116.366 261.068 115.628 260.159 115.628C259.268 115.628 258.665 116.366 258.665 117.482ZM260.888 117.482C260.888 118.274 260.618 118.742 260.159 118.742C259.7 118.742 259.43 118.274 259.43 117.482C259.43 116.744 259.745 116.249 260.159 116.249C260.582 116.249 260.888 116.744 260.888 117.482ZM241.9 131H242.8V127.724V125.618L244.951 131H245.59L247.723 125.618V127.724V131H248.614V124.7H247.183L245.77 128.309L245.293 129.497L244.816 128.309L243.367 124.7H241.9V131ZM250.12 127.697H251.272V126.527H250.12V127.697ZM250.12 131H251.272V129.83H250.12V131ZM254.679 127.823C254.679 129.956 255.687 131.126 257.208 131.126C258.702 131.126 259.719 129.956 259.719 127.823C259.719 125.726 258.603 124.574 257.208 124.574C255.795 124.574 254.679 125.726 254.679 127.823ZM258.774 127.823C258.774 129.443 258.18 130.325 257.208 130.325C256.227 130.325 255.624 129.443 255.624 127.823C255.624 126.329 256.245 125.375 257.208 125.375C258.153 125.375 258.774 126.329 258.774 127.823ZM261.517 131H262.39L266.872 124.7H266.008L261.517 131ZM264.865 129.164C264.865 130.325 265.432 131.045 266.359 131.045C267.295 131.045 267.844 130.325 267.844 129.164C267.844 128.048 267.268 127.31 266.359 127.31C265.468 127.31 264.865 128.048 264.865 129.164ZM267.088 129.164C267.088 129.956 266.818 130.424 266.359 130.424C265.9 130.424 265.63 129.956 265.63 129.164C265.63 128.426 265.945 127.931 266.359 127.931C266.782 127.931 267.088 128.426 267.088 129.164ZM260.554 126.482C260.554 127.643 261.121 128.363 262.048 128.363C262.984 128.363 263.533 127.643 263.533 126.482C263.533 125.366 262.957 124.628 262.048 124.628C261.157 124.628 260.554 125.366 260.554 126.482ZM262.777 126.482C262.777 127.274 262.507 127.742 262.048 127.742C261.589 127.742 261.319 127.274 261.319 126.482C261.319 125.744 261.634 125.249 262.048 125.249C262.471 125.249 262.777 125.744 262.777 126.482ZM243.475 140H244.375V137.327L246.589 133.7H245.518L244.456 135.581L243.934 136.481L243.403 135.581L242.269 133.7H241.189L243.475 137.363V140ZM246.736 136.697H247.888V135.527H246.736V136.697ZM246.736 140H247.888V138.83H246.736V140ZM251.295 136.823C251.295 138.956 252.303 140.126 253.824 140.126C255.318 140.126 256.335 138.956 256.335 136.823C256.335 134.726 255.219 133.574 253.824 133.574C252.411 133.574 251.295 134.726 251.295 136.823ZM255.39 136.823C255.39 138.443 254.796 139.325 253.824 139.325C252.843 139.325 252.24 138.443 252.24 136.823C252.24 135.329 252.861 134.375 253.824 134.375C254.769 134.375 255.39 135.329 255.39 136.823ZM258.134 140H259.007L263.489 133.7H262.625L258.134 140ZM261.482 138.164C261.482 139.325 262.049 140.045 262.976 140.045C263.912 140.045 264.461 139.325 264.461 138.164C264.461 137.048 263.885 136.31 262.976 136.31C262.085 136.31 261.482 137.048 261.482 138.164ZM263.705 138.164C263.705 138.956 263.435 139.424 262.976 139.424C262.517 139.424 262.247 138.956 262.247 138.164C262.247 137.426 262.562 136.931 262.976 136.931C263.399 136.931 263.705 137.426 263.705 138.164ZM257.171 135.482C257.171 136.643 257.738 137.363 258.665 137.363C259.601 137.363 260.15 136.643 260.15 135.482C260.15 134.366 259.574 133.628 258.665 133.628C257.774 133.628 257.171 134.366 257.171 135.482ZM259.394 135.482C259.394 136.274 259.124 136.742 258.665 136.742C258.206 136.742 257.936 136.274 257.936 135.482C257.936 134.744 258.251 134.249 258.665 134.249C259.088 134.249 259.394 134.744 259.394 135.482ZM246.058 149H247.237L244.267 145.292L246.787 142.7H245.572L242.8 145.67V144.194V142.7H241.9V149H242.8V146.804L243.637 145.94L246.058 149ZM247.747 145.697H248.899V144.527H247.747V145.697ZM247.747 149H248.899V147.83H247.747V149ZM253.746 149H254.628V142.7H253.908C253.521 143.429 252.837 143.906 252.045 144.086V145.022C252.729 144.923 253.395 144.455 253.746 143.87V144.752V149ZM256.059 145.823C256.059 147.956 257.067 149.126 258.588 149.126C260.082 149.126 261.099 147.956 261.099 145.823C261.099 143.726 259.983 142.574 258.588 142.574C257.175 142.574 256.059 143.726 256.059 145.823ZM260.154 145.823C260.154 147.443 259.56 148.325 258.588 148.325C257.607 148.325 257.004 147.443 257.004 145.823C257.004 144.329 257.625 143.375 258.588 143.375C259.533 143.375 260.154 144.329 260.154 145.823ZM262.123 145.823C262.123 147.956 263.131 149.126 264.652 149.126C266.146 149.126 267.163 147.956 267.163 145.823C267.163 143.726 266.047 142.574 264.652 142.574C263.239 142.574 262.123 143.726 262.123 145.823ZM266.218 145.823C266.218 147.443 265.624 148.325 264.652 148.325C263.671 148.325 263.068 147.443 263.068 145.823C263.068 144.329 263.689 143.375 264.652 143.375C265.597 143.375 266.218 144.329 266.218 145.823ZM268.962 149H269.835L274.317 142.7H273.453L268.962 149ZM272.31 147.164C272.31 148.325 272.877 149.045 273.804 149.045C274.74 149.045 275.289 148.325 275.289 147.164C275.289 146.048 274.713 145.31 273.804 145.31C272.913 145.31 272.31 146.048 272.31 147.164ZM274.533 147.164C274.533 147.956 274.263 148.424 273.804 148.424C273.345 148.424 273.075 147.956 273.075 147.164C273.075 146.426 273.39 145.931 273.804 145.931C274.227 145.931 274.533 146.426 274.533 147.164ZM267.999 144.482C267.999 145.643 268.566 146.363 269.493 146.363C270.429 146.363 270.978 145.643 270.978 144.482C270.978 143.366 270.402 142.628 269.493 142.628C268.602 142.628 267.999 143.366 267.999 144.482ZM270.222 144.482C270.222 145.274 269.952 145.742 269.493 145.742C269.034 145.742 268.764 145.274 268.764 144.482C268.764 143.744 269.079 143.249 269.493 143.249C269.916 143.249 270.222 143.744 270.222 144.482Z" fill="black"/>
<path d="M20.9 82H21.8V79.399H23.105C23.96 79.399 24.374 79.696 24.5 80.497L24.761 82H25.742L25.436 80.416C25.274 79.624 24.95 79.237 24.122 79.093C24.977 78.931 25.625 78.355 25.625 77.41C25.625 76.438 24.878 75.7 23.591 75.7H20.9V82ZM21.8 78.589V76.528H23.456C24.203 76.528 24.68 76.87 24.68 77.554C24.68 78.238 24.203 78.589 23.456 78.589H21.8ZM26.8169 78.697H27.9689V77.527H26.8169V78.697ZM26.8169 82H27.9689V80.83H26.8169V82ZM31.4033 82H35.6243V81.172H33.8603H32.3843C33.5993 80.452 34.3823 79.885 34.8863 79.282C35.3273 78.751 35.5523 78.166 35.5523 77.527C35.5523 76.393 34.7693 75.574 33.4733 75.574C32.1683 75.574 31.3673 76.438 31.3493 77.653L32.2583 77.77C32.2583 76.897 32.7803 76.375 33.4643 76.375C34.0943 76.375 34.6073 76.834 34.6073 77.626C34.6073 78.418 34.0043 79.183 33.0953 79.876C32.6453 80.218 32.0783 80.596 31.4033 81.019V82ZM36.8841 81.937C37.1631 82.045 37.7031 82.126 38.1081 82.126C40.0791 82.126 41.0511 80.704 41.0511 78.625C41.0511 77.554 40.7721 76.726 40.2681 76.213C39.8451 75.79 39.3141 75.574 38.6661 75.574C37.3521 75.574 36.5421 76.546 36.5421 77.761C36.5421 78.841 37.3071 79.696 38.4951 79.696C39.2331 79.696 39.9081 79.291 40.1601 78.679C40.1601 79.687 39.9081 80.398 39.4131 80.803C39.0531 81.1 38.6031 81.244 38.0721 81.244C37.6581 81.244 37.2621 81.172 36.8841 81.019V81.937ZM39.9441 77.653C39.9441 78.418 39.4131 78.931 38.7111 78.931C38.0271 78.931 37.4781 78.418 37.4781 77.653C37.4781 76.87 38.0271 76.357 38.7111 76.357C39.4131 76.357 39.9441 76.87 39.9441 77.653ZM20.459 87.841C20.459 89.848 21.629 91.126 23.438 91.126C24.023 91.126 24.482 91 24.815 90.757C25.157 90.505 25.409 90.217 25.562 89.893V91H26.435V87.895H23.33V88.723H25.508C25.454 89.515 24.725 90.307 23.564 90.307C22.295 90.307 21.422 89.38 21.422 87.841C21.422 86.302 22.457 85.411 23.591 85.411C24.536 85.411 25.184 85.888 25.535 86.833L26.453 86.464C26.111 85.447 25.139 84.574 23.618 84.574C21.926 84.547 20.423 85.978 20.459 87.841ZM27.6255 87.697H28.7775V86.527H27.6255V87.697ZM27.6255 91H28.7775V89.83H27.6255V91ZM32.0769 89.2C32.1669 90.37 33.0219 91.126 34.3269 91.126C35.6319 91.126 36.4509 90.361 36.4509 89.389C36.4509 88.543 35.9469 87.922 35.1819 87.76C35.8749 87.535 36.3339 86.986 36.3339 86.239C36.3339 85.285 35.5689 84.574 34.3269 84.574C33.0939 84.574 32.3109 85.339 32.2389 86.32L33.1569 86.491C33.2109 85.807 33.6699 85.357 34.3269 85.357C34.9209 85.357 35.4249 85.762 35.4249 86.383C35.4249 87.013 34.9299 87.418 34.3089 87.418H33.8589V88.183H34.3089C35.0109 88.183 35.5239 88.588 35.5239 89.272C35.5239 89.929 35.0109 90.343 34.3269 90.343C33.5529 90.343 33.0579 89.821 33.0219 89.002L32.0769 89.2ZM40.7157 85.528C39.0687 86.851 38.1327 88.723 38.1327 91H39.1317C39.1407 88.786 39.6087 87.256 41.4717 85.681V84.7H37.1967V85.528H39.3387H40.7157ZM20.9 100H23.753C24.923 100 25.832 99.433 25.832 98.263C25.832 97.39 25.157 96.859 24.446 96.715C25.058 96.571 25.625 96.067 25.625 95.248C25.625 94.321 24.968 93.7 23.654 93.7H20.9V100ZM21.8 96.328V94.528H23.555C24.266 94.528 24.689 94.816 24.689 95.392C24.689 95.968 24.239 96.328 23.555 96.328H21.8ZM21.8 99.172V97.138H23.627C24.41 97.138 24.878 97.507 24.878 98.146C24.878 98.776 24.392 99.172 23.627 99.172H21.8ZM26.9223 96.697H28.0743V95.527H26.9223V96.697ZM26.9223 100H28.0743V98.83H26.9223V100ZM32.9218 100H33.8038V93.7H33.0838C32.6968 94.429 32.0128 94.906 31.2208 95.086V96.022C31.9048 95.923 32.5708 95.455 32.9218 94.87V95.752V100ZM35.1267 98.2C35.2167 99.37 36.0717 100.126 37.3767 100.126C38.6817 100.126 39.5007 99.361 39.5007 98.389C39.5007 97.543 38.9967 96.922 38.2317 96.76C38.9247 96.535 39.3837 95.986 39.3837 95.239C39.3837 94.285 38.6187 93.574 37.3767 93.574C36.1437 93.574 35.3607 94.339 35.2887 95.32L36.2067 95.491C36.2607 94.807 36.7197 94.357 37.3767 94.357C37.9707 94.357 38.4747 94.762 38.4747 95.383C38.4747 96.013 37.9797 96.418 37.3587 96.418H36.9087V97.183H37.3587C38.0607 97.183 38.5737 97.588 38.5737 98.272C38.5737 98.929 38.0607 99.343 37.3767 99.343C36.6027 99.343 36.1077 98.821 36.0717 98.002L35.1267 98.2ZM40.5615 100H44.7825V99.172H43.0185H41.5425C42.7575 98.452 43.5405 97.885 44.0445 97.282C44.4855 96.751 44.7105 96.166 44.7105 95.527C44.7105 94.393 43.9275 93.574 42.6315 93.574C41.3265 93.574 40.5255 94.438 40.5075 95.653L41.4165 95.77C41.4165 94.897 41.9385 94.375 42.6225 94.375C43.2525 94.375 43.7655 94.834 43.7655 95.626C43.7655 96.418 43.1625 97.183 42.2535 97.876C41.8035 98.218 41.2365 98.596 40.5615 99.019V100Z" fill="black"/>
<path d="M133.9 82H134.8V79.399H136.105C136.96 79.399 137.374 79.696 137.5 80.497L137.761 82H138.742L138.436 80.416C138.274 79.624 137.95 79.237 137.122 79.093C137.977 78.931 138.625 78.355 138.625 77.41C138.625 76.438 137.878 75.7 136.591 75.7H133.9V82ZM134.8 78.589V76.528H136.456C137.203 76.528 137.68 76.87 137.68 77.554C137.68 78.238 137.203 78.589 136.456 78.589H134.8ZM139.817 78.697H140.969V77.527H139.817V78.697ZM139.817 82H140.969V80.83H139.817V82ZM144.403 82H148.624V81.172H146.86H145.384C146.599 80.452 147.382 79.885 147.886 79.282C148.327 78.751 148.552 78.166 148.552 77.527C148.552 76.393 147.769 75.574 146.473 75.574C145.168 75.574 144.367 76.438 144.349 77.653L145.258 77.77C145.258 76.897 145.78 76.375 146.464 76.375C147.094 76.375 147.607 76.834 147.607 77.626C147.607 78.418 147.004 79.183 146.095 79.876C145.645 80.218 145.078 80.596 144.403 81.019V82ZM149.533 80.533C149.731 81.451 150.523 82.126 151.828 82.126C153.169 82.126 154.015 81.28 154.015 80.029C154.015 78.796 153.241 78.022 152.026 78.022C151.405 78.022 150.91 78.247 150.541 78.688L150.622 78.121C150.631 78.04 150.658 77.95 150.667 77.842L150.865 76.528H153.826V75.7H150.199L149.668 79.3L150.613 79.453C150.856 79.048 151.27 78.778 151.801 78.778C152.593 78.778 153.088 79.282 153.088 80.056C153.088 80.848 152.584 81.343 151.792 81.343C151.099 81.343 150.595 80.938 150.442 80.245L149.533 80.533ZM154.903 80.533C155.101 81.451 155.893 82.126 157.198 82.126C158.539 82.126 159.385 81.28 159.385 80.029C159.385 78.796 158.611 78.022 157.396 78.022C156.775 78.022 156.28 78.247 155.911 78.688L155.992 78.121C156.001 78.04 156.028 77.95 156.037 77.842L156.235 76.528H159.196V75.7H155.569L155.038 79.3L155.983 79.453C156.226 79.048 156.64 78.778 157.171 78.778C157.963 78.778 158.458 79.282 158.458 80.056C158.458 80.848 157.954 81.343 157.162 81.343C156.469 81.343 155.965 80.938 155.812 80.245L154.903 80.533ZM133.459 87.841C133.459 89.848 134.629 91.126 136.438 91.126C137.023 91.126 137.482 91 137.815 90.757C138.157 90.505 138.409 90.217 138.562 89.893V91H139.435V87.895H136.33V88.723H138.508C138.454 89.515 137.725 90.307 136.564 90.307C135.295 90.307 134.422 89.38 134.422 87.841C134.422 86.302 135.457 85.411 136.591 85.411C137.536 85.411 138.184 85.888 138.535 86.833L139.453 86.464C139.111 85.447 138.139 84.574 136.618 84.574C134.926 84.547 133.423 85.978 133.459 87.841ZM140.625 87.697H141.777V86.527H140.625V87.697ZM140.625 91H141.777V89.83H140.625V91ZM145.212 91H149.433V90.172H147.669H146.193C147.408 89.452 148.191 88.885 148.695 88.282C149.136 87.751 149.361 87.166 149.361 86.527C149.361 85.393 148.578 84.574 147.282 84.574C145.977 84.574 145.176 85.438 145.158 86.653L146.067 86.77C146.067 85.897 146.589 85.375 147.273 85.375C147.903 85.375 148.416 85.834 148.416 86.626C148.416 87.418 147.813 88.183 146.904 88.876C146.454 89.218 145.887 89.596 145.212 90.019V91ZM150.342 89.533C150.54 90.451 151.332 91.126 152.637 91.126C153.978 91.126 154.824 90.28 154.824 89.029C154.824 87.796 154.05 87.022 152.835 87.022C152.214 87.022 151.719 87.247 151.35 87.688L151.431 87.121C151.44 87.04 151.467 86.95 151.476 86.842L151.674 85.528H154.635V84.7H151.008L150.477 88.3L151.422 88.453C151.665 88.048 152.079 87.778 152.61 87.778C153.402 87.778 153.897 88.282 153.897 89.056C153.897 89.848 153.393 90.343 152.601 90.343C151.908 90.343 151.404 89.938 151.251 89.245L150.342 89.533ZM155.712 89.533C155.91 90.451 156.702 91.126 158.007 91.126C159.348 91.126 160.194 90.28 160.194 89.029C160.194 87.796 159.42 87.022 158.205 87.022C157.584 87.022 157.089 87.247 156.72 87.688L156.801 87.121C156.81 87.04 156.837 86.95 156.846 86.842L157.044 85.528H160.005V84.7H156.378L155.847 88.3L156.792 88.453C157.035 88.048 157.449 87.778 157.98 87.778C158.772 87.778 159.267 88.282 159.267 89.056C159.267 89.848 158.763 90.343 157.971 90.343C157.278 90.343 156.774 89.938 156.621 89.245L155.712 89.533ZM133.9 100H136.753C137.923 100 138.832 99.433 138.832 98.263C138.832 97.39 138.157 96.859 137.446 96.715C138.058 96.571 138.625 96.067 138.625 95.248C138.625 94.321 137.968 93.7 136.654 93.7H133.9V100ZM134.8 96.328V94.528H136.555C137.266 94.528 137.689 94.816 137.689 95.392C137.689 95.968 137.239 96.328 136.555 96.328H134.8ZM134.8 99.172V97.138H136.627C137.41 97.138 137.878 97.507 137.878 98.146C137.878 98.776 137.392 99.172 136.627 99.172H134.8ZM139.922 96.697H141.074V95.527H139.922V96.697ZM139.922 100H141.074V98.83H139.922V100ZM144.509 100H148.73V99.172H146.966H145.49C146.705 98.452 147.488 97.885 147.992 97.282C148.433 96.751 148.658 96.166 148.658 95.527C148.658 94.393 147.875 93.574 146.579 93.574C145.274 93.574 144.473 94.438 144.455 95.653L145.364 95.77C145.364 94.897 145.886 94.375 146.57 94.375C147.2 94.375 147.713 94.834 147.713 95.626C147.713 96.418 147.11 97.183 146.201 97.876C145.751 98.218 145.184 98.596 144.509 99.019V100ZM149.639 98.533C149.837 99.451 150.629 100.126 151.934 100.126C153.275 100.126 154.121 99.28 154.121 98.029C154.121 96.796 153.347 96.022 152.132 96.022C151.511 96.022 151.016 96.247 150.647 96.688L150.728 96.121C150.737 96.04 150.764 95.95 150.773 95.842L150.971 94.528H153.932V93.7H150.305L149.774 97.3L150.719 97.453C150.962 97.048 151.376 96.778 151.907 96.778C152.699 96.778 153.194 97.282 153.194 98.056C153.194 98.848 152.69 99.343 151.898 99.343C151.205 99.343 150.701 98.938 150.548 98.245L149.639 98.533ZM155.009 98.533C155.207 99.451 155.999 100.126 157.304 100.126C158.645 100.126 159.491 99.28 159.491 98.029C159.491 96.796 158.717 96.022 157.502 96.022C156.881 96.022 156.386 96.247 156.017 96.688L156.098 96.121C156.107 96.04 156.134 95.95 156.143 95.842L156.341 94.528H159.302V93.7H155.675L155.144 97.3L156.089 97.453C156.332 97.048 156.746 96.778 157.277 96.778C158.069 96.778 158.564 97.282 158.564 98.056C158.564 98.848 158.06 99.343 157.268 99.343C156.575 99.343 156.071 98.938 155.918 98.245L155.009 98.533Z" fill="black"/>
<path d="M242.9 82H243.8V79.399H245.105C245.96 79.399 246.374 79.696 246.5 80.497L246.761 82H247.742L247.436 80.416C247.274 79.624 246.95 79.237 246.122 79.093C246.977 78.931 247.625 78.355 247.625 77.41C247.625 76.438 246.878 75.7 245.591 75.7H242.9V82ZM243.8 78.589V76.528H245.456C246.203 76.528 246.68 76.87 246.68 77.554C246.68 78.238 246.203 78.589 245.456 78.589H243.8ZM248.817 78.697H249.969V77.527H248.817V78.697ZM248.817 82H249.969V80.83H248.817V82ZM253.376 78.823C253.376 80.956 254.384 82.126 255.905 82.126C257.399 82.126 258.416 80.956 258.416 78.823C258.416 76.726 257.3 75.574 255.905 75.574C254.492 75.574 253.376 76.726 253.376 78.823ZM257.471 78.823C257.471 80.443 256.877 81.325 255.905 81.325C254.924 81.325 254.321 80.443 254.321 78.823C254.321 77.329 254.942 76.375 255.905 76.375C256.85 76.375 257.471 77.329 257.471 78.823ZM242.459 87.841C242.459 89.848 243.629 91.126 245.438 91.126C246.023 91.126 246.482 91 246.815 90.757C247.157 90.505 247.409 90.217 247.562 89.893V91H248.435V87.895H245.33V88.723H247.508C247.454 89.515 246.725 90.307 245.564 90.307C244.295 90.307 243.422 89.38 243.422 87.841C243.422 86.302 244.457 85.411 245.591 85.411C246.536 85.411 247.184 85.888 247.535 86.833L248.453 86.464C248.111 85.447 247.139 84.574 245.618 84.574C243.926 84.547 242.423 85.978 242.459 87.841ZM249.625 87.697H250.777V86.527H249.625V87.697ZM249.625 91H250.777V89.83H249.625V91ZM254.185 87.823C254.185 89.956 255.193 91.126 256.714 91.126C258.208 91.126 259.225 89.956 259.225 87.823C259.225 85.726 258.109 84.574 256.714 84.574C255.301 84.574 254.185 85.726 254.185 87.823ZM258.28 87.823C258.28 89.443 257.686 90.325 256.714 90.325C255.733 90.325 255.13 89.443 255.13 87.823C255.13 86.329 255.751 85.375 256.714 85.375C257.659 85.375 258.28 86.329 258.28 87.823ZM242.9 100H245.753C246.923 100 247.832 99.433 247.832 98.263C247.832 97.39 247.157 96.859 246.446 96.715C247.058 96.571 247.625 96.067 247.625 95.248C247.625 94.321 246.968 93.7 245.654 93.7H242.9V100ZM243.8 96.328V94.528H245.555C246.266 94.528 246.689 94.816 246.689 95.392C246.689 95.968 246.239 96.328 245.555 96.328H243.8ZM243.8 99.172V97.138H245.627C246.41 97.138 246.878 97.507 246.878 98.146C246.878 98.776 246.392 99.172 245.627 99.172H243.8ZM248.922 96.697H250.074V95.527H248.922V96.697ZM248.922 100H250.074V98.83H248.922V100ZM253.482 96.823C253.482 98.956 254.49 100.126 256.011 100.126C257.505 100.126 258.522 98.956 258.522 96.823C258.522 94.726 257.406 93.574 256.011 93.574C254.598 93.574 253.482 94.726 253.482 96.823ZM257.577 96.823C257.577 98.443 256.983 99.325 256.011 99.325C255.03 99.325 254.427 98.443 254.427 96.823C254.427 95.329 255.048 94.375 256.011 94.375C256.956 94.375 257.577 95.329 257.577 96.823Z" fill="black"/>
<g filter="url(#filter0_d_73_505)">
<rect x="4" width="66" height="66" fill="#2063F3"/>
</g>
<g filter="url(#filter1_d_73_505)">
<rect x="117" width="66" height="66" fill="white"/>
</g>
<g filter="url(#filter2_d_73_505)">
<rect x="226" width="66" height="66" fill="black"/>
</g>
<defs>
<filter id="filter0_d_73_505" x="0" y="0" width="74" height="74" filterUnits="userSpaceOnUse" color-interpolation-filters="sRGB">
<feFlood flood-opacity="0" result="BackgroundImageFix"/>
<feColorMatrix in="SourceAlpha" type="matrix" values="0 0 0 0 0 0 0 0 0 0 0 0 0 0 0 0 0 0 127 0" result="hardAlpha"/>
<feOffset dy="4"/>
<feGaussianBlur stdDeviation="2"/>
<feComposite in2="hardAlpha" operator="out"/>
<feColorMatrix type="matrix" values="0 0 0 0 0 0 0 0 0 0 0 0 0 0 0 0 0 0 0.25 0"/>
<feBlend mode="normal" in2="BackgroundImageFix" result="effect1_dropShadow_73_505"/>
<feBlend mode="normal" in="SourceGraphic" in2="effect1_dropShadow_73_505" result="shape"/>
</filter>
<filter id="filter1_d_73_505" x="113" y="0" width="74" height="74" filterUnits="userSpaceOnUse" color-interpolation-filters="sRGB">
<feFlood flood-opacity="0" result="BackgroundImageFix"/>
<feColorMatrix in="SourceAlpha" type="matrix" values="0 0 0 0 0 0 0 0 0 0 0 0 0 0 0 0 0 0 127 0" result="hardAlpha"/>
<feOffset dy="4"/>
<feGaussianBlur stdDeviation="2"/>
<feComposite in2="hardAlpha" operator="out"/>
<feColorMatrix type="matrix" values="0 0 0 0 0 0 0 0 0 0 0 0 0 0 0 0 0 0 0.25 0"/>
<feBlend mode="normal" in2="BackgroundImageFix" result="effect1_dropShadow_73_505"/>
<feBlend mode="normal" in="SourceGraphic" in2="effect1_dropShadow_73_505" result="shape"/>
</filter>
<filter id="filter2_d_73_505" x="222" y="0" width="74" height="74" filterUnits="userSpaceOnUse" color-interpolation-filters="sRGB">
<feFlood flood-opacity="0" result="BackgroundImageFix"/>
<feColorMatrix in="SourceAlpha" type="matrix" values="0 0 0 0 0 0 0 0 0 0 0 0 0 0 0 0 0 0 127 0" result="hardAlpha"/>
<feOffset dy="4"/>
<feGaussianBlur stdDeviation="2"/>
<feComposite in2="hardAlpha" operator="out"/>
<feColorMatrix type="matrix" values="0 0 0 0 0 0 0 0 0 0 0 0 0 0 0 0 0 0 0.25 0"/>
<feBlend mode="normal" in2="BackgroundImageFix" result="effect1_dropShadow_73_505"/>
<feBlend mode="normal" in="SourceGraphic" in2="effect1_dropShadow_73_505" result="shape"/>
</filter>
</defs>
</svg>
