<svg width="187" height="157" viewBox="0 0 187 157" fill="none" xmlns="http://www.w3.org/2000/svg">
<path d="M19.45 123.796C19.423 125.65 20.62 127.153 22.537 127.126C24.04 127.126 25.003 126.289 25.309 125.209L24.436 124.876C24.148 125.74 23.626 126.298 22.537 126.298C21.268 126.298 20.413 125.299 20.413 123.787C20.413 122.302 21.268 121.393 22.537 121.393C23.077 121.393 23.491 121.528 23.779 121.807C24.076 122.077 24.283 122.392 24.4 122.761L25.3 122.437C25.03 121.492 24.076 120.574 22.537 120.574C20.746 120.538 19.423 121.987 19.45 123.796ZM26.23 123.697H27.382V122.527H26.23V123.697ZM26.23 127H27.382V125.83H26.23V127ZM32.2294 127H33.1114V120.7H32.3914C32.0044 121.429 31.3204 121.906 30.5284 122.086V123.022C31.2124 122.923 31.8784 122.455 32.2294 121.87V122.752V127ZM34.5423 123.823C34.5423 125.956 35.5503 127.126 37.0713 127.126C38.5653 127.126 39.5823 125.956 39.5823 123.823C39.5823 121.726 38.4663 120.574 37.0713 120.574C35.6583 120.574 34.5423 121.726 34.5423 123.823ZM38.6373 123.823C38.6373 125.443 38.0433 126.325 37.0713 126.325C36.0903 126.325 35.4873 125.443 35.4873 123.823C35.4873 122.329 36.1083 121.375 37.0713 121.375C38.0163 121.375 38.6373 122.329 38.6373 123.823ZM40.6068 123.823C40.6068 125.956 41.6148 127.126 43.1358 127.126C44.6298 127.126 45.6468 125.956 45.6468 123.823C45.6468 121.726 44.5308 120.574 43.1358 120.574C41.7228 120.574 40.6068 121.726 40.6068 123.823ZM44.7018 123.823C44.7018 125.443 44.1078 126.325 43.1358 126.325C42.1548 126.325 41.5518 125.443 41.5518 123.823C41.5518 122.329 42.1728 121.375 43.1358 121.375C44.0808 121.375 44.7018 122.329 44.7018 123.823ZM47.4452 127H48.3182L52.8002 120.7H51.9362L47.4452 127ZM50.7932 125.164C50.7932 126.325 51.3602 127.045 52.2872 127.045C53.2232 127.045 53.7722 126.325 53.7722 125.164C53.7722 124.048 53.1962 123.31 52.2872 123.31C51.3962 123.31 50.7932 124.048 50.7932 125.164ZM53.0162 125.164C53.0162 125.956 52.7462 126.424 52.2872 126.424C51.8282 126.424 51.5582 125.956 51.5582 125.164C51.5582 124.426 51.8732 123.931 52.2872 123.931C52.7102 123.931 53.0162 124.426 53.0162 125.164ZM46.4822 122.482C46.4822 123.643 47.0492 124.363 47.9762 124.363C48.9122 124.363 49.4612 123.643 49.4612 122.482C49.4612 121.366 48.8852 120.628 47.9762 120.628C47.0852 120.628 46.4822 121.366 46.4822 122.482ZM48.7052 122.482C48.7052 123.274 48.4352 123.742 47.9762 123.742C47.5172 123.742 47.2472 123.274 47.2472 122.482C47.2472 121.744 47.5622 121.249 47.9762 121.249C48.3992 121.249 48.7052 121.744 48.7052 122.482ZM19.9 136H20.8V132.724V130.618L22.951 136H23.59L25.723 130.618V132.724V136H26.614V129.7H25.183L23.77 133.309L23.293 134.497L22.816 133.309L21.367 129.7H19.9V136ZM28.1196 132.697H29.2716V131.527H28.1196V132.697ZM28.1196 136H29.2716V134.83H28.1196V136ZM32.931 135.937C33.21 136.045 33.75 136.126 34.155 136.126C36.126 136.126 37.098 134.704 37.098 132.625C37.098 131.554 36.819 130.726 36.315 130.213C35.892 129.79 35.361 129.574 34.713 129.574C33.399 129.574 32.589 130.546 32.589 131.761C32.589 132.841 33.354 133.696 34.542 133.696C35.28 133.696 35.955 133.291 36.207 132.679C36.207 133.687 35.955 134.398 35.46 134.803C35.1 135.1 34.65 135.244 34.119 135.244C33.705 135.244 33.309 135.172 32.931 135.019V135.937ZM35.991 131.653C35.991 132.418 35.46 132.931 34.758 132.931C34.074 132.931 33.525 132.418 33.525 131.653C33.525 130.87 34.074 130.357 34.758 130.357C35.46 130.357 35.991 130.87 35.991 131.653ZM38.0027 134.2C38.0927 135.37 38.9477 136.126 40.2527 136.126C41.5577 136.126 42.3767 135.361 42.3767 134.389C42.3767 133.543 41.8727 132.922 41.1077 132.76C41.8007 132.535 42.2597 131.986 42.2597 131.239C42.2597 130.285 41.4947 129.574 40.2527 129.574C39.0197 129.574 38.2367 130.339 38.1647 131.32L39.0827 131.491C39.1367 130.807 39.5957 130.357 40.2527 130.357C40.8467 130.357 41.3507 130.762 41.3507 131.383C41.3507 132.013 40.8557 132.418 40.2347 132.418H39.7847V133.183H40.2347C40.9367 133.183 41.4497 133.588 41.4497 134.272C41.4497 134.929 40.9367 135.343 40.2527 135.343C39.4787 135.343 38.9837 134.821 38.9477 134.002L38.0027 134.2ZM44.1845 136H45.0575L49.5395 129.7H48.6755L44.1845 136ZM47.5325 134.164C47.5325 135.325 48.0995 136.045 49.0265 136.045C49.9625 136.045 50.5115 135.325 50.5115 134.164C50.5115 133.048 49.9355 132.31 49.0265 132.31C48.1355 132.31 47.5325 133.048 47.5325 134.164ZM49.7555 134.164C49.7555 134.956 49.4855 135.424 49.0265 135.424C48.5675 135.424 48.2975 134.956 48.2975 134.164C48.2975 133.426 48.6125 132.931 49.0265 132.931C49.4495 132.931 49.7555 133.426 49.7555 134.164ZM43.2215 131.482C43.2215 132.643 43.7885 133.363 44.7155 133.363C45.6515 133.363 46.2005 132.643 46.2005 131.482C46.2005 130.366 45.6245 129.628 44.7155 129.628C43.8245 129.628 43.2215 130.366 43.2215 131.482ZM45.4445 131.482C45.4445 132.274 45.1745 132.742 44.7155 132.742C44.2565 132.742 43.9865 132.274 43.9865 131.482C43.9865 130.744 44.3015 130.249 44.7155 130.249C45.1385 130.249 45.4445 130.744 45.4445 131.482ZM21.475 145H22.375V142.327L24.589 138.7H23.518L22.456 140.581L21.934 141.481L21.403 140.581L20.269 138.7H19.189L21.475 142.363V145ZM24.7358 141.697H25.8878V140.527H24.7358V141.697ZM24.7358 145H25.8878V143.83H24.7358V145ZM30.7352 145H31.6172V138.7H30.8972C30.5102 139.429 29.8262 139.906 29.0342 140.086V141.022C29.7182 140.923 30.3842 140.455 30.7352 139.87V140.752V145ZM33.0392 143.308C33.0392 144.343 33.8132 145.126 35.2622 145.126C36.7112 145.126 37.4762 144.343 37.4762 143.308C37.4762 142.507 36.9542 141.904 36.2522 141.742C36.8912 141.526 37.3142 140.995 37.3142 140.266C37.3142 139.267 36.4772 138.574 35.2622 138.574C34.0382 138.574 33.2102 139.267 33.2102 140.266C33.2102 140.995 33.6512 141.526 34.2722 141.742C33.5972 141.886 33.0392 142.507 33.0392 143.308ZM36.4142 140.356C36.4142 140.995 35.9102 141.391 35.2622 141.391C34.6052 141.391 34.1102 140.995 34.1102 140.356C34.1102 139.753 34.5962 139.348 35.2622 139.348C35.9282 139.348 36.4142 139.753 36.4142 140.356ZM36.5402 143.227C36.5402 143.902 36.0452 144.343 35.2622 144.343C34.4792 144.343 33.9752 143.902 33.9752 143.227C33.9752 142.561 34.4792 142.093 35.2622 142.093C36.0362 142.093 36.5402 142.561 36.5402 143.227ZM39.2714 145H40.1444L44.6264 138.7H43.7624L39.2714 145ZM42.6194 143.164C42.6194 144.325 43.1864 145.045 44.1134 145.045C45.0494 145.045 45.5984 144.325 45.5984 143.164C45.5984 142.048 45.0224 141.31 44.1134 141.31C43.2224 141.31 42.6194 142.048 42.6194 143.164ZM44.8424 143.164C44.8424 143.956 44.5724 144.424 44.1134 144.424C43.6544 144.424 43.3844 143.956 43.3844 143.164C43.3844 142.426 43.6994 141.931 44.1134 141.931C44.5364 141.931 44.8424 142.426 44.8424 143.164ZM38.3084 140.482C38.3084 141.643 38.8754 142.363 39.8024 142.363C40.7384 142.363 41.2874 141.643 41.2874 140.482C41.2874 139.366 40.7114 138.628 39.8024 138.628C38.9114 138.628 38.3084 139.366 38.3084 140.482ZM40.5314 140.482C40.5314 141.274 40.2614 141.742 39.8024 141.742C39.3434 141.742 39.0734 141.274 39.0734 140.482C39.0734 139.744 39.3884 139.249 39.8024 139.249C40.2254 139.249 40.5314 139.744 40.5314 140.482ZM24.058 154H25.237L22.267 150.292L24.787 147.7H23.572L20.8 150.67V149.194V147.7H19.9V154H20.8V151.804L21.637 150.94L24.058 154ZM25.7466 150.697H26.8986V149.527H25.7466V150.697ZM25.7466 154H26.8986V152.83H25.7466V154ZM30.198 152.2C30.288 153.37 31.143 154.126 32.448 154.126C33.753 154.126 34.572 153.361 34.572 152.389C34.572 151.543 34.068 150.922 33.303 150.76C33.996 150.535 34.455 149.986 34.455 149.239C34.455 148.285 33.69 147.574 32.448 147.574C31.215 147.574 30.432 148.339 30.36 149.32L31.278 149.491C31.332 148.807 31.791 148.357 32.448 148.357C33.042 148.357 33.546 148.762 33.546 149.383C33.546 150.013 33.051 150.418 32.43 150.418H31.98V151.183H32.43C33.132 151.183 33.645 151.588 33.645 152.272C33.645 152.929 33.132 153.343 32.448 153.343C31.674 153.343 31.179 152.821 31.143 152.002L30.198 152.2ZM36.3798 154H37.2528L41.7348 147.7H40.8708L36.3798 154ZM39.7278 152.164C39.7278 153.325 40.2948 154.045 41.2218 154.045C42.1578 154.045 42.7068 153.325 42.7068 152.164C42.7068 151.048 42.1308 150.31 41.2218 150.31C40.3308 150.31 39.7278 151.048 39.7278 152.164ZM41.9508 152.164C41.9508 152.956 41.6808 153.424 41.2218 153.424C40.7628 153.424 40.4928 152.956 40.4928 152.164C40.4928 151.426 40.8078 150.931 41.2218 150.931C41.6448 150.931 41.9508 151.426 41.9508 152.164ZM35.4168 149.482C35.4168 150.643 35.9838 151.363 36.9108 151.363C37.8468 151.363 38.3958 150.643 38.3958 149.482C38.3958 148.366 37.8198 147.628 36.9108 147.628C36.0198 147.628 35.4168 148.366 35.4168 149.482ZM37.6398 149.482C37.6398 150.274 37.3698 150.742 36.9108 150.742C36.4518 150.742 36.1818 150.274 36.1818 149.482C36.1818 148.744 36.4968 148.249 36.9108 148.249C37.3338 148.249 37.6398 148.744 37.6398 149.482Z" fill="black"/>
<path d="M132.45 123.796C132.423 125.65 133.62 127.153 135.537 127.126C137.04 127.126 138.003 126.289 138.309 125.209L137.436 124.876C137.148 125.74 136.626 126.298 135.537 126.298C134.268 126.298 133.413 125.299 133.413 123.787C133.413 122.302 134.268 121.393 135.537 121.393C136.077 121.393 136.491 121.528 136.779 121.807C137.076 122.077 137.283 122.392 137.4 122.761L138.3 122.437C138.03 121.492 137.076 120.574 135.537 120.574C133.746 120.538 132.423 121.987 132.45 123.796ZM139.23 123.697H140.382V122.527H139.23V123.697ZM139.23 127H140.382V125.83H139.23V127ZM143.789 123.823C143.789 125.956 144.797 127.126 146.318 127.126C147.812 127.126 148.829 125.956 148.829 123.823C148.829 121.726 147.713 120.574 146.318 120.574C144.905 120.574 143.789 121.726 143.789 123.823ZM147.884 123.823C147.884 125.443 147.29 126.325 146.318 126.325C145.337 126.325 144.734 125.443 144.734 123.823C144.734 122.329 145.355 121.375 146.318 121.375C147.263 121.375 147.884 122.329 147.884 123.823ZM150.628 127H151.501L155.983 120.7H155.119L150.628 127ZM153.976 125.164C153.976 126.325 154.543 127.045 155.47 127.045C156.406 127.045 156.955 126.325 156.955 125.164C156.955 124.048 156.379 123.31 155.47 123.31C154.579 123.31 153.976 124.048 153.976 125.164ZM156.199 125.164C156.199 125.956 155.929 126.424 155.47 126.424C155.011 126.424 154.741 125.956 154.741 125.164C154.741 124.426 155.056 123.931 155.47 123.931C155.893 123.931 156.199 124.426 156.199 125.164ZM149.665 122.482C149.665 123.643 150.232 124.363 151.159 124.363C152.095 124.363 152.644 123.643 152.644 122.482C152.644 121.366 152.068 120.628 151.159 120.628C150.268 120.628 149.665 121.366 149.665 122.482ZM151.888 122.482C151.888 123.274 151.618 123.742 151.159 123.742C150.7 123.742 150.43 123.274 150.43 122.482C150.43 121.744 150.745 121.249 151.159 121.249C151.582 121.249 151.888 121.744 151.888 122.482ZM132.9 136H133.8V132.724V130.618L135.951 136H136.59L138.723 130.618V132.724V136H139.614V129.7H138.183L136.77 133.309L136.293 134.497L135.816 133.309L134.367 129.7H132.9V136ZM141.12 132.697H142.272V131.527H141.12V132.697ZM141.12 136H142.272V134.83H141.12V136ZM145.679 132.823C145.679 134.956 146.687 136.126 148.208 136.126C149.702 136.126 150.719 134.956 150.719 132.823C150.719 130.726 149.603 129.574 148.208 129.574C146.795 129.574 145.679 130.726 145.679 132.823ZM149.774 132.823C149.774 134.443 149.18 135.325 148.208 135.325C147.227 135.325 146.624 134.443 146.624 132.823C146.624 131.329 147.245 130.375 148.208 130.375C149.153 130.375 149.774 131.329 149.774 132.823ZM152.517 136H153.39L157.872 129.7H157.008L152.517 136ZM155.865 134.164C155.865 135.325 156.432 136.045 157.359 136.045C158.295 136.045 158.844 135.325 158.844 134.164C158.844 133.048 158.268 132.31 157.359 132.31C156.468 132.31 155.865 133.048 155.865 134.164ZM158.088 134.164C158.088 134.956 157.818 135.424 157.359 135.424C156.9 135.424 156.63 134.956 156.63 134.164C156.63 133.426 156.945 132.931 157.359 132.931C157.782 132.931 158.088 133.426 158.088 134.164ZM151.554 131.482C151.554 132.643 152.121 133.363 153.048 133.363C153.984 133.363 154.533 132.643 154.533 131.482C154.533 130.366 153.957 129.628 153.048 129.628C152.157 129.628 151.554 130.366 151.554 131.482ZM153.777 131.482C153.777 132.274 153.507 132.742 153.048 132.742C152.589 132.742 152.319 132.274 152.319 131.482C152.319 130.744 152.634 130.249 153.048 130.249C153.471 130.249 153.777 130.744 153.777 131.482ZM134.475 145H135.375V142.327L137.589 138.7H136.518L135.456 140.581L134.934 141.481L134.403 140.581L133.269 138.7H132.189L134.475 142.363V145ZM137.736 141.697H138.888V140.527H137.736V141.697ZM137.736 145H138.888V143.83H137.736V145ZM142.295 141.823C142.295 143.956 143.303 145.126 144.824 145.126C146.318 145.126 147.335 143.956 147.335 141.823C147.335 139.726 146.219 138.574 144.824 138.574C143.411 138.574 142.295 139.726 142.295 141.823ZM146.39 141.823C146.39 143.443 145.796 144.325 144.824 144.325C143.843 144.325 143.24 143.443 143.24 141.823C143.24 140.329 143.861 139.375 144.824 139.375C145.769 139.375 146.39 140.329 146.39 141.823ZM149.134 145H150.007L154.489 138.7H153.625L149.134 145ZM152.482 143.164C152.482 144.325 153.049 145.045 153.976 145.045C154.912 145.045 155.461 144.325 155.461 143.164C155.461 142.048 154.885 141.31 153.976 141.31C153.085 141.31 152.482 142.048 152.482 143.164ZM154.705 143.164C154.705 143.956 154.435 144.424 153.976 144.424C153.517 144.424 153.247 143.956 153.247 143.164C153.247 142.426 153.562 141.931 153.976 141.931C154.399 141.931 154.705 142.426 154.705 143.164ZM148.171 140.482C148.171 141.643 148.738 142.363 149.665 142.363C150.601 142.363 151.15 141.643 151.15 140.482C151.15 139.366 150.574 138.628 149.665 138.628C148.774 138.628 148.171 139.366 148.171 140.482ZM150.394 140.482C150.394 141.274 150.124 141.742 149.665 141.742C149.206 141.742 148.936 141.274 148.936 140.482C148.936 139.744 149.251 139.249 149.665 139.249C150.088 139.249 150.394 139.744 150.394 140.482ZM137.058 154H138.237L135.267 150.292L137.787 147.7H136.572L133.8 150.67V149.194V147.7H132.9V154H133.8V151.804L134.637 150.94L137.058 154ZM138.747 150.697H139.899V149.527H138.747V150.697ZM138.747 154H139.899V152.83H138.747V154ZM143.306 150.823C143.306 152.956 144.314 154.126 145.835 154.126C147.329 154.126 148.346 152.956 148.346 150.823C148.346 148.726 147.23 147.574 145.835 147.574C144.422 147.574 143.306 148.726 143.306 150.823ZM147.401 150.823C147.401 152.443 146.807 153.325 145.835 153.325C144.854 153.325 144.251 152.443 144.251 150.823C144.251 149.329 144.872 148.375 145.835 148.375C146.78 148.375 147.401 149.329 147.401 150.823ZM150.144 154H151.017L155.499 147.7H154.635L150.144 154ZM153.492 152.164C153.492 153.325 154.059 154.045 154.986 154.045C155.922 154.045 156.471 153.325 156.471 152.164C156.471 151.048 155.895 150.31 154.986 150.31C154.095 150.31 153.492 151.048 153.492 152.164ZM155.715 152.164C155.715 152.956 155.445 153.424 154.986 153.424C154.527 153.424 154.257 152.956 154.257 152.164C154.257 151.426 154.572 150.931 154.986 150.931C155.409 150.931 155.715 151.426 155.715 152.164ZM149.181 149.482C149.181 150.643 149.748 151.363 150.675 151.363C151.611 151.363 152.16 150.643 152.16 149.482C152.16 148.366 151.584 147.628 150.675 147.628C149.784 147.628 149.181 148.366 149.181 149.482ZM151.404 149.482C151.404 150.274 151.134 150.742 150.675 150.742C150.216 150.742 149.946 150.274 149.946 149.482C149.946 148.744 150.261 148.249 150.675 148.249C151.098 148.249 151.404 148.744 151.404 149.482Z" fill="black"/>
<path d="M20.9 82H21.8V79.399H23.105C23.96 79.399 24.374 79.696 24.5 80.497L24.761 82H25.742L25.436 80.416C25.274 79.624 24.95 79.237 24.122 79.093C24.977 78.931 25.625 78.355 25.625 77.41C25.625 76.438 24.878 75.7 23.591 75.7H20.9V82ZM21.8 78.589V76.528H23.456C24.203 76.528 24.68 76.87 24.68 77.554C24.68 78.238 24.203 78.589 23.456 78.589H21.8ZM26.8169 78.697H27.9689V77.527H26.8169V78.697ZM26.8169 82H27.9689V80.83H26.8169V82ZM31.4033 82H35.6243V81.172H33.8603H32.3843C33.5993 80.452 34.3823 79.885 34.8863 79.282C35.3273 78.751 35.5523 78.166 35.5523 77.527C35.5523 76.393 34.7693 75.574 33.4733 75.574C32.1683 75.574 31.3673 76.438 31.3493 77.653L32.2583 77.77C32.2583 76.897 32.7803 76.375 33.4643 76.375C34.0943 76.375 34.6073 76.834 34.6073 77.626C34.6073 78.418 34.0043 79.183 33.0953 79.876C32.6453 80.218 32.0783 80.596 31.4033 81.019V82ZM36.8841 81.937C37.1631 82.045 37.7031 82.126 38.1081 82.126C40.0791 82.126 41.0511 80.704 41.0511 78.625C41.0511 77.554 40.7721 76.726 40.2681 76.213C39.8451 75.79 39.3141 75.574 38.6661 75.574C37.3521 75.574 36.5421 76.546 36.5421 77.761C36.5421 78.841 37.3071 79.696 38.4951 79.696C39.2331 79.696 39.9081 79.291 40.1601 78.679C40.1601 79.687 39.9081 80.398 39.4131 80.803C39.0531 81.1 38.6031 81.244 38.0721 81.244C37.6581 81.244 37.2621 81.172 36.8841 81.019V81.937ZM39.9441 77.653C39.9441 78.418 39.4131 78.931 38.7111 78.931C38.0271 78.931 37.4781 78.418 37.4781 77.653C37.4781 76.87 38.0271 76.357 38.7111 76.357C39.4131 76.357 39.9441 76.87 39.9441 77.653ZM20.459 87.841C20.459 89.848 21.629 91.126 23.438 91.126C24.023 91.126 24.482 91 24.815 90.757C25.157 90.505 25.409 90.217 25.562 89.893V91H26.435V87.895H23.33V88.723H25.508C25.454 89.515 24.725 90.307 23.564 90.307C22.295 90.307 21.422 89.38 21.422 87.841C21.422 86.302 22.457 85.411 23.591 85.411C24.536 85.411 25.184 85.888 25.535 86.833L26.453 86.464C26.111 85.447 25.139 84.574 23.618 84.574C21.926 84.547 20.423 85.978 20.459 87.841ZM27.6255 87.697H28.7775V86.527H27.6255V87.697ZM27.6255 91H28.7775V89.83H27.6255V91ZM32.0769 89.2C32.1669 90.37 33.0219 91.126 34.3269 91.126C35.6319 91.126 36.4509 90.361 36.4509 89.389C36.4509 88.543 35.9469 87.922 35.1819 87.76C35.8749 87.535 36.3339 86.986 36.3339 86.239C36.3339 85.285 35.5689 84.574 34.3269 84.574C33.0939 84.574 32.3109 85.339 32.2389 86.32L33.1569 86.491C33.2109 85.807 33.6699 85.357 34.3269 85.357C34.9209 85.357 35.4249 85.762 35.4249 86.383C35.4249 87.013 34.9299 87.418 34.3089 87.418H33.8589V88.183H34.3089C35.0109 88.183 35.5239 88.588 35.5239 89.272C35.5239 89.929 35.0109 90.343 34.3269 90.343C33.5529 90.343 33.0579 89.821 33.0219 89.002L32.0769 89.2ZM40.7157 85.528C39.0687 86.851 38.1327 88.723 38.1327 91H39.1317C39.1407 88.786 39.6087 87.256 41.4717 85.681V84.7H37.1967V85.528H39.3387H40.7157ZM20.9 100H23.753C24.923 100 25.832 99.433 25.832 98.263C25.832 97.39 25.157 96.859 24.446 96.715C25.058 96.571 25.625 96.067 25.625 95.248C25.625 94.321 24.968 93.7 23.654 93.7H20.9V100ZM21.8 96.328V94.528H23.555C24.266 94.528 24.689 94.816 24.689 95.392C24.689 95.968 24.239 96.328 23.555 96.328H21.8ZM21.8 99.172V97.138H23.627C24.41 97.138 24.878 97.507 24.878 98.146C24.878 98.776 24.392 99.172 23.627 99.172H21.8ZM26.9223 96.697H28.0743V95.527H26.9223V96.697ZM26.9223 100H28.0743V98.83H26.9223V100ZM32.9218 100H33.8038V93.7H33.0838C32.6968 94.429 32.0128 94.906 31.2208 95.086V96.022C31.9048 95.923 32.5708 95.455 32.9218 94.87V95.752V100ZM35.1267 98.2C35.2167 99.37 36.0717 100.126 37.3767 100.126C38.6817 100.126 39.5007 99.361 39.5007 98.389C39.5007 97.543 38.9967 96.922 38.2317 96.76C38.9247 96.535 39.3837 95.986 39.3837 95.239C39.3837 94.285 38.6187 93.574 37.3767 93.574C36.1437 93.574 35.3607 94.339 35.2887 95.32L36.2067 95.491C36.2607 94.807 36.7197 94.357 37.3767 94.357C37.9707 94.357 38.4747 94.762 38.4747 95.383C38.4747 96.013 37.9797 96.418 37.3587 96.418H36.9087V97.183H37.3587C38.0607 97.183 38.5737 97.588 38.5737 98.272C38.5737 98.929 38.0607 99.343 37.3767 99.343C36.6027 99.343 36.1077 98.821 36.0717 98.002L35.1267 98.2ZM40.5615 100H44.7825V99.172H43.0185H41.5425C42.7575 98.452 43.5405 97.885 44.0445 97.282C44.4855 96.751 44.7105 96.166 44.7105 95.527C44.7105 94.393 43.9275 93.574 42.6315 93.574C41.3265 93.574 40.5255 94.438 40.5075 95.653L41.4165 95.77C41.4165 94.897 41.9385 94.375 42.6225 94.375C43.2525 94.375 43.7655 94.834 43.7655 95.626C43.7655 96.418 43.1625 97.183 42.2535 97.876C41.8035 98.218 41.2365 98.596 40.5615 99.019V100Z" fill="black"/>
<path d="M133.9 82H134.8V79.399H136.105C136.96 79.399 137.374 79.696 137.5 80.497L137.761 82H138.742L138.436 80.416C138.274 79.624 137.95 79.237 137.122 79.093C137.977 78.931 138.625 78.355 138.625 77.41C138.625 76.438 137.878 75.7 136.591 75.7H133.9V82ZM134.8 78.589V76.528H136.456C137.203 76.528 137.68 76.87 137.68 77.554C137.68 78.238 137.203 78.589 136.456 78.589H134.8ZM139.817 78.697H140.969V77.527H139.817V78.697ZM139.817 82H140.969V80.83H139.817V82ZM144.403 82H148.624V81.172H146.86H145.384C146.599 80.452 147.382 79.885 147.886 79.282C148.327 78.751 148.552 78.166 148.552 77.527C148.552 76.393 147.769 75.574 146.473 75.574C145.168 75.574 144.367 76.438 144.349 77.653L145.258 77.77C145.258 76.897 145.78 76.375 146.464 76.375C147.094 76.375 147.607 76.834 147.607 77.626C147.607 78.418 147.004 79.183 146.095 79.876C145.645 80.218 145.078 80.596 144.403 81.019V82ZM149.533 80.533C149.731 81.451 150.523 82.126 151.828 82.126C153.169 82.126 154.015 81.28 154.015 80.029C154.015 78.796 153.241 78.022 152.026 78.022C151.405 78.022 150.91 78.247 150.541 78.688L150.622 78.121C150.631 78.04 150.658 77.95 150.667 77.842L150.865 76.528H153.826V75.7H150.199L149.668 79.3L150.613 79.453C150.856 79.048 151.27 78.778 151.801 78.778C152.593 78.778 153.088 79.282 153.088 80.056C153.088 80.848 152.584 81.343 151.792 81.343C151.099 81.343 150.595 80.938 150.442 80.245L149.533 80.533ZM154.903 80.533C155.101 81.451 155.893 82.126 157.198 82.126C158.539 82.126 159.385 81.28 159.385 80.029C159.385 78.796 158.611 78.022 157.396 78.022C156.775 78.022 156.28 78.247 155.911 78.688L155.992 78.121C156.001 78.04 156.028 77.95 156.037 77.842L156.235 76.528H159.196V75.7H155.569L155.038 79.3L155.983 79.453C156.226 79.048 156.64 78.778 157.171 78.778C157.963 78.778 158.458 79.282 158.458 80.056C158.458 80.848 157.954 81.343 157.162 81.343C156.469 81.343 155.965 80.938 155.812 80.245L154.903 80.533ZM133.459 87.841C133.459 89.848 134.629 91.126 136.438 91.126C137.023 91.126 137.482 91 137.815 90.757C138.157 90.505 138.409 90.217 138.562 89.893V91H139.435V87.895H136.33V88.723H138.508C138.454 89.515 137.725 90.307 136.564 90.307C135.295 90.307 134.422 89.38 134.422 87.841C134.422 86.302 135.457 85.411 136.591 85.411C137.536 85.411 138.184 85.888 138.535 86.833L139.453 86.464C139.111 85.447 138.139 84.574 136.618 84.574C134.926 84.547 133.423 85.978 133.459 87.841ZM140.625 87.697H141.777V86.527H140.625V87.697ZM140.625 91H141.777V89.83H140.625V91ZM145.212 91H149.433V90.172H147.669H146.193C147.408 89.452 148.191 88.885 148.695 88.282C149.136 87.751 149.361 87.166 149.361 86.527C149.361 85.393 148.578 84.574 147.282 84.574C145.977 84.574 145.176 85.438 145.158 86.653L146.067 86.77C146.067 85.897 146.589 85.375 147.273 85.375C147.903 85.375 148.416 85.834 148.416 86.626C148.416 87.418 147.813 88.183 146.904 88.876C146.454 89.218 145.887 89.596 145.212 90.019V91ZM150.342 89.533C150.54 90.451 151.332 91.126 152.637 91.126C153.978 91.126 154.824 90.28 154.824 89.029C154.824 87.796 154.05 87.022 152.835 87.022C152.214 87.022 151.719 87.247 151.35 87.688L151.431 87.121C151.44 87.04 151.467 86.95 151.476 86.842L151.674 85.528H154.635V84.7H151.008L150.477 88.3L151.422 88.453C151.665 88.048 152.079 87.778 152.61 87.778C153.402 87.778 153.897 88.282 153.897 89.056C153.897 89.848 153.393 90.343 152.601 90.343C151.908 90.343 151.404 89.938 151.251 89.245L150.342 89.533ZM155.712 89.533C155.91 90.451 156.702 91.126 158.007 91.126C159.348 91.126 160.194 90.28 160.194 89.029C160.194 87.796 159.42 87.022 158.205 87.022C157.584 87.022 157.089 87.247 156.72 87.688L156.801 87.121C156.81 87.04 156.837 86.95 156.846 86.842L157.044 85.528H160.005V84.7H156.378L155.847 88.3L156.792 88.453C157.035 88.048 157.449 87.778 157.98 87.778C158.772 87.778 159.267 88.282 159.267 89.056C159.267 89.848 158.763 90.343 157.971 90.343C157.278 90.343 156.774 89.938 156.621 89.245L155.712 89.533ZM133.9 100H136.753C137.923 100 138.832 99.433 138.832 98.263C138.832 97.39 138.157 96.859 137.446 96.715C138.058 96.571 138.625 96.067 138.625 95.248C138.625 94.321 137.968 93.7 136.654 93.7H133.9V100ZM134.8 96.328V94.528H136.555C137.266 94.528 137.689 94.816 137.689 95.392C137.689 95.968 137.239 96.328 136.555 96.328H134.8ZM134.8 99.172V97.138H136.627C137.41 97.138 137.878 97.507 137.878 98.146C137.878 98.776 137.392 99.172 136.627 99.172H134.8ZM139.922 96.697H141.074V95.527H139.922V96.697ZM139.922 100H141.074V98.83H139.922V100ZM144.509 100H148.73V99.172H146.966H145.49C146.705 98.452 147.488 97.885 147.992 97.282C148.433 96.751 148.658 96.166 148.658 95.527C148.658 94.393 147.875 93.574 146.579 93.574C145.274 93.574 144.473 94.438 144.455 95.653L145.364 95.77C145.364 94.897 145.886 94.375 146.57 94.375C147.2 94.375 147.713 94.834 147.713 95.626C147.713 96.418 147.11 97.183 146.201 97.876C145.751 98.218 145.184 98.596 144.509 99.019V100ZM149.639 98.533C149.837 99.451 150.629 100.126 151.934 100.126C153.275 100.126 154.121 99.28 154.121 98.029C154.121 96.796 153.347 96.022 152.132 96.022C151.511 96.022 151.016 96.247 150.647 96.688L150.728 96.121C150.737 96.04 150.764 95.95 150.773 95.842L150.971 94.528H153.932V93.7H150.305L149.774 97.3L150.719 97.453C150.962 97.048 151.376 96.778 151.907 96.778C152.699 96.778 153.194 97.282 153.194 98.056C153.194 98.848 152.69 99.343 151.898 99.343C151.205 99.343 150.701 98.938 150.548 98.245L149.639 98.533ZM155.009 98.533C155.207 99.451 155.999 100.126 157.304 100.126C158.645 100.126 159.491 99.28 159.491 98.029C159.491 96.796 158.717 96.022 157.502 96.022C156.881 96.022 156.386 96.247 156.017 96.688L156.098 96.121C156.107 96.04 156.134 95.95 156.143 95.842L156.341 94.528H159.302V93.7H155.675L155.144 97.3L156.089 97.453C156.332 97.048 156.746 96.778 157.277 96.778C158.069 96.778 158.564 97.282 158.564 98.056C158.564 98.848 158.06 99.343 157.268 99.343C156.575 99.343 156.071 98.938 155.918 98.245L155.009 98.533Z" fill="black"/>
<g filter="url(#filter0_d_73_506)">
<rect x="4" width="66" height="66" fill="#FFA424"/>
</g>
<g filter="url(#filter1_d_73_506)">
<rect x="117" width="66" height="66" fill="#FF0000"/>
</g>
<defs>
<filter id="filter0_d_73_506" x="0" y="0" width="74" height="74" filterUnits="userSpaceOnUse" color-interpolation-filters="sRGB">
<feFlood flood-opacity="0" result="BackgroundImageFix"/>
<feColorMatrix in="SourceAlpha" type="matrix" values="0 0 0 0 0 0 0 0 0 0 0 0 0 0 0 0 0 0 127 0" result="hardAlpha"/>
<feOffset dy="4"/>
<feGaussianBlur stdDeviation="2"/>
<feComposite in2="hardAlpha" operator="out"/>
<feColorMatrix type="matrix" values="0 0 0 0 0 0 0 0 0 0 0 0 0 0 0 0 0 0 0.25 0"/>
<feBlend mode="normal" in2="BackgroundImageFix" result="effect1_dropShadow_73_506"/>
<feBlend mode="normal" in="SourceGraphic" in2="effect1_dropShadow_73_506" result="shape"/>
</filter>
<filter id="filter1_d_73_506" x="113" y="0" width="74" height="74" filterUnits="userSpaceOnUse" color-interpolation-filters="sRGB">
<feFlood flood-opacity="0" result="BackgroundImageFix"/>
<feColorMatrix in="SourceAlpha" type="matrix" values="0 0 0 0 0 0 0 0 0 0 0 0 0 0 0 0 0 0 127 0" result="hardAlpha"/>
<feOffset dy="4"/>
<feGaussianBlur stdDeviation="2"/>
<feComposite in2="hardAlpha" operator="out"/>
<feColorMatrix type="matrix" values="0 0 0 0 0 0 0 0 0 0 0 0 0 0 0 0 0 0 0.25 0"/>
<feBlend mode="normal" in2="BackgroundImageFix" result="effect1_dropShadow_73_506"/>
<feBlend mode="normal" in="SourceGraphic" in2="effect1_dropShadow_73_506" result="shape"/>
</filter>
</defs>
</svg>
