<svg width="192" height="149" viewBox="0 0 192 149" fill="none" xmlns="http://www.w3.org/2000/svg">
<path d="M23.9 82H24.8V79.399H26.105C26.96 79.399 27.374 79.696 27.5 80.497L27.761 82H28.742L28.436 80.416C28.274 79.624 27.95 79.237 27.122 79.093C27.977 78.931 28.625 78.355 28.625 77.41C28.625 76.438 27.878 75.7 26.591 75.7H23.9V82ZM24.8 78.589V76.528H26.456C27.203 76.528 27.68 76.87 27.68 77.554C27.68 78.238 27.203 78.589 26.456 78.589H24.8ZM29.8169 78.697H30.9689V77.527H29.8169V78.697ZM29.8169 82H30.9689V80.83H29.8169V82ZM34.4033 82H38.6243V81.172H36.8603H35.3843C36.5993 80.452 37.3823 79.885 37.8863 79.282C38.3273 78.751 38.5523 78.166 38.5523 77.527C38.5523 76.393 37.7693 75.574 36.4733 75.574C35.1683 75.574 34.3673 76.438 34.3493 77.653L35.2583 77.77C35.2583 76.897 35.7803 76.375 36.4643 76.375C37.0943 76.375 37.6073 76.834 37.6073 77.626C37.6073 78.418 37.0043 79.183 36.0953 79.876C35.6453 80.218 35.0783 80.596 34.4033 81.019V82ZM39.8841 81.937C40.1631 82.045 40.7031 82.126 41.1081 82.126C43.0791 82.126 44.0511 80.704 44.0511 78.625C44.0511 77.554 43.7721 76.726 43.2681 76.213C42.8451 75.79 42.3141 75.574 41.6661 75.574C40.3521 75.574 39.5421 76.546 39.5421 77.761C39.5421 78.841 40.3071 79.696 41.4951 79.696C42.2331 79.696 42.9081 79.291 43.1601 78.679C43.1601 79.687 42.9081 80.398 42.4131 80.803C42.0531 81.1 41.6031 81.244 41.0721 81.244C40.6581 81.244 40.2621 81.172 39.8841 81.019V81.937ZM42.9441 77.653C42.9441 78.418 42.4131 78.931 41.7111 78.931C41.0271 78.931 40.4781 78.418 40.4781 77.653C40.4781 76.87 41.0271 76.357 41.7111 76.357C42.4131 76.357 42.9441 76.87 42.9441 77.653ZM23.459 87.841C23.459 89.848 24.629 91.126 26.438 91.126C27.023 91.126 27.482 91 27.815 90.757C28.157 90.505 28.409 90.217 28.562 89.893V91H29.435V87.895H26.33V88.723H28.508C28.454 89.515 27.725 90.307 26.564 90.307C25.295 90.307 24.422 89.38 24.422 87.841C24.422 86.302 25.457 85.411 26.591 85.411C27.536 85.411 28.184 85.888 28.535 86.833L29.453 86.464C29.111 85.447 28.139 84.574 26.618 84.574C24.926 84.547 23.423 85.978 23.459 87.841ZM30.6255 87.697H31.7775V86.527H30.6255V87.697ZM30.6255 91H31.7775V89.83H30.6255V91ZM35.0769 89.2C35.1669 90.37 36.0219 91.126 37.3269 91.126C38.6319 91.126 39.4509 90.361 39.4509 89.389C39.4509 88.543 38.9469 87.922 38.1819 87.76C38.8749 87.535 39.3339 86.986 39.3339 86.239C39.3339 85.285 38.5689 84.574 37.3269 84.574C36.0939 84.574 35.3109 85.339 35.2389 86.32L36.1569 86.491C36.2109 85.807 36.6699 85.357 37.3269 85.357C37.9209 85.357 38.4249 85.762 38.4249 86.383C38.4249 87.013 37.9299 87.418 37.3089 87.418H36.8589V88.183H37.3089C38.0109 88.183 38.5239 88.588 38.5239 89.272C38.5239 89.929 38.0109 90.343 37.3269 90.343C36.5529 90.343 36.0579 89.821 36.0219 89.002L35.0769 89.2ZM43.7157 85.528C42.0687 86.851 41.1327 88.723 41.1327 91H42.1317C42.1407 88.786 42.6087 87.256 44.4717 85.681V84.7H40.1967V85.528H42.3387H43.7157ZM23.9 100H26.753C27.923 100 28.832 99.433 28.832 98.263C28.832 97.39 28.157 96.859 27.446 96.715C28.058 96.571 28.625 96.067 28.625 95.248C28.625 94.321 27.968 93.7 26.654 93.7H23.9V100ZM24.8 96.328V94.528H26.555C27.266 94.528 27.689 94.816 27.689 95.392C27.689 95.968 27.239 96.328 26.555 96.328H24.8ZM24.8 99.172V97.138H26.627C27.41 97.138 27.878 97.507 27.878 98.146C27.878 98.776 27.392 99.172 26.627 99.172H24.8ZM29.9223 96.697H31.0743V95.527H29.9223V96.697ZM29.9223 100H31.0743V98.83H29.9223V100ZM35.9218 100H36.8038V93.7H36.0838C35.6968 94.429 35.0128 94.906 34.2208 95.086V96.022C34.9048 95.923 35.5708 95.455 35.9218 94.87V95.752V100ZM38.1267 98.2C38.2167 99.37 39.0717 100.126 40.3767 100.126C41.6817 100.126 42.5007 99.361 42.5007 98.389C42.5007 97.543 41.9967 96.922 41.2317 96.76C41.9247 96.535 42.3837 95.986 42.3837 95.239C42.3837 94.285 41.6187 93.574 40.3767 93.574C39.1437 93.574 38.3607 94.339 38.2887 95.32L39.2067 95.491C39.2607 94.807 39.7197 94.357 40.3767 94.357C40.9707 94.357 41.4747 94.762 41.4747 95.383C41.4747 96.013 40.9797 96.418 40.3587 96.418H39.9087V97.183H40.3587C41.0607 97.183 41.5737 97.588 41.5737 98.272C41.5737 98.929 41.0607 99.343 40.3767 99.343C39.6027 99.343 39.1077 98.821 39.0717 98.002L38.1267 98.2ZM43.5615 100H47.7825V99.172H46.0185H44.5425C45.7575 98.452 46.5405 97.885 47.0445 97.282C47.4855 96.751 47.7105 96.166 47.7105 95.527C47.7105 94.393 46.9275 93.574 45.6315 93.574C44.3265 93.574 43.5255 94.438 43.5075 95.653L44.4165 95.77C44.4165 94.897 44.9385 94.375 45.6225 94.375C46.2525 94.375 46.7655 94.834 46.7655 95.626C46.7655 96.418 46.1625 97.183 45.2535 97.876C44.8035 98.218 44.2365 98.596 43.5615 99.019V100Z" fill="black"/>
<path d="M23.45 115.796C23.423 117.65 24.62 119.153 26.537 119.126C28.04 119.126 29.003 118.289 29.309 117.209L28.436 116.876C28.148 117.74 27.626 118.298 26.537 118.298C25.268 118.298 24.413 117.299 24.413 115.787C24.413 114.302 25.268 113.393 26.537 113.393C27.077 113.393 27.491 113.528 27.779 113.807C28.076 114.077 28.283 114.392 28.4 114.761L29.3 114.437C29.03 113.492 28.076 112.574 26.537 112.574C24.746 112.538 23.423 113.987 23.45 115.796ZM30.23 115.697H31.382V114.527H30.23V115.697ZM30.23 119H31.382V117.83H30.23V119ZM36.2294 119H37.1114V112.7H36.3914C36.0044 113.429 35.3204 113.906 34.5284 114.086V115.022C35.2124 114.923 35.8784 114.455 36.2294 113.87V114.752V119ZM38.5423 115.823C38.5423 117.956 39.5503 119.126 41.0713 119.126C42.5653 119.126 43.5823 117.956 43.5823 115.823C43.5823 113.726 42.4663 112.574 41.0713 112.574C39.6583 112.574 38.5423 113.726 38.5423 115.823ZM42.6373 115.823C42.6373 117.443 42.0433 118.325 41.0713 118.325C40.0903 118.325 39.4873 117.443 39.4873 115.823C39.4873 114.329 40.1083 113.375 41.0713 113.375C42.0163 113.375 42.6373 114.329 42.6373 115.823ZM44.6068 115.823C44.6068 117.956 45.6148 119.126 47.1358 119.126C48.6298 119.126 49.6468 117.956 49.6468 115.823C49.6468 113.726 48.5308 112.574 47.1358 112.574C45.7228 112.574 44.6068 113.726 44.6068 115.823ZM48.7018 115.823C48.7018 117.443 48.1078 118.325 47.1358 118.325C46.1548 118.325 45.5518 117.443 45.5518 115.823C45.5518 114.329 46.1728 113.375 47.1358 113.375C48.0808 113.375 48.7018 114.329 48.7018 115.823ZM51.4452 119H52.3182L56.8002 112.7H55.9362L51.4452 119ZM54.7932 117.164C54.7932 118.325 55.3602 119.045 56.2872 119.045C57.2232 119.045 57.7722 118.325 57.7722 117.164C57.7722 116.048 57.1962 115.31 56.2872 115.31C55.3962 115.31 54.7932 116.048 54.7932 117.164ZM57.0162 117.164C57.0162 117.956 56.7462 118.424 56.2872 118.424C55.8282 118.424 55.5582 117.956 55.5582 117.164C55.5582 116.426 55.8732 115.931 56.2872 115.931C56.7102 115.931 57.0162 116.426 57.0162 117.164ZM50.4822 114.482C50.4822 115.643 51.0492 116.363 51.9762 116.363C52.9122 116.363 53.4612 115.643 53.4612 114.482C53.4612 113.366 52.8852 112.628 51.9762 112.628C51.0852 112.628 50.4822 113.366 50.4822 114.482ZM52.7052 114.482C52.7052 115.274 52.4352 115.742 51.9762 115.742C51.5172 115.742 51.2472 115.274 51.2472 114.482C51.2472 113.744 51.5622 113.249 51.9762 113.249C52.3992 113.249 52.7052 113.744 52.7052 114.482ZM23.9 128H24.8V124.724V122.618L26.951 128H27.59L29.723 122.618V124.724V128H30.614V121.7H29.183L27.77 125.309L27.293 126.497L26.816 125.309L25.367 121.7H23.9V128ZM32.1196 124.697H33.2716V123.527H32.1196V124.697ZM32.1196 128H33.2716V126.83H32.1196V128ZM36.931 127.937C37.21 128.045 37.75 128.126 38.155 128.126C40.126 128.126 41.098 126.704 41.098 124.625C41.098 123.554 40.819 122.726 40.315 122.213C39.892 121.79 39.361 121.574 38.713 121.574C37.399 121.574 36.589 122.546 36.589 123.761C36.589 124.841 37.354 125.696 38.542 125.696C39.28 125.696 39.955 125.291 40.207 124.679C40.207 125.687 39.955 126.398 39.46 126.803C39.1 127.1 38.65 127.244 38.119 127.244C37.705 127.244 37.309 127.172 36.931 127.019V127.937ZM39.991 123.653C39.991 124.418 39.46 124.931 38.758 124.931C38.074 124.931 37.525 124.418 37.525 123.653C37.525 122.87 38.074 122.357 38.758 122.357C39.46 122.357 39.991 122.87 39.991 123.653ZM42.0027 126.2C42.0927 127.37 42.9477 128.126 44.2527 128.126C45.5577 128.126 46.3767 127.361 46.3767 126.389C46.3767 125.543 45.8727 124.922 45.1077 124.76C45.8007 124.535 46.2597 123.986 46.2597 123.239C46.2597 122.285 45.4947 121.574 44.2527 121.574C43.0197 121.574 42.2367 122.339 42.1647 123.32L43.0827 123.491C43.1367 122.807 43.5957 122.357 44.2527 122.357C44.8467 122.357 45.3507 122.762 45.3507 123.383C45.3507 124.013 44.8557 124.418 44.2347 124.418H43.7847V125.183H44.2347C44.9367 125.183 45.4497 125.588 45.4497 126.272C45.4497 126.929 44.9367 127.343 44.2527 127.343C43.4787 127.343 42.9837 126.821 42.9477 126.002L42.0027 126.2ZM48.1845 128H49.0575L53.5395 121.7H52.6755L48.1845 128ZM51.5325 126.164C51.5325 127.325 52.0995 128.045 53.0265 128.045C53.9625 128.045 54.5115 127.325 54.5115 126.164C54.5115 125.048 53.9355 124.31 53.0265 124.31C52.1355 124.31 51.5325 125.048 51.5325 126.164ZM53.7555 126.164C53.7555 126.956 53.4855 127.424 53.0265 127.424C52.5675 127.424 52.2975 126.956 52.2975 126.164C52.2975 125.426 52.6125 124.931 53.0265 124.931C53.4495 124.931 53.7555 125.426 53.7555 126.164ZM47.2215 123.482C47.2215 124.643 47.7885 125.363 48.7155 125.363C49.6515 125.363 50.2005 124.643 50.2005 123.482C50.2005 122.366 49.6245 121.628 48.7155 121.628C47.8245 121.628 47.2215 122.366 47.2215 123.482ZM49.4445 123.482C49.4445 124.274 49.1745 124.742 48.7155 124.742C48.2565 124.742 47.9865 124.274 47.9865 123.482C47.9865 122.744 48.3015 122.249 48.7155 122.249C49.1385 122.249 49.4445 122.744 49.4445 123.482ZM25.475 137H26.375V134.327L28.589 130.7H27.518L26.456 132.581L25.934 133.481L25.403 132.581L24.269 130.7H23.189L25.475 134.363V137ZM28.7358 133.697H29.8878V132.527H28.7358V133.697ZM28.7358 137H29.8878V135.83H28.7358V137ZM34.7352 137H35.6172V130.7H34.8972C34.5102 131.429 33.8262 131.906 33.0342 132.086V133.022C33.7182 132.923 34.3842 132.455 34.7352 131.87V132.752V137ZM37.0392 135.308C37.0392 136.343 37.8132 137.126 39.2622 137.126C40.7112 137.126 41.4762 136.343 41.4762 135.308C41.4762 134.507 40.9542 133.904 40.2522 133.742C40.8912 133.526 41.3142 132.995 41.3142 132.266C41.3142 131.267 40.4772 130.574 39.2622 130.574C38.0382 130.574 37.2102 131.267 37.2102 132.266C37.2102 132.995 37.6512 133.526 38.2722 133.742C37.5972 133.886 37.0392 134.507 37.0392 135.308ZM40.4142 132.356C40.4142 132.995 39.9102 133.391 39.2622 133.391C38.6052 133.391 38.1102 132.995 38.1102 132.356C38.1102 131.753 38.5962 131.348 39.2622 131.348C39.9282 131.348 40.4142 131.753 40.4142 132.356ZM40.5402 135.227C40.5402 135.902 40.0452 136.343 39.2622 136.343C38.4792 136.343 37.9752 135.902 37.9752 135.227C37.9752 134.561 38.4792 134.093 39.2622 134.093C40.0362 134.093 40.5402 134.561 40.5402 135.227ZM43.2714 137H44.1444L48.6264 130.7H47.7624L43.2714 137ZM46.6194 135.164C46.6194 136.325 47.1864 137.045 48.1134 137.045C49.0494 137.045 49.5984 136.325 49.5984 135.164C49.5984 134.048 49.0224 133.31 48.1134 133.31C47.2224 133.31 46.6194 134.048 46.6194 135.164ZM48.8424 135.164C48.8424 135.956 48.5724 136.424 48.1134 136.424C47.6544 136.424 47.3844 135.956 47.3844 135.164C47.3844 134.426 47.6994 133.931 48.1134 133.931C48.5364 133.931 48.8424 134.426 48.8424 135.164ZM42.3084 132.482C42.3084 133.643 42.8754 134.363 43.8024 134.363C44.7384 134.363 45.2874 133.643 45.2874 132.482C45.2874 131.366 44.7114 130.628 43.8024 130.628C42.9114 130.628 42.3084 131.366 42.3084 132.482ZM44.5314 132.482C44.5314 133.274 44.2614 133.742 43.8024 133.742C43.3434 133.742 43.0734 133.274 43.0734 132.482C43.0734 131.744 43.3884 131.249 43.8024 131.249C44.2254 131.249 44.5314 131.744 44.5314 132.482ZM28.058 146H29.237L26.267 142.292L28.787 139.7H27.572L24.8 142.67V141.194V139.7H23.9V146H24.8V143.804L25.637 142.94L28.058 146ZM29.7466 142.697H30.8986V141.527H29.7466V142.697ZM29.7466 146H30.8986V144.83H29.7466V146ZM34.198 144.2C34.288 145.37 35.143 146.126 36.448 146.126C37.753 146.126 38.572 145.361 38.572 144.389C38.572 143.543 38.068 142.922 37.303 142.76C37.996 142.535 38.455 141.986 38.455 141.239C38.455 140.285 37.69 139.574 36.448 139.574C35.215 139.574 34.432 140.339 34.36 141.32L35.278 141.491C35.332 140.807 35.791 140.357 36.448 140.357C37.042 140.357 37.546 140.762 37.546 141.383C37.546 142.013 37.051 142.418 36.43 142.418H35.98V143.183H36.43C37.132 143.183 37.645 143.588 37.645 144.272C37.645 144.929 37.132 145.343 36.448 145.343C35.674 145.343 35.179 144.821 35.143 144.002L34.198 144.2ZM40.3798 146H41.2528L45.7348 139.7H44.8708L40.3798 146ZM43.7278 144.164C43.7278 145.325 44.2948 146.045 45.2218 146.045C46.1578 146.045 46.7068 145.325 46.7068 144.164C46.7068 143.048 46.1308 142.31 45.2218 142.31C44.3308 142.31 43.7278 143.048 43.7278 144.164ZM45.9508 144.164C45.9508 144.956 45.6808 145.424 45.2218 145.424C44.7628 145.424 44.4928 144.956 44.4928 144.164C44.4928 143.426 44.8078 142.931 45.2218 142.931C45.6448 142.931 45.9508 143.426 45.9508 144.164ZM39.4168 141.482C39.4168 142.643 39.9838 143.363 40.9108 143.363C41.8468 143.363 42.3958 142.643 42.3958 141.482C42.3958 140.366 41.8198 139.628 40.9108 139.628C40.0198 139.628 39.4168 140.366 39.4168 141.482ZM41.6398 141.482C41.6398 142.274 41.3698 142.742 40.9108 142.742C40.4518 142.742 40.1818 142.274 40.1818 141.482C40.1818 140.744 40.4968 140.249 40.9108 140.249C41.3338 140.249 41.6398 140.744 41.6398 141.482Z" fill="black"/>
<path d="M140.45 115.796C140.423 117.65 141.62 119.153 143.537 119.126C145.04 119.126 146.003 118.289 146.309 117.209L145.436 116.876C145.148 117.74 144.626 118.298 143.537 118.298C142.268 118.298 141.413 117.299 141.413 115.787C141.413 114.302 142.268 113.393 143.537 113.393C144.077 113.393 144.491 113.528 144.779 113.807C145.076 114.077 145.283 114.392 145.4 114.761L146.3 114.437C146.03 113.492 145.076 112.574 143.537 112.574C141.746 112.538 140.423 113.987 140.45 115.796ZM147.23 115.697H148.382V114.527H147.23V115.697ZM147.23 119H148.382V117.83H147.23V119ZM153.229 119H154.111V112.7H153.391C153.004 113.429 152.32 113.906 151.528 114.086V115.022C152.212 114.923 152.878 114.455 153.229 113.87V114.752V119ZM155.542 115.823C155.542 117.956 156.55 119.126 158.071 119.126C159.565 119.126 160.582 117.956 160.582 115.823C160.582 113.726 159.466 112.574 158.071 112.574C156.658 112.574 155.542 113.726 155.542 115.823ZM159.637 115.823C159.637 117.443 159.043 118.325 158.071 118.325C157.09 118.325 156.487 117.443 156.487 115.823C156.487 114.329 157.108 113.375 158.071 113.375C159.016 113.375 159.637 114.329 159.637 115.823ZM161.607 115.823C161.607 117.956 162.615 119.126 164.136 119.126C165.63 119.126 166.647 117.956 166.647 115.823C166.647 113.726 165.531 112.574 164.136 112.574C162.723 112.574 161.607 113.726 161.607 115.823ZM165.702 115.823C165.702 117.443 165.108 118.325 164.136 118.325C163.155 118.325 162.552 117.443 162.552 115.823C162.552 114.329 163.173 113.375 164.136 113.375C165.081 113.375 165.702 114.329 165.702 115.823ZM168.445 119H169.318L173.8 112.7H172.936L168.445 119ZM171.793 117.164C171.793 118.325 172.36 119.045 173.287 119.045C174.223 119.045 174.772 118.325 174.772 117.164C174.772 116.048 174.196 115.31 173.287 115.31C172.396 115.31 171.793 116.048 171.793 117.164ZM174.016 117.164C174.016 117.956 173.746 118.424 173.287 118.424C172.828 118.424 172.558 117.956 172.558 117.164C172.558 116.426 172.873 115.931 173.287 115.931C173.71 115.931 174.016 116.426 174.016 117.164ZM167.482 114.482C167.482 115.643 168.049 116.363 168.976 116.363C169.912 116.363 170.461 115.643 170.461 114.482C170.461 113.366 169.885 112.628 168.976 112.628C168.085 112.628 167.482 113.366 167.482 114.482ZM169.705 114.482C169.705 115.274 169.435 115.742 168.976 115.742C168.517 115.742 168.247 115.274 168.247 114.482C168.247 113.744 168.562 113.249 168.976 113.249C169.399 113.249 169.705 113.744 169.705 114.482ZM140.9 128H141.8V124.724V122.618L143.951 128H144.59L146.723 122.618V124.724V128H147.614V121.7H146.183L144.77 125.309L144.293 126.497L143.816 125.309L142.367 121.7H140.9V128ZM149.12 124.697H150.272V123.527H149.12V124.697ZM149.12 128H150.272V126.83H149.12V128ZM153.931 127.937C154.21 128.045 154.75 128.126 155.155 128.126C157.126 128.126 158.098 126.704 158.098 124.625C158.098 123.554 157.819 122.726 157.315 122.213C156.892 121.79 156.361 121.574 155.713 121.574C154.399 121.574 153.589 122.546 153.589 123.761C153.589 124.841 154.354 125.696 155.542 125.696C156.28 125.696 156.955 125.291 157.207 124.679C157.207 125.687 156.955 126.398 156.46 126.803C156.1 127.1 155.65 127.244 155.119 127.244C154.705 127.244 154.309 127.172 153.931 127.019V127.937ZM156.991 123.653C156.991 124.418 156.46 124.931 155.758 124.931C155.074 124.931 154.525 124.418 154.525 123.653C154.525 122.87 155.074 122.357 155.758 122.357C156.46 122.357 156.991 122.87 156.991 123.653ZM159.003 126.2C159.093 127.37 159.948 128.126 161.253 128.126C162.558 128.126 163.377 127.361 163.377 126.389C163.377 125.543 162.873 124.922 162.108 124.76C162.801 124.535 163.26 123.986 163.26 123.239C163.26 122.285 162.495 121.574 161.253 121.574C160.02 121.574 159.237 122.339 159.165 123.32L160.083 123.491C160.137 122.807 160.596 122.357 161.253 122.357C161.847 122.357 162.351 122.762 162.351 123.383C162.351 124.013 161.856 124.418 161.235 124.418H160.785V125.183H161.235C161.937 125.183 162.45 125.588 162.45 126.272C162.45 126.929 161.937 127.343 161.253 127.343C160.479 127.343 159.984 126.821 159.948 126.002L159.003 126.2ZM165.184 128H166.057L170.539 121.7H169.675L165.184 128ZM168.532 126.164C168.532 127.325 169.099 128.045 170.026 128.045C170.962 128.045 171.511 127.325 171.511 126.164C171.511 125.048 170.935 124.31 170.026 124.31C169.135 124.31 168.532 125.048 168.532 126.164ZM170.755 126.164C170.755 126.956 170.485 127.424 170.026 127.424C169.567 127.424 169.297 126.956 169.297 126.164C169.297 125.426 169.612 124.931 170.026 124.931C170.449 124.931 170.755 125.426 170.755 126.164ZM164.221 123.482C164.221 124.643 164.788 125.363 165.715 125.363C166.651 125.363 167.2 124.643 167.2 123.482C167.2 122.366 166.624 121.628 165.715 121.628C164.824 121.628 164.221 122.366 164.221 123.482ZM166.444 123.482C166.444 124.274 166.174 124.742 165.715 124.742C165.256 124.742 164.986 124.274 164.986 123.482C164.986 122.744 165.301 122.249 165.715 122.249C166.138 122.249 166.444 122.744 166.444 123.482ZM142.475 137H143.375V134.327L145.589 130.7H144.518L143.456 132.581L142.934 133.481L142.403 132.581L141.269 130.7H140.189L142.475 134.363V137ZM145.736 133.697H146.888V132.527H145.736V133.697ZM145.736 137H146.888V135.83H145.736V137ZM151.735 137H152.617V130.7H151.897C151.51 131.429 150.826 131.906 150.034 132.086V133.022C150.718 132.923 151.384 132.455 151.735 131.87V132.752V137ZM154.039 135.308C154.039 136.343 154.813 137.126 156.262 137.126C157.711 137.126 158.476 136.343 158.476 135.308C158.476 134.507 157.954 133.904 157.252 133.742C157.891 133.526 158.314 132.995 158.314 132.266C158.314 131.267 157.477 130.574 156.262 130.574C155.038 130.574 154.21 131.267 154.21 132.266C154.21 132.995 154.651 133.526 155.272 133.742C154.597 133.886 154.039 134.507 154.039 135.308ZM157.414 132.356C157.414 132.995 156.91 133.391 156.262 133.391C155.605 133.391 155.11 132.995 155.11 132.356C155.11 131.753 155.596 131.348 156.262 131.348C156.928 131.348 157.414 131.753 157.414 132.356ZM157.54 135.227C157.54 135.902 157.045 136.343 156.262 136.343C155.479 136.343 154.975 135.902 154.975 135.227C154.975 134.561 155.479 134.093 156.262 134.093C157.036 134.093 157.54 134.561 157.54 135.227ZM160.271 137H161.144L165.626 130.7H164.762L160.271 137ZM163.619 135.164C163.619 136.325 164.186 137.045 165.113 137.045C166.049 137.045 166.598 136.325 166.598 135.164C166.598 134.048 166.022 133.31 165.113 133.31C164.222 133.31 163.619 134.048 163.619 135.164ZM165.842 135.164C165.842 135.956 165.572 136.424 165.113 136.424C164.654 136.424 164.384 135.956 164.384 135.164C164.384 134.426 164.699 133.931 165.113 133.931C165.536 133.931 165.842 134.426 165.842 135.164ZM159.308 132.482C159.308 133.643 159.875 134.363 160.802 134.363C161.738 134.363 162.287 133.643 162.287 132.482C162.287 131.366 161.711 130.628 160.802 130.628C159.911 130.628 159.308 131.366 159.308 132.482ZM161.531 132.482C161.531 133.274 161.261 133.742 160.802 133.742C160.343 133.742 160.073 133.274 160.073 132.482C160.073 131.744 160.388 131.249 160.802 131.249C161.225 131.249 161.531 131.744 161.531 132.482ZM145.058 146H146.237L143.267 142.292L145.787 139.7H144.572L141.8 142.67V141.194V139.7H140.9V146H141.8V143.804L142.637 142.94L145.058 146ZM146.747 142.697H147.899V141.527H146.747V142.697ZM146.747 146H147.899V144.83H146.747V146ZM151.198 144.2C151.288 145.37 152.143 146.126 153.448 146.126C154.753 146.126 155.572 145.361 155.572 144.389C155.572 143.543 155.068 142.922 154.303 142.76C154.996 142.535 155.455 141.986 155.455 141.239C155.455 140.285 154.69 139.574 153.448 139.574C152.215 139.574 151.432 140.339 151.36 141.32L152.278 141.491C152.332 140.807 152.791 140.357 153.448 140.357C154.042 140.357 154.546 140.762 154.546 141.383C154.546 142.013 154.051 142.418 153.43 142.418H152.98V143.183H153.43C154.132 143.183 154.645 143.588 154.645 144.272C154.645 144.929 154.132 145.343 153.448 145.343C152.674 145.343 152.179 144.821 152.143 144.002L151.198 144.2ZM157.38 146H158.253L162.735 139.7H161.871L157.38 146ZM160.728 144.164C160.728 145.325 161.295 146.045 162.222 146.045C163.158 146.045 163.707 145.325 163.707 144.164C163.707 143.048 163.131 142.31 162.222 142.31C161.331 142.31 160.728 143.048 160.728 144.164ZM162.951 144.164C162.951 144.956 162.681 145.424 162.222 145.424C161.763 145.424 161.493 144.956 161.493 144.164C161.493 143.426 161.808 142.931 162.222 142.931C162.645 142.931 162.951 143.426 162.951 144.164ZM156.417 141.482C156.417 142.643 156.984 143.363 157.911 143.363C158.847 143.363 159.396 142.643 159.396 141.482C159.396 140.366 158.82 139.628 157.911 139.628C157.02 139.628 156.417 140.366 156.417 141.482ZM158.64 141.482C158.64 142.274 158.37 142.742 157.911 142.742C157.452 142.742 157.182 142.274 157.182 141.482C157.182 140.744 157.497 140.249 157.911 140.249C158.334 140.249 158.64 140.744 158.64 141.482Z" fill="black"/>
<path d="M141.9 82H142.8V79.399H144.105C144.96 79.399 145.374 79.696 145.5 80.497L145.761 82H146.742L146.436 80.416C146.274 79.624 145.95 79.237 145.122 79.093C145.977 78.931 146.625 78.355 146.625 77.41C146.625 76.438 145.878 75.7 144.591 75.7H141.9V82ZM142.8 78.589V76.528H144.456C145.203 76.528 145.68 76.87 145.68 77.554C145.68 78.238 145.203 78.589 144.456 78.589H142.8ZM147.817 78.697H148.969V77.527H147.817V78.697ZM147.817 82H148.969V80.83H147.817V82ZM152.403 82H156.624V81.172H154.86H153.384C154.599 80.452 155.382 79.885 155.886 79.282C156.327 78.751 156.552 78.166 156.552 77.527C156.552 76.393 155.769 75.574 154.473 75.574C153.168 75.574 152.367 76.438 152.349 77.653L153.258 77.77C153.258 76.897 153.78 76.375 154.464 76.375C155.094 76.375 155.607 76.834 155.607 77.626C155.607 78.418 155.004 79.183 154.095 79.876C153.645 80.218 153.078 80.596 152.403 81.019V82ZM157.884 81.937C158.163 82.045 158.703 82.126 159.108 82.126C161.079 82.126 162.051 80.704 162.051 78.625C162.051 77.554 161.772 76.726 161.268 76.213C160.845 75.79 160.314 75.574 159.666 75.574C158.352 75.574 157.542 76.546 157.542 77.761C157.542 78.841 158.307 79.696 159.495 79.696C160.233 79.696 160.908 79.291 161.16 78.679C161.16 79.687 160.908 80.398 160.413 80.803C160.053 81.1 159.603 81.244 159.072 81.244C158.658 81.244 158.262 81.172 157.884 81.019V81.937ZM160.944 77.653C160.944 78.418 160.413 78.931 159.711 78.931C159.027 78.931 158.478 78.418 158.478 77.653C158.478 76.87 159.027 76.357 159.711 76.357C160.413 76.357 160.944 76.87 160.944 77.653ZM141.459 87.841C141.459 89.848 142.629 91.126 144.438 91.126C145.023 91.126 145.482 91 145.815 90.757C146.157 90.505 146.409 90.217 146.562 89.893V91H147.435V87.895H144.33V88.723H146.508C146.454 89.515 145.725 90.307 144.564 90.307C143.295 90.307 142.422 89.38 142.422 87.841C142.422 86.302 143.457 85.411 144.591 85.411C145.536 85.411 146.184 85.888 146.535 86.833L147.453 86.464C147.111 85.447 146.139 84.574 144.618 84.574C142.926 84.547 141.423 85.978 141.459 87.841ZM148.625 87.697H149.777V86.527H148.625V87.697ZM148.625 91H149.777V89.83H148.625V91ZM153.077 89.2C153.167 90.37 154.022 91.126 155.327 91.126C156.632 91.126 157.451 90.361 157.451 89.389C157.451 88.543 156.947 87.922 156.182 87.76C156.875 87.535 157.334 86.986 157.334 86.239C157.334 85.285 156.569 84.574 155.327 84.574C154.094 84.574 153.311 85.339 153.239 86.32L154.157 86.491C154.211 85.807 154.67 85.357 155.327 85.357C155.921 85.357 156.425 85.762 156.425 86.383C156.425 87.013 155.93 87.418 155.309 87.418H154.859V88.183H155.309C156.011 88.183 156.524 88.588 156.524 89.272C156.524 89.929 156.011 90.343 155.327 90.343C154.553 90.343 154.058 89.821 154.022 89.002L153.077 89.2ZM161.716 85.528C160.069 86.851 159.133 88.723 159.133 91H160.132C160.141 88.786 160.609 87.256 162.472 85.681V84.7H158.197V85.528H160.339H161.716ZM141.9 100H144.753C145.923 100 146.832 99.433 146.832 98.263C146.832 97.39 146.157 96.859 145.446 96.715C146.058 96.571 146.625 96.067 146.625 95.248C146.625 94.321 145.968 93.7 144.654 93.7H141.9V100ZM142.8 96.328V94.528H144.555C145.266 94.528 145.689 94.816 145.689 95.392C145.689 95.968 145.239 96.328 144.555 96.328H142.8ZM142.8 99.172V97.138H144.627C145.41 97.138 145.878 97.507 145.878 98.146C145.878 98.776 145.392 99.172 144.627 99.172H142.8ZM147.922 96.697H149.074V95.527H147.922V96.697ZM147.922 100H149.074V98.83H147.922V100ZM153.922 100H154.804V93.7H154.084C153.697 94.429 153.013 94.906 152.221 95.086V96.022C152.905 95.923 153.571 95.455 153.922 94.87V95.752V100ZM156.127 98.2C156.217 99.37 157.072 100.126 158.377 100.126C159.682 100.126 160.501 99.361 160.501 98.389C160.501 97.543 159.997 96.922 159.232 96.76C159.925 96.535 160.384 95.986 160.384 95.239C160.384 94.285 159.619 93.574 158.377 93.574C157.144 93.574 156.361 94.339 156.289 95.32L157.207 95.491C157.261 94.807 157.72 94.357 158.377 94.357C158.971 94.357 159.475 94.762 159.475 95.383C159.475 96.013 158.98 96.418 158.359 96.418H157.909V97.183H158.359C159.061 97.183 159.574 97.588 159.574 98.272C159.574 98.929 159.061 99.343 158.377 99.343C157.603 99.343 157.108 98.821 157.072 98.002L156.127 98.2ZM161.561 100H165.782V99.172H164.018H162.542C163.757 98.452 164.54 97.885 165.044 97.282C165.485 96.751 165.71 96.166 165.71 95.527C165.71 94.393 164.927 93.574 163.631 93.574C162.326 93.574 161.525 94.438 161.507 95.653L162.416 95.77C162.416 94.897 162.938 94.375 163.622 94.375C164.252 94.375 164.765 94.834 164.765 95.626C164.765 96.418 164.162 97.183 163.253 97.876C162.803 98.218 162.236 98.596 161.561 99.019V100Z" fill="black"/>
<g filter="url(#filter0_d_73_504)">
<rect x="4" width="66" height="66" fill="#1D2584"/>
</g>
<g filter="url(#filter1_d_73_504)">
<rect x="122" width="66" height="66" fill="#2063F3"/>
</g>
<path d="M106.265 35.2652C106.412 35.1187 106.412 34.8813 106.265 34.7348L103.879 32.3483C103.732 32.2019 103.495 32.2019 103.348 32.3483C103.202 32.4948 103.202 32.7322 103.348 32.8787L105.47 35L103.348 37.1213C103.202 37.2678 103.202 37.5052 103.348 37.6517C103.495 37.7981 103.732 37.7981 103.879 37.6517L106.265 35.2652ZM82 35.375H106V34.625H82V35.375Z" fill="#B5B5B5"/>
<defs>
<filter id="filter0_d_73_504" x="0" y="0" width="74" height="74" filterUnits="userSpaceOnUse" color-interpolation-filters="sRGB">
<feFlood flood-opacity="0" result="BackgroundImageFix"/>
<feColorMatrix in="SourceAlpha" type="matrix" values="0 0 0 0 0 0 0 0 0 0 0 0 0 0 0 0 0 0 127 0" result="hardAlpha"/>
<feOffset dy="4"/>
<feGaussianBlur stdDeviation="2"/>
<feComposite in2="hardAlpha" operator="out"/>
<feColorMatrix type="matrix" values="0 0 0 0 0 0 0 0 0 0 0 0 0 0 0 0 0 0 0.25 0"/>
<feBlend mode="normal" in2="BackgroundImageFix" result="effect1_dropShadow_73_504"/>
<feBlend mode="normal" in="SourceGraphic" in2="effect1_dropShadow_73_504" result="shape"/>
</filter>
<filter id="filter1_d_73_504" x="118" y="0" width="74" height="74" filterUnits="userSpaceOnUse" color-interpolation-filters="sRGB">
<feFlood flood-opacity="0" result="BackgroundImageFix"/>
<feColorMatrix in="SourceAlpha" type="matrix" values="0 0 0 0 0 0 0 0 0 0 0 0 0 0 0 0 0 0 127 0" result="hardAlpha"/>
<feOffset dy="4"/>
<feGaussianBlur stdDeviation="2"/>
<feComposite in2="hardAlpha" operator="out"/>
<feColorMatrix type="matrix" values="0 0 0 0 0 0 0 0 0 0 0 0 0 0 0 0 0 0 0.25 0"/>
<feBlend mode="normal" in2="BackgroundImageFix" result="effect1_dropShadow_73_504"/>
<feBlend mode="normal" in="SourceGraphic" in2="effect1_dropShadow_73_504" result="shape"/>
</filter>
</defs>
</svg>
