<svg width="86" height="94" viewBox="0 0 86 94" fill="none" xmlns="http://www.w3.org/2000/svg">
<g clip-path="url(#clip0_180_50)">
<path d="M78.41 70.19V85.75H63V93.08H78.41H85.74V85.75V70.19H78.41Z" fill="#2063F3"/>
<path d="M43.5399 17.71H43.2499C40.3891 17.71 38.0699 20.0269 38.0699 22.885C38.0699 25.7431 40.3891 28.06 43.2499 28.06H43.5399C46.4008 28.06 48.7199 25.7431 48.7199 22.885C48.7199 20.0269 46.4008 17.71 43.5399 17.71Z" fill="#2063F3"/>
<path d="M48.72 62.96V40.75C48.72 36.7 45.44 33.42 41.39 33.42H25.98V40.75H39.5V62.96H22.88V70.29H63V62.96H48.72Z" fill="#2063F3"/>
<path d="M7.33 22.88V7.33H22.74V0H7.33H0V7.33V22.88H7.33Z" fill="#2063F3"/>
</g>
<defs>
<clipPath id="clip0_180_50">
<rect width="85.74" height="93.08" fill="white"/>
</clipPath>
</defs>
</svg>
