<svg width="302" height="56" viewBox="0 0 302 56" fill="none" xmlns="http://www.w3.org/2000/svg">
<path d="M296.538 5.51514H4.54266V49.922H296.538V5.51514Z" fill="white"/>
<path d="M293.12 39.0017V46.4251H285.921V49.9221H293.12H296.542V46.4251V39.0017H293.12Z" fill="#2063F3"/>
<path d="M37.429 39.0017V21.5071H41.7102V22.7284C41.7102 22.8715 41.6962 23.029 41.6729 23.1959C41.6496 23.3152 41.6309 23.4488 41.6215 23.5919C41.6075 23.735 41.5935 23.8782 41.5702 24.0213C42.0837 23.0671 42.7794 22.3133 43.6571 21.7599C44.5348 21.2113 45.6506 20.9346 47.0092 20.9346C48.2931 20.9346 49.4089 21.2256 50.3427 21.8124C51.2764 22.3992 51.9907 23.2293 52.481 24.3028C52.9712 25.3762 53.2186 26.6357 53.2186 28.067V39.0017H48.9001V28.711C48.9001 27.3704 48.6059 26.3208 48.0223 25.5575C47.4388 24.7942 46.6077 24.4077 45.5292 24.4077C44.7823 24.4077 44.1193 24.5986 43.545 24.9802C42.9708 25.3619 42.5226 25.8962 42.1958 26.5737C41.869 27.2559 41.7056 28.0049 41.7056 28.816V39.0017H37.4244H37.429Z" fill="#2063F3"/>
<path d="M84.8865 39.6504C83.1544 39.6504 81.623 39.2735 80.2878 38.5197C78.9525 37.7659 77.9207 36.6925 77.1831 35.2947C76.4454 33.8968 76.0766 32.2413 76.0766 30.3282C76.0766 28.4151 76.4501 26.7835 77.1971 25.3618C77.9441 23.9401 78.9852 22.8476 80.3205 22.0795C81.6557 21.3161 83.173 20.9297 84.8818 20.9297C86.5905 20.9297 88.1125 21.3114 89.4431 22.0795C90.7784 22.8428 91.8148 23.9401 92.5665 25.3618C93.3181 26.7835 93.6916 28.439 93.6916 30.3282C93.6916 32.2175 93.3181 33.8968 92.5665 35.2947C91.8148 36.6925 90.7784 37.7707 89.4431 38.5197C88.1079 39.2735 86.5905 39.6504 84.8818 39.6504H84.8865ZM84.8865 36.2107C85.7735 36.2107 86.5532 35.9769 87.2208 35.5093C87.8884 35.0418 88.4067 34.3691 88.7802 33.4817C89.1537 32.5991 89.3404 31.5448 89.3404 30.3282C89.3404 28.4628 88.9295 27.0125 88.1125 25.9725C87.2955 24.9324 86.217 24.4124 84.8818 24.4124C83.9901 24.4124 83.2151 24.6462 82.5474 25.1137C81.8798 25.5812 81.3616 26.2539 80.9881 27.1413C80.6146 28.0239 80.4278 29.0878 80.4278 30.333C80.4278 32.1745 80.8293 33.6153 81.637 34.6554C82.4447 35.6954 83.5279 36.2154 84.8818 36.2154L84.8865 36.2107Z" fill="#2063F3"/>
<path d="M97.562 39.0016V21.507H101.843V24.484C101.82 24.6509 101.801 24.8179 101.792 24.9849C101.778 25.1519 101.764 25.3332 101.741 25.524C102.371 24.1834 103.3 23.0861 104.532 22.2226C105.765 21.3591 107.287 20.9297 109.112 20.9297C109.696 20.9297 110.41 20.9774 111.251 21.0728V25.2664C110.504 25.171 109.752 25.1232 109.005 25.1232C107.6 25.1232 106.367 25.3427 105.303 25.7864C104.238 26.2301 103.398 26.9219 102.777 27.8665C102.156 28.8111 101.848 30.0133 101.848 31.4685V38.9968H97.5667L97.562 39.0016Z" fill="#2063F3"/>
<path d="M114.93 39.0017V21.5071H118.721V23.0147C118.721 23.1339 118.707 23.2532 118.683 23.3725C118.683 23.4917 118.679 23.6062 118.665 23.7112C118.651 23.8162 118.637 23.9211 118.613 24.0165C118.963 23.0147 119.426 22.2465 120 21.7218C120.574 21.197 121.279 20.9346 122.124 20.9346C122.918 20.9346 123.627 21.1922 124.248 21.7074C124.869 22.2227 125.308 23.0051 125.565 24.0547C125.915 23.0767 126.396 22.3086 127.003 21.7599C127.61 21.2113 128.417 20.9346 129.426 20.9346C130.266 20.9346 131.018 21.1731 131.672 21.6502C132.325 22.1273 132.829 22.7952 133.18 23.6587C133.53 24.5175 133.707 25.5003 133.707 26.5975V39.0065H129.916V27.3513C129.916 26.421 129.785 25.6959 129.529 25.1806C129.272 24.6654 128.861 24.4077 128.301 24.4077C127.74 24.4077 127.344 24.5747 127.036 24.9087C126.732 25.2426 126.513 25.6911 126.387 26.254C126.256 26.817 126.195 27.504 126.195 28.315V39.0017H122.442V27.3466C122.442 26.4163 122.311 25.6911 122.054 25.1758C121.797 24.6606 121.386 24.403 120.826 24.403C120.336 24.403 119.93 24.5699 119.617 24.9039C119.299 25.2379 119.071 25.7006 118.935 26.2827C118.795 26.8695 118.725 27.5422 118.725 28.3103V38.9969H114.934L114.93 39.0017Z" fill="#2063F3"/>
<path d="M143.283 39.6505C142.209 39.6505 141.214 39.4311 140.299 38.9874C139.389 38.5437 138.661 37.914 138.124 37.0886C137.587 36.2632 137.316 35.2995 137.316 34.2022C137.316 32.3607 137.914 31.0058 139.104 30.1327C140.299 29.2597 141.957 28.6919 144.086 28.4295L146.822 28.0717C147.265 28.0002 147.629 27.8904 147.909 27.7473C148.189 27.6042 148.39 27.4229 148.507 27.2082C148.624 26.9935 148.684 26.7311 148.684 26.421C148.684 25.777 148.428 25.2426 147.914 24.8276C147.4 24.4077 146.663 24.1978 145.701 24.1978C144.623 24.1978 143.773 24.4602 143.138 24.985C142.508 25.5098 142.153 26.2397 142.087 27.17H137.666C137.76 25.9487 138.133 24.8705 138.791 23.9259C139.445 22.9813 140.351 22.2465 141.513 21.7218C142.671 21.197 144.011 20.9346 145.533 20.9346C147.288 20.9346 148.722 21.2351 149.833 21.8315C150.944 22.4278 151.752 23.2914 152.256 24.4125C152.76 25.5384 153.012 26.9363 153.012 28.6061V39.0065H149.011V38.2908C149.011 38.0046 149.03 37.7231 149.063 37.4464C149.1 37.1697 149.137 36.8882 149.184 36.602C148.717 37.5323 147.998 38.2765 147.027 38.8252C146.056 39.3738 144.809 39.6505 143.292 39.6505H143.283ZM144.511 36.4255C145.328 36.4255 146.065 36.2442 146.723 35.8864C147.377 35.5285 147.891 35.0324 148.269 34.3979C148.642 33.7633 148.829 33.0429 148.829 32.2271V30.3283C148.689 30.4715 148.456 30.605 148.129 30.7243C147.802 30.8436 147.391 30.9533 146.901 31.0487L145.075 31.3731C143.95 31.564 143.105 31.8645 142.531 32.2701C141.957 32.6756 141.672 33.2719 141.672 34.0639C141.672 34.8034 141.933 35.3854 142.461 35.8052C142.989 36.2251 143.67 36.4302 144.515 36.4302L144.511 36.4255Z" fill="#2063F3"/>
<path d="M193.317 39.6505C191.515 39.6505 189.965 39.2736 188.667 38.5198C187.369 37.7661 186.375 36.6879 185.684 35.2757C184.993 33.8635 184.647 32.1937 184.647 30.2568C184.647 28.3198 185.035 26.7168 185.805 25.3094C186.576 23.8973 187.64 22.819 188.999 22.0653C190.357 21.3115 191.865 20.9346 193.527 20.9346C195.936 20.9346 197.837 21.5929 199.228 22.9049C200.619 24.2217 201.422 25.9535 201.632 28.1051H197.281C197.211 27.0555 196.856 26.1777 196.212 25.4716C195.568 24.7655 194.676 24.4125 193.527 24.4125C192.687 24.4125 191.917 24.6415 191.23 25.0947C190.539 25.548 189.998 26.2254 189.596 27.1223C189.199 28.0193 188.999 29.0784 188.999 30.2949C188.999 31.4447 189.185 32.4657 189.559 33.3626C189.932 34.2595 190.455 34.956 191.118 35.4617C191.786 35.9627 192.552 36.2155 193.415 36.2155C194.634 36.2155 195.577 35.853 196.258 35.123C196.935 34.3931 197.332 33.4675 197.454 32.3416H201.805C201.595 33.8492 201.142 35.1469 200.456 36.2346C199.765 37.3224 198.817 38.1668 197.612 38.7632C196.408 39.3595 194.975 39.6601 193.313 39.6601L193.317 39.6505Z" fill="#2063F3"/>
<path d="M227.324 39.0017V21.5071H231.605V22.7284C231.605 22.8715 231.591 23.029 231.568 23.1959C231.545 23.3152 231.526 23.4488 231.517 23.5919C231.503 23.735 231.488 23.8782 231.465 24.0213C231.979 23.0671 232.674 22.3133 233.552 21.7599C234.43 21.2113 235.546 20.9346 236.904 20.9346C238.188 20.9346 239.304 21.2256 240.238 21.8124C241.171 22.3992 241.886 23.2293 242.376 24.3028C242.866 25.3762 243.114 26.6357 243.114 28.067V39.0017H238.795V28.711C238.795 27.3704 238.501 26.3208 237.917 25.5575C237.334 24.7942 236.503 24.4077 235.424 24.4077C234.677 24.4077 234.014 24.5986 233.44 24.9802C232.866 25.3619 232.418 25.8962 232.091 26.5737C231.764 27.2559 231.601 28.0049 231.601 28.816V39.0017H227.319H227.324Z" fill="#2063F3"/>
<path d="M256.48 39.6505C254.678 39.6505 253.128 39.2736 251.83 38.5198C250.532 37.7661 249.538 36.6879 248.847 35.2757C248.156 33.8635 247.81 32.1937 247.81 30.2568C247.81 28.3198 248.198 26.7168 248.968 25.3094C249.738 23.8973 250.803 22.819 252.162 22.0653C253.52 21.3115 255.028 20.9346 256.69 20.9346C259.099 20.9346 260.999 21.5929 262.391 22.9049C263.782 24.2217 264.585 25.9535 264.795 28.1051H260.444C260.374 27.0555 260.019 26.1777 259.375 25.4716C258.73 24.7655 257.839 24.4125 256.69 24.4125C255.85 24.4125 255.079 24.6415 254.393 25.0947C253.702 25.548 253.161 26.2254 252.759 27.1223C252.362 28.0193 252.162 29.0784 252.162 30.2949C252.162 31.4447 252.348 32.4657 252.722 33.3626C253.095 34.2595 253.618 34.956 254.281 35.4617C254.949 35.9627 255.714 36.2155 256.578 36.2155C257.797 36.2155 258.74 35.853 259.421 35.123C260.098 34.3931 260.495 33.4675 260.617 32.3416H264.968C264.758 33.8492 264.305 35.1469 263.619 36.2346C262.928 37.3224 261.98 38.1668 260.775 38.7632C259.571 39.3595 258.137 39.6601 256.475 39.6601L256.48 39.6505Z" fill="#2063F3"/>
<path d="M277.116 39.6504C275.384 39.6504 273.852 39.2735 272.517 38.5197C271.182 37.7659 270.15 36.6925 269.412 35.2947C268.675 33.8968 268.306 32.2413 268.306 30.3282C268.306 28.4151 268.679 26.7835 269.431 25.3618C270.178 23.9401 271.219 22.8476 272.554 22.0795C273.89 21.3161 275.407 20.9297 277.116 20.9297C278.825 20.9297 280.347 21.3114 281.677 22.0795C283.012 22.8428 284.049 23.9401 284.801 25.3618C285.548 26.7835 285.926 28.439 285.926 30.3282C285.926 32.2175 285.552 33.8968 284.801 35.2947C284.054 36.6925 283.012 37.7707 281.677 38.5197C280.342 39.2735 278.825 39.6504 277.116 39.6504ZM277.116 36.2107C278.003 36.2107 278.783 35.9769 279.45 35.5093C280.118 35.0418 280.636 34.3691 281.01 33.4817C281.383 32.5991 281.57 31.5448 281.57 30.3282C281.57 28.4628 281.159 27.0125 280.342 25.9725C279.525 24.9324 278.446 24.4124 277.111 24.4124C276.219 24.4124 275.444 24.6462 274.777 25.1137C274.109 25.5812 273.591 26.2539 273.217 27.1413C272.844 28.0239 272.657 29.0878 272.657 30.333C272.657 32.1745 273.059 33.6153 273.866 34.6554C274.674 35.6954 275.757 36.2154 277.111 36.2154L277.116 36.2107Z" fill="#2063F3"/>
<path d="M24.9543 13.9644H24.8189C23.4832 13.9644 22.4005 15.0697 22.4005 16.4333C22.4005 17.7968 23.4832 18.9022 24.8189 18.9022H24.9543C26.2899 18.9022 27.3727 17.7968 27.3727 16.4333C27.3727 15.0697 26.2899 13.9644 24.9543 13.9644Z" fill="#2063F3"/>
<path d="M27.3727 35.5523V24.9562C27.3727 23.0241 25.8413 21.4592 23.9505 21.4592H16.756V24.9562H23.0681V35.5523H15.3087V39.0493H34.0396V35.5523H27.3727Z" fill="#2063F3"/>
<path d="M214.845 13.9644H214.709C213.374 13.9644 212.291 15.0697 212.291 16.4333C212.291 17.7968 213.374 18.9022 214.709 18.9022H214.845C216.18 18.9022 217.263 17.7968 217.263 16.4333C217.263 15.0697 216.18 13.9644 214.845 13.9644Z" fill="#2063F3"/>
<path d="M217.263 35.5523V24.9562C217.263 23.0241 215.732 21.4592 213.841 21.4592H206.646V24.9562H212.958V35.5523H205.199V39.0493H223.93V35.5523H217.263Z" fill="#2063F3"/>
<path d="M73.6348 17.2991V13.8164H66.1556C64.1807 13.8164 62.584 15.4528 62.584 17.4661V21.4593H57.0096V24.9563H62.584V39.0493H66.8886V24.9563H73.3547V21.4593H66.8886V17.2991H73.6348Z" fill="#2063F3"/>
<path d="M7.96483 16.4308V9.01215H15.1593V5.51514H7.96483H4.54266V9.01215V16.4308H7.96483Z" fill="#2063F3"/>
<path d="M180.45 35.5713H159.441V39.865H180.45V35.5713Z" fill="#2063F3"/>
<path d="M15.1593 0V56" stroke="#FF8743" stroke-width="0.5" stroke-miterlimit="10"/>
<path d="M285.921 0V56" stroke="#FF8743" stroke-width="0.5" stroke-miterlimit="10"/>
<path d="M0 16.4307H302" stroke="#FF8743" stroke-width="0.5" stroke-miterlimit="10"/>
<path d="M0 39.865H302" stroke="#FF8743" stroke-width="0.5" stroke-miterlimit="10"/>
</svg>
