<svg width="213" height="72" viewBox="0 0 213 72" fill="none" xmlns="http://www.w3.org/2000/svg">
<g clip-path="url(#clip0_23_28)">
<path d="M212.29 36C212.29 16.1177 196.172 0 176.29 0C156.408 0 140.29 16.1177 140.29 36C140.29 55.8823 156.408 72 176.29 72C196.172 72 212.29 55.8823 212.29 36Z" fill="#2063F3"/>
<path d="M174.22 18.8501H189.63V19.7601C189.63 23.1501 186.87 25.9101 183.48 25.9101H168.07V25.0001C168.07 21.6101 170.83 18.8501 174.22 18.8501Z" fill="white"/>
<path d="M164.43 35.0502L167.07 29.1802C167.07 29.1802 189.62 26.2402 189.62 40.9302C189.62 55.6202 162.96 52.0902 162.96 52.0902L165.5 46.5102C165.5 46.5102 182.43 47.2302 182.43 40.7102C182.43 34.1902 164.42 35.0702 164.42 35.0702L164.43 35.0502Z" fill="white"/>
<path d="M170.91 44.9702C173.268 44.9702 175.18 43.0584 175.18 40.7002C175.18 38.3419 173.268 36.4302 170.91 36.4302C168.552 36.4302 166.64 38.3419 166.64 40.7002C166.64 43.0584 168.552 44.9702 170.91 44.9702Z" fill="white"/>
<path d="M131.29 18H0V54H131.29V18Z" fill="#2063F3"/>
<path d="M128.47 45.1702V51.1702H122.52V54.0002H128.47H131.29V51.1702V45.1702H128.47Z" fill="white"/>
<path d="M27.17 45.1701V31.0201H30.71V32.0101C30.71 32.1301 30.71 32.2501 30.68 32.3901C30.66 32.4901 30.65 32.5901 30.64 32.7101C30.64 32.8301 30.62 32.9401 30.6 33.0601C31.02 32.2901 31.6 31.6801 32.32 31.2301C33.04 30.7901 33.97 30.5601 35.09 30.5601C36.15 30.5601 37.07 30.8001 37.84 31.2701C38.61 31.7401 39.2 32.4101 39.61 33.2801C40.02 34.1501 40.22 35.1601 40.22 36.3201V45.1601H36.65V36.8401C36.65 35.7601 36.41 34.9101 35.93 34.2901C35.45 33.6701 34.76 33.3601 33.87 33.3601C33.25 33.3601 32.71 33.5101 32.23 33.8201C31.76 34.1301 31.38 34.5601 31.11 35.1101C30.84 35.6601 30.7 36.2701 30.7 36.9201V45.1501H27.16L27.17 45.1701Z" fill="white"/>
<path d="M66.37 45.7001C64.94 45.7001 63.67 45.4001 62.57 44.7901C61.47 44.1801 60.61 43.3101 60 42.1801C59.39 41.0501 59.09 39.7101 59.09 38.1601C59.09 36.6101 59.4 35.3001 60.02 34.1501C60.64 33.0001 61.5 32.1201 62.6 31.5001C63.7 30.8801 64.96 30.5701 66.37 30.5701C67.78 30.5701 69.04 30.8801 70.14 31.5001C71.24 32.1201 72.1 33.0001 72.72 34.1501C73.34 35.3001 73.65 36.6401 73.65 38.1601C73.65 39.6801 73.34 41.0401 72.72 42.1801C72.1 43.3201 71.24 44.1801 70.14 44.7901C69.04 45.4001 67.78 45.7001 66.37 45.7001ZM66.37 42.9201C67.1 42.9201 67.75 42.7301 68.3 42.3501C68.85 41.9701 69.28 41.4301 69.59 40.7101C69.9 40.0001 70.05 39.1401 70.05 38.1601C70.05 36.6501 69.71 35.4801 69.04 34.6401C68.36 33.8001 67.47 33.3801 66.37 33.3801C65.64 33.3801 64.99 33.5701 64.44 33.9501C63.89 34.3301 63.46 34.8701 63.15 35.5901C62.84 36.3101 62.69 37.1701 62.69 38.1701C62.69 39.6601 63.02 40.8201 63.69 41.6601C64.36 42.5001 65.25 42.9201 66.37 42.9201Z" fill="white"/>
<path d="M76.84 45.1701V31.0201H80.38V33.4301C80.36 33.5701 80.35 33.7001 80.34 33.8401C80.33 33.9801 80.32 34.1201 80.3 34.2801C80.82 33.2001 81.59 32.3101 82.6 31.6101C83.61 30.9101 84.88 30.5701 86.38 30.5701C86.86 30.5701 87.45 30.6101 88.15 30.6901V34.0801C87.53 34.0001 86.91 33.9601 86.29 33.9601C85.13 33.9601 84.11 34.1401 83.23 34.5001C82.35 34.8601 81.65 35.4201 81.14 36.1801C80.63 36.9401 80.37 37.9101 80.37 39.0901V45.1801H76.83L76.84 45.1701Z" fill="white"/>
<path d="M91.19 45.1701V31.0201H94.32V32.2401C94.32 32.3401 94.31 32.4301 94.29 32.5301C94.29 32.6301 94.29 32.7201 94.28 32.8101C94.27 32.9001 94.26 32.9801 94.24 33.0601C94.53 32.2501 94.91 31.6301 95.38 31.2101C95.85 30.7801 96.44 30.5701 97.13 30.5701C97.79 30.5701 98.37 30.7801 98.88 31.1901C99.39 31.6101 99.75 32.2401 99.97 33.0901C100.26 32.3001 100.66 31.6801 101.16 31.2301C101.66 30.7901 102.33 30.5601 103.16 30.5601C103.86 30.5601 104.47 30.7501 105.02 31.1401C105.56 31.5301 105.98 32.0701 106.27 32.7601C106.56 33.4601 106.7 34.2501 106.7 35.1401V45.1701H103.57V35.7501C103.57 35.0001 103.46 34.4101 103.25 34.0001C103.04 33.5801 102.7 33.3801 102.24 33.3801C101.78 33.3801 101.45 33.5201 101.2 33.7901C100.95 34.0601 100.77 34.4201 100.66 34.8801C100.55 35.3301 100.5 35.8901 100.5 36.5501V45.1901H97.4V35.7701C97.4 35.0201 97.29 34.4301 97.08 34.0201C96.87 33.6001 96.53 33.4001 96.07 33.4001C95.66 33.4001 95.33 33.5401 95.07 33.8101C94.81 34.0801 94.62 34.4501 94.51 34.9301C94.39 35.4001 94.34 35.9501 94.34 36.5701V45.2101H91.21L91.19 45.1701Z" fill="white"/>
<path d="M114.61 45.7001C113.72 45.7001 112.9 45.5201 112.15 45.1601C111.4 44.8001 110.8 44.2901 110.35 43.6201C109.91 42.9501 109.68 42.1801 109.68 41.2901C109.68 39.8001 110.17 38.7101 111.16 38.0001C112.15 37.2901 113.52 36.8401 115.28 36.6201L117.54 36.3301C117.91 36.2701 118.21 36.1901 118.44 36.0701C118.67 35.9501 118.84 35.8101 118.93 35.6301C119.03 35.4601 119.08 35.2401 119.08 34.9901C119.08 34.4701 118.87 34.0401 118.44 33.7001C118.01 33.3601 117.41 33.1901 116.61 33.1901C115.72 33.1901 115.02 33.4001 114.49 33.8301C113.97 34.2601 113.68 34.8401 113.62 35.6001H109.97C110.05 34.6101 110.36 33.7401 110.9 32.9801C111.44 32.2201 112.19 31.6201 113.15 31.2001C114.11 30.7701 115.21 30.5601 116.47 30.5601C117.92 30.5601 119.1 30.8001 120.02 31.2801C120.94 31.7601 121.6 32.4601 122.02 33.3701C122.44 34.2801 122.64 35.4101 122.64 36.7601V45.1701H119.34V44.5901C119.34 44.3601 119.35 44.1301 119.38 43.9101C119.41 43.6901 119.44 43.4601 119.48 43.2301C119.09 43.9801 118.5 44.5801 117.7 45.0301C116.9 45.4701 115.87 45.7001 114.61 45.7001ZM115.62 43.0901C116.3 43.0901 116.91 42.9501 117.45 42.6601C117.99 42.3701 118.42 41.9701 118.73 41.4601C119.04 40.9501 119.19 40.3601 119.19 39.7101V38.1701C119.07 38.2901 118.88 38.3901 118.61 38.4901C118.34 38.5901 118 38.6701 117.6 38.7501L116.09 39.0101C115.16 39.1701 114.46 39.4101 113.99 39.7301C113.52 40.0601 113.28 40.5401 113.28 41.1801C113.28 41.7801 113.5 42.2501 113.93 42.5901C114.36 42.9301 114.93 43.1001 115.63 43.1001L115.62 43.0901Z" fill="white"/>
<path d="M16.86 24.9302H16.75C15.6454 24.9302 14.75 25.8234 14.75 26.9252C14.75 28.027 15.6454 28.9202 16.75 28.9202H16.86C17.9646 28.9202 18.86 28.027 18.86 26.9252C18.86 25.8234 17.9646 24.9302 16.86 24.9302Z" fill="white"/>
<path d="M18.86 42.3902V33.8202C18.86 32.2602 17.59 30.9902 16.03 30.9902H10.09V33.8202H15.31V42.3902H8.89999V45.2202H24.37V42.3902H18.86Z" fill="white"/>
<path d="M57.08 27.6301V24.8201H50.9C49.27 24.8201 47.95 26.1401 47.95 27.7701V31.0001H43.35V33.8301H47.95V45.2201H51.51V33.8301H56.85V31.0001H51.51V27.6401H57.08V27.6301Z" fill="white"/>
<path d="M2.83 26.9301V20.9301H8.77V18.1001H2.83H0V20.9301V26.9301H2.83Z" fill="white"/>
</g>
<defs>
<clipPath id="clip0_23_28">
<rect width="212.29" height="72" fill="white"/>
</clipPath>
</defs>
</svg>
