<svg width="294" height="122" viewBox="0 0 294 122" fill="none" xmlns="http://www.w3.org/2000/svg">
<g clip-path="url(#clip0_23_51)">
<path d="M137.085 23.2381C137.085 10.404 126.677 0 113.838 0C100.999 0 90.5912 10.404 90.5912 23.2381C90.5912 36.0721 100.999 46.4762 113.838 46.4762C126.677 46.4762 137.085 36.0721 137.085 23.2381Z" fill="#2063F3"/>
<path d="M112.501 12.1677H122.452V12.7551C122.452 14.9434 120.67 16.725 118.481 16.725H108.53V16.1376C108.53 13.9493 110.312 12.1677 112.501 12.1677Z" fill="white"/>
<path d="M106.179 22.6248L107.884 18.8357C107.884 18.8357 122.446 16.938 122.446 26.4204C122.446 35.9028 105.23 33.6242 105.23 33.6242L106.87 30.0223C106.87 30.0223 117.803 30.4871 117.803 26.2784C117.803 22.0697 106.173 22.6377 106.173 22.6377L106.179 22.6248Z" fill="white"/>
<path d="M110.364 29.0282C111.887 29.0282 113.121 27.7942 113.121 26.2719C113.121 24.7497 111.887 23.5156 110.364 23.5156C108.841 23.5156 107.607 24.7497 107.607 26.2719C107.607 27.7942 108.841 29.0282 110.364 29.0282Z" fill="white"/>
<path d="M84.7795 11.6191H0V34.8572H84.7795V11.6191Z" fill="#2063F3"/>
<path d="M82.9585 29.1572V33.0302H79.1163V34.857H82.9585H84.7795V33.0302V29.1572H82.9585Z" fill="white"/>
<path d="M17.5448 29.1574V20.0235H19.8307V20.6625C19.8307 20.74 19.8307 20.8175 19.8114 20.9078C19.7985 20.9724 19.792 21.0369 19.7855 21.1144C19.7855 21.1919 19.7726 21.2629 19.7597 21.3403C20.0309 20.8433 20.4055 20.4495 20.8704 20.159C21.3353 19.875 21.9359 19.7266 22.6591 19.7266C23.3436 19.7266 23.9377 19.8815 24.4349 20.1849C24.9321 20.4883 25.3131 20.9207 25.5779 21.4823C25.8426 22.0439 25.9718 22.6959 25.9718 23.4447V29.1509H23.6665V23.7803C23.6665 23.0832 23.5115 22.5345 23.2015 22.1343C22.8916 21.7341 22.446 21.534 21.8713 21.534C21.4709 21.534 21.1222 21.6308 20.8123 21.8309C20.5088 22.031 20.2634 22.3086 20.089 22.6636C19.9147 23.0186 19.8243 23.4124 19.8243 23.832V29.1444H17.5384L17.5448 29.1574Z" fill="white"/>
<path d="M42.8579 29.4994C41.9345 29.4994 41.1144 29.3057 40.4041 28.912C39.6938 28.5182 39.1384 27.9566 38.7445 27.2272C38.3506 26.4978 38.1569 25.6328 38.1569 24.6323C38.1569 23.6317 38.3571 22.7861 38.7575 22.0438C39.1578 21.3015 39.7132 20.7334 40.4235 20.3332C41.1338 19.933 41.9474 19.7329 42.8579 19.7329C43.7684 19.7329 44.5821 19.933 45.2924 20.3332C46.0027 20.7334 46.558 21.3015 46.9584 22.0438C47.3587 22.7861 47.5589 23.6511 47.5589 24.6323C47.5589 25.6134 47.3587 26.4913 46.9584 27.2272C46.558 27.9631 46.0027 28.5182 45.2924 28.912C44.5821 29.3057 43.7684 29.4994 42.8579 29.4994ZM42.8579 27.7049C43.3293 27.7049 43.7491 27.5822 44.1042 27.3369C44.4594 27.0916 44.737 26.7431 44.9372 26.2783C45.1374 25.82 45.2343 25.2649 45.2343 24.6323C45.2343 23.6576 45.0147 22.9023 44.5821 22.3601C44.143 21.8179 43.5682 21.5468 42.8579 21.5468C42.3865 21.5468 41.9668 21.6694 41.6116 21.9147C41.2565 22.16 40.9788 22.5086 40.7786 22.9733C40.5785 23.4381 40.4816 23.9932 40.4816 24.6387C40.4816 25.6005 40.6947 26.3493 41.1273 26.8915C41.56 27.4338 42.1347 27.7049 42.8579 27.7049Z" fill="white"/>
<path d="M49.6188 29.1572V20.0234H51.9047V21.579C51.8918 21.6694 51.8854 21.7533 51.8789 21.8437C51.8725 21.9341 51.866 22.0244 51.8531 22.1277C52.1889 21.4306 52.6861 20.8561 53.3383 20.4042C53.9905 19.9524 54.8106 19.7329 55.7792 19.7329C56.0892 19.7329 56.4701 19.7587 56.9222 19.8104V21.9986C56.5218 21.947 56.1214 21.9212 55.7211 21.9212C54.972 21.9212 54.3134 22.0374 53.7451 22.2697C53.1769 22.5021 52.7248 22.8636 52.3955 23.3542C52.0662 23.8448 51.8983 24.4709 51.8983 25.2326V29.1637H49.6124L49.6188 29.1572Z" fill="white"/>
<path d="M58.8853 29.1574V20.0235H60.9064V20.811C60.9064 20.8756 60.9 20.9337 60.8871 20.9982C60.8871 21.0628 60.8871 21.1208 60.8806 21.1789C60.8741 21.237 60.8677 21.2887 60.8548 21.3403C61.042 20.8175 61.2874 20.4173 61.5909 20.1461C61.8944 19.8686 62.2754 19.733 62.721 19.733C63.1471 19.733 63.5217 19.8686 63.851 20.1332C64.1803 20.4043 64.4128 20.811 64.5549 21.3597C64.7421 20.8497 65.0004 20.4495 65.3233 20.159C65.6462 19.875 66.0788 19.7266 66.6148 19.7266C67.0668 19.7266 67.4607 19.8492 67.8159 20.101C68.1646 20.3527 68.4358 20.7013 68.623 21.1467C68.8103 21.5985 68.9007 22.1085 68.9007 22.683V29.1574H66.8795V23.0767C66.8795 22.5926 66.8085 22.2117 66.6729 21.9471C66.5373 21.676 66.3177 21.5469 66.0207 21.5469C65.7237 21.5469 65.5106 21.6373 65.3491 21.8115C65.1877 21.9858 65.0715 22.2182 65.0004 22.5151C64.9294 22.8056 64.8971 23.1671 64.8971 23.5931V29.1703H62.8953V23.0896C62.8953 22.6055 62.8243 22.2247 62.6887 21.96C62.5531 21.6889 62.3335 21.5598 62.0365 21.5598C61.7717 21.5598 61.5586 21.6502 61.3907 21.8244C61.2228 21.9987 61.1001 22.2376 61.0291 22.5474C60.9516 22.8508 60.9193 23.2058 60.9193 23.606V29.1832H58.8982L58.8853 29.1574Z" fill="white"/>
<path d="M74.0085 29.4995C73.4338 29.4995 72.9043 29.3833 72.42 29.1509C71.9357 28.9185 71.5482 28.5893 71.2577 28.1568C70.9735 27.7243 70.825 27.2273 70.825 26.6528C70.825 25.691 71.1414 24.9874 71.7807 24.5291C72.42 24.0708 73.3047 23.7803 74.4412 23.6383L75.9005 23.4511C76.1395 23.4124 76.3332 23.3607 76.4817 23.2833C76.6302 23.2058 76.74 23.1155 76.7981 22.9993C76.8627 22.8895 76.895 22.7475 76.895 22.5861C76.895 22.2505 76.7594 21.9729 76.4817 21.7534C76.204 21.534 75.8166 21.4242 75.3 21.4242C74.7253 21.4242 74.2733 21.5598 73.931 21.8374C73.5952 22.1149 73.408 22.4893 73.3692 22.9799H71.0123C71.0639 22.3408 71.2641 21.7793 71.6128 21.2887C71.9615 20.7981 72.4458 20.4108 73.0657 20.1397C73.6857 19.8621 74.396 19.7266 75.2096 19.7266C76.1459 19.7266 76.9079 19.8815 77.502 20.1913C78.0961 20.5012 78.5223 20.953 78.7935 21.5404C79.0647 22.1278 79.1938 22.8572 79.1938 23.7287V29.1574H77.0629V28.783C77.0629 28.6345 77.0693 28.486 77.0887 28.344C77.1081 28.202 77.1275 28.0535 77.1533 27.9051C76.9014 28.3892 76.5205 28.7765 76.0039 29.067C75.4873 29.351 74.8222 29.4995 74.0085 29.4995ZM74.6607 27.8147C75.0998 27.8147 75.4937 27.7243 75.8424 27.5371C76.1911 27.3499 76.4688 27.0917 76.669 26.7625C76.8692 26.4333 76.966 26.0525 76.966 25.6329V24.6388C76.8885 24.7163 76.7658 24.7808 76.5915 24.8454C76.4171 24.91 76.1976 24.9616 75.9393 25.0132L74.9642 25.1811C74.3637 25.2843 73.9117 25.4393 73.6082 25.6458C73.3047 25.8588 73.1497 26.1687 73.1497 26.5818C73.1497 26.9691 73.2917 27.2725 73.5694 27.492C73.8471 27.7114 74.2152 27.8212 74.6672 27.8212L74.6607 27.8147Z" fill="white"/>
<path d="M10.8872 16.0923H10.8162C10.1029 16.0923 9.52469 16.6688 9.52469 17.3801C9.52469 18.0913 10.1029 18.6678 10.8162 18.6678H10.8872C11.6005 18.6678 12.1787 18.0913 12.1787 17.3801C12.1787 16.6688 11.6005 16.0923 10.8872 16.0923Z" fill="white"/>
<path d="M12.1787 27.3629V21.8309C12.1787 20.8239 11.3586 20.0042 10.3512 20.0042H6.51553V21.8309H9.88631V27.3629H5.7471V29.1897H15.7367V27.3629H12.1787Z" fill="white"/>
<path d="M36.859 17.8353V16.0215H32.8683C31.8157 16.0215 30.9633 16.8735 30.9633 17.9257V20.0107H27.9929V21.8375H30.9633V29.1897H33.2622V21.8375H36.7104V20.0107H33.2622V17.8418H36.859V17.8353Z" fill="white"/>
<path d="M1.82745 17.3834V13.5104H5.66316V11.6836H1.82745H0V13.5104V17.3834H1.82745Z" fill="white"/>
<path d="M294 23.2381C294 10.404 283.592 0 270.753 0C257.915 0 247.507 10.404 247.507 23.2381C247.507 36.0721 257.915 46.4762 270.753 46.4762C283.592 46.4762 294 36.0721 294 23.2381Z" fill="white"/>
<path d="M269.417 12.1677H279.367V12.7551C279.367 14.9434 277.585 16.725 275.396 16.725H265.445V16.1376C265.445 13.9493 267.227 12.1677 269.417 12.1677Z" fill="#2063F3"/>
<path d="M263.095 22.6248L264.8 18.8357C264.8 18.8357 279.361 16.938 279.361 26.4204C279.361 35.9028 262.146 33.6242 262.146 33.6242L263.786 30.0223C263.786 30.0223 274.718 30.4871 274.718 26.2784C274.718 22.0697 263.088 22.6377 263.088 22.6377L263.095 22.6248Z" fill="#2063F3"/>
<path d="M267.279 29.0282C268.802 29.0282 270.036 27.7942 270.036 26.2719C270.036 24.7497 268.802 23.5156 267.279 23.5156C265.756 23.5156 264.522 24.7497 264.522 26.2719C264.522 27.7942 265.756 29.0282 267.279 29.0282Z" fill="#2063F3"/>
<path d="M241.695 11.6191H156.915V34.8572H241.695V11.6191Z" fill="white"/>
<path d="M239.874 29.1572V33.0302H236.032V34.857H239.874H241.695V33.0302V29.1572H239.874Z" fill="#2063F3"/>
<path d="M174.46 29.1574V20.0235H176.746V20.6625C176.746 20.74 176.746 20.8175 176.727 20.9078C176.714 20.9724 176.707 21.0369 176.701 21.1144C176.701 21.1919 176.688 21.2629 176.675 21.3403C176.946 20.8433 177.321 20.4495 177.786 20.159C178.251 19.875 178.851 19.7266 179.574 19.7266C180.259 19.7266 180.853 19.8815 181.35 20.1849C181.847 20.4883 182.228 20.9207 182.493 21.4823C182.758 22.0439 182.887 22.6959 182.887 23.4447V29.1509H180.582V23.7803C180.582 23.0832 180.427 22.5345 180.117 22.1343C179.807 21.7341 179.361 21.534 178.787 21.534C178.386 21.534 178.038 21.6308 177.728 21.8309C177.424 22.031 177.179 22.3086 177.004 22.6636C176.83 23.0186 176.74 23.4124 176.74 23.832V29.1444H174.454L174.46 29.1574Z" fill="#2063F3"/>
<path d="M199.773 29.4994C198.85 29.4994 198.03 29.3057 197.32 28.912C196.609 28.5182 196.054 27.9566 195.66 27.2272C195.266 26.4978 195.072 25.6328 195.072 24.6323C195.072 23.6317 195.273 22.7861 195.673 22.0438C196.073 21.3015 196.629 20.7334 197.339 20.3332C198.049 19.933 198.863 19.7329 199.773 19.7329C200.684 19.7329 201.497 19.933 202.208 20.3332C202.918 20.7334 203.473 21.3015 203.874 22.0438C204.274 22.7861 204.474 23.6511 204.474 24.6323C204.474 25.6134 204.274 26.4913 203.874 27.2272C203.473 27.9631 202.918 28.5182 202.208 28.912C201.497 29.3057 200.684 29.4994 199.773 29.4994ZM199.773 27.7049C200.245 27.7049 200.664 27.5822 201.02 27.3369C201.375 27.0916 201.652 26.7431 201.853 26.2783C202.053 25.82 202.15 25.2649 202.15 24.6323C202.15 23.6576 201.93 22.9023 201.497 22.3601C201.058 21.8179 200.484 21.5468 199.773 21.5468C199.302 21.5468 198.882 21.6694 198.527 21.9147C198.172 22.16 197.894 22.5086 197.694 22.9733C197.494 23.4381 197.397 23.9932 197.397 24.6387C197.397 25.6005 197.61 26.3493 198.043 26.8915C198.475 27.4338 199.05 27.7049 199.773 27.7049Z" fill="#2063F3"/>
<path d="M206.534 29.1572V20.0234H208.82V21.579C208.807 21.6694 208.801 21.7533 208.794 21.8437C208.788 21.9341 208.781 22.0244 208.768 22.1277C209.104 21.4306 209.602 20.8561 210.254 20.4042C210.906 19.9524 211.726 19.7329 212.695 19.7329C213.005 19.7329 213.386 19.7587 213.838 19.8104V21.9986C213.437 21.947 213.037 21.9212 212.637 21.9212C211.887 21.9212 211.229 22.0374 210.661 22.2697C210.092 22.5021 209.64 22.8636 209.311 23.3542C208.982 23.8448 208.814 24.4709 208.814 25.2326V29.1637H206.528L206.534 29.1572Z" fill="#2063F3"/>
<path d="M215.801 29.1574V20.0235H217.822V20.811C217.822 20.8756 217.815 20.9337 217.802 20.9982C217.802 21.0628 217.802 21.1208 217.796 21.1789C217.79 21.237 217.783 21.2887 217.77 21.3403C217.957 20.8175 218.203 20.4173 218.506 20.1461C218.81 19.8686 219.191 19.733 219.636 19.733C220.063 19.733 220.437 19.8686 220.766 20.1332C221.096 20.4043 221.328 20.811 221.47 21.3597C221.658 20.8497 221.916 20.4495 222.239 20.159C222.562 19.875 222.994 19.7266 223.53 19.7266C223.982 19.7266 224.376 19.8492 224.731 20.101C225.08 20.3527 225.351 20.7013 225.538 21.1467C225.726 21.5985 225.816 22.1085 225.816 22.683V29.1574H223.795V23.0767C223.795 22.5926 223.724 22.2117 223.588 21.9471C223.453 21.676 223.233 21.5469 222.936 21.5469C222.639 21.5469 222.426 21.6373 222.265 21.8115C222.103 21.9858 221.987 22.2182 221.916 22.5151C221.845 22.8056 221.813 23.1671 221.813 23.5931V29.1703H219.811V23.0896C219.811 22.6055 219.74 22.2247 219.604 21.96C219.468 21.6889 219.249 21.5598 218.952 21.5598C218.687 21.5598 218.474 21.6502 218.306 21.8244C218.138 21.9987 218.016 22.2376 217.945 22.5474C217.867 22.8508 217.835 23.2058 217.835 23.606V29.1832H215.814L215.801 29.1574Z" fill="#2063F3"/>
<path d="M230.924 29.4995C230.349 29.4995 229.82 29.3833 229.335 29.1509C228.851 28.9185 228.464 28.5893 228.173 28.1568C227.889 27.7243 227.74 27.2273 227.74 26.6528C227.74 25.691 228.057 24.9874 228.696 24.5291C229.335 24.0708 230.22 23.7803 231.357 23.6383L232.816 23.4511C233.055 23.4124 233.249 23.3607 233.397 23.2833C233.546 23.2058 233.655 23.1155 233.714 22.9993C233.778 22.8895 233.81 22.7475 233.81 22.5861C233.81 22.2505 233.675 21.9729 233.397 21.7534C233.119 21.534 232.732 21.4242 232.215 21.4242C231.641 21.4242 231.189 21.5598 230.846 21.8374C230.511 22.1149 230.323 22.4893 230.285 22.9799H227.928C227.979 22.3408 228.18 21.7793 228.528 21.2887C228.877 20.7981 229.361 20.4108 229.981 20.1397C230.601 19.8621 231.311 19.7266 232.125 19.7266C233.061 19.7266 233.823 19.8815 234.417 20.1913C235.011 20.5012 235.438 20.953 235.709 21.5404C235.98 22.1278 236.109 22.8572 236.109 23.7287V29.1574H233.978V28.783C233.978 28.6345 233.985 28.486 234.004 28.344C234.023 28.202 234.043 28.0535 234.069 27.9051C233.817 28.3892 233.436 28.7765 232.919 29.067C232.403 29.351 231.738 29.4995 230.924 29.4995ZM231.576 27.8147C232.015 27.8147 232.409 27.7243 232.758 27.5371C233.107 27.3499 233.384 27.0917 233.584 26.7625C233.785 26.4333 233.881 26.0525 233.881 25.6329V24.6388C233.804 24.7163 233.681 24.7808 233.507 24.8454C233.333 24.91 233.113 24.9616 232.855 25.0132L231.88 25.1811C231.279 25.2843 230.827 25.4393 230.524 25.6458C230.22 25.8588 230.065 26.1687 230.065 26.5818C230.065 26.9691 230.207 27.2725 230.485 27.492C230.762 27.7114 231.131 27.8212 231.583 27.8212L231.576 27.8147Z" fill="#2063F3"/>
<path d="M167.803 16.0923H167.732C167.018 16.0923 166.44 16.6688 166.44 17.3801C166.44 18.0913 167.018 18.6678 167.732 18.6678H167.803C168.516 18.6678 169.094 18.0913 169.094 17.3801C169.094 16.6688 168.516 16.0923 167.803 16.0923Z" fill="#2063F3"/>
<path d="M169.094 27.3629V21.8309C169.094 20.8239 168.274 20.0042 167.267 20.0042H163.431V21.8309H166.802V27.3629H162.662V29.1897H172.652V27.3629H169.094Z" fill="#2063F3"/>
<path d="M193.774 17.8353V16.0215H189.784C188.731 16.0215 187.879 16.8735 187.879 17.9257V20.0107H184.908V21.8375H187.879V29.1897H190.178V21.8375H193.626V20.0107H190.178V17.8418H193.774V17.8353Z" fill="#2063F3"/>
<path d="M158.743 17.3834V13.5104H162.579V11.6836H158.743H156.915V13.5104V17.3834H158.743Z" fill="#2063F3"/>
<path d="M137.085 98.762C137.085 85.928 126.677 75.5239 113.838 75.5239C100.999 75.5239 90.5912 85.928 90.5912 98.762C90.5912 111.596 100.999 122 113.838 122C126.677 122 137.085 111.596 137.085 98.762Z" fill="black"/>
<path d="M112.501 87.6917H122.452V88.2791C122.452 90.4673 120.67 92.2489 118.481 92.2489H108.53V91.6615C108.53 89.4732 110.312 87.6917 112.501 87.6917Z" fill="white"/>
<path d="M106.179 98.1488L107.884 94.3597C107.884 94.3597 122.446 92.4619 122.446 101.944C122.446 111.427 105.23 109.148 105.23 109.148L106.87 105.546C106.87 105.546 117.803 106.011 117.803 101.802C117.803 97.5936 106.173 98.1617 106.173 98.1617L106.179 98.1488Z" fill="white"/>
<path d="M110.364 104.552C111.887 104.552 113.121 103.318 113.121 101.796C113.121 100.274 111.887 99.0396 110.364 99.0396C108.841 99.0396 107.607 100.274 107.607 101.796C107.607 103.318 108.841 104.552 110.364 104.552Z" fill="white"/>
<path d="M84.7795 87.1428H0V110.381H84.7795V87.1428Z" fill="black"/>
<path d="M82.9585 104.681V108.554H79.1163V110.381H82.9585H84.7795V108.554V104.681H82.9585Z" fill="white"/>
<path d="M17.5448 104.681V95.5474H19.8307V96.1865C19.8307 96.2639 19.8307 96.3414 19.8114 96.4318C19.7985 96.4963 19.792 96.5609 19.7855 96.6383C19.7855 96.7158 19.7726 96.7868 19.7597 96.8642C20.0309 96.3672 20.4055 95.9735 20.8704 95.683C21.3353 95.399 21.9359 95.2505 22.6591 95.2505C23.3436 95.2505 23.9377 95.4054 24.4349 95.7088C24.9321 96.0122 25.3131 96.4447 25.5779 97.0063C25.8426 97.5678 25.9718 98.2198 25.9718 98.9686V104.675H23.6665V99.3042C23.6665 98.6071 23.5115 98.0584 23.2015 97.6582C22.8916 97.258 22.446 97.0579 21.8713 97.0579C21.4709 97.0579 21.1222 97.1547 20.8123 97.3548C20.5088 97.5549 20.2634 97.8325 20.089 98.1875C19.9147 98.5426 19.8243 98.9363 19.8243 99.3559V104.668H17.5384L17.5448 104.681Z" fill="white"/>
<path d="M42.8579 105.023C41.9345 105.023 41.1144 104.83 40.4041 104.436C39.6938 104.042 39.1384 103.481 38.7445 102.751C38.3506 102.022 38.1569 101.157 38.1569 100.156C38.1569 99.1557 38.3571 98.3101 38.7575 97.5677C39.1578 96.8254 39.7132 96.2574 40.4235 95.8571C41.1338 95.4569 41.9474 95.2568 42.8579 95.2568C43.7684 95.2568 44.5821 95.4569 45.2924 95.8571C46.0027 96.2574 46.558 96.8254 46.9584 97.5677C47.3587 98.3101 47.5589 99.175 47.5589 100.156C47.5589 101.137 47.3587 102.015 46.9584 102.751C46.558 103.487 46.0027 104.042 45.2924 104.436C44.5821 104.83 43.7684 105.023 42.8579 105.023ZM42.8579 103.229C43.3293 103.229 43.7491 103.106 44.1042 102.861C44.4594 102.616 44.737 102.267 44.9372 101.802C45.1374 101.344 45.2343 100.789 45.2343 100.156C45.2343 99.1815 45.0147 98.4262 44.5821 97.884C44.143 97.3418 43.5682 97.0707 42.8579 97.0707C42.3865 97.0707 41.9668 97.1933 41.6116 97.4386C41.2565 97.6839 40.9788 98.0325 40.7786 98.4973C40.5785 98.962 40.4816 99.5171 40.4816 100.163C40.4816 101.124 40.6947 101.873 41.1273 102.415C41.56 102.958 42.1347 103.229 42.8579 103.229Z" fill="white"/>
<path d="M49.6188 104.681V95.5473H51.9047V97.103C51.8918 97.1933 51.8854 97.2773 51.8789 97.3676C51.8725 97.458 51.866 97.5484 51.8531 97.6516C52.1889 96.9545 52.6861 96.38 53.3383 95.9282C53.9905 95.4763 54.8106 95.2568 55.7792 95.2568C56.0892 95.2568 56.4701 95.2827 56.9222 95.3343V97.5225C56.5218 97.4709 56.1214 97.4451 55.7211 97.4451C54.972 97.4451 54.3134 97.5613 53.7451 97.7937C53.1769 98.026 52.7248 98.3875 52.3955 98.8781C52.0662 99.3687 51.8983 99.9948 51.8983 100.757V104.688H49.6124L49.6188 104.681Z" fill="white"/>
<path d="M58.8853 104.681V95.5474H60.9064V96.3349C60.9064 96.3995 60.9 96.4576 60.8871 96.5221C60.8871 96.5867 60.8871 96.6448 60.8806 96.7029C60.8741 96.761 60.8677 96.8126 60.8548 96.8642C61.042 96.3414 61.2874 95.9412 61.5909 95.6701C61.8944 95.3925 62.2754 95.2569 62.721 95.2569C63.1471 95.2569 63.5217 95.3925 63.851 95.6572C64.1803 95.9283 64.4128 96.3349 64.5549 96.8836C64.7421 96.3737 65.0004 95.9735 65.3233 95.683C65.6462 95.399 66.0788 95.2505 66.6148 95.2505C67.0668 95.2505 67.4607 95.3731 67.8159 95.6249C68.1646 95.8766 68.4358 96.2252 68.623 96.6706C68.8103 97.1224 68.9007 97.6324 68.9007 98.2069V104.681H66.8795V98.6006C66.8795 98.1165 66.8085 97.7357 66.6729 97.471C66.5373 97.1999 66.3177 97.0708 66.0207 97.0708C65.7237 97.0708 65.5106 97.1612 65.3491 97.3355C65.1877 97.5097 65.0715 97.7421 65.0004 98.0391C64.9294 98.3295 64.8971 98.691 64.8971 99.1171V104.694H62.8953V98.6136C62.8953 98.1294 62.8243 97.7486 62.6887 97.4839C62.5531 97.2128 62.3335 97.0837 62.0365 97.0837C61.7717 97.0837 61.5586 97.1741 61.3907 97.3484C61.2228 97.5227 61.1001 97.7615 61.0291 98.0713C60.9516 98.3747 60.9193 98.7298 60.9193 99.13V104.707H58.8982L58.8853 104.681Z" fill="white"/>
<path d="M74.0085 105.023C73.4338 105.023 72.9043 104.907 72.42 104.675C71.9357 104.442 71.5482 104.113 71.2577 103.681C70.9735 103.248 70.825 102.751 70.825 102.177C70.825 101.215 71.1414 100.511 71.7807 100.053C72.42 99.5947 73.3047 99.3042 74.4412 99.1622L75.9005 98.975C76.1395 98.9363 76.3332 98.8847 76.4817 98.8072C76.6302 98.7298 76.74 98.6394 76.7981 98.5232C76.8627 98.4135 76.895 98.2714 76.895 98.1101C76.895 97.7744 76.7594 97.4968 76.4817 97.2774C76.204 97.0579 75.8166 96.9482 75.3 96.9482C74.7253 96.9482 74.2733 97.0837 73.931 97.3613C73.5952 97.6389 73.408 98.0132 73.3692 98.5038H71.0123C71.0639 97.8648 71.2641 97.3032 71.6128 96.8126C71.9615 96.322 72.4458 95.9347 73.0657 95.6636C73.6857 95.386 74.396 95.2505 75.2096 95.2505C76.1459 95.2505 76.9079 95.4054 77.502 95.7153C78.0961 96.0251 78.5223 96.4769 78.7935 97.0643C79.0647 97.6518 79.1938 98.3812 79.1938 99.2526V104.681H77.0629V104.307C77.0629 104.158 77.0693 104.01 77.0887 103.868C77.1081 103.726 77.1275 103.577 77.1533 103.429C76.9014 103.913 76.5205 104.3 76.0039 104.591C75.4873 104.875 74.8222 105.023 74.0085 105.023ZM74.6607 103.339C75.0998 103.339 75.4937 103.248 75.8424 103.061C76.1911 102.874 76.4688 102.616 76.669 102.286C76.8692 101.957 76.966 101.576 76.966 101.157V100.163C76.8885 100.24 76.7658 100.305 76.5915 100.369C76.4171 100.434 76.1976 100.486 75.9393 100.537L74.9642 100.705C74.3637 100.808 73.9117 100.963 73.6082 101.17C73.3047 101.383 73.1497 101.693 73.1497 102.106C73.1497 102.493 73.2917 102.796 73.5694 103.016C73.8471 103.235 74.2152 103.345 74.6672 103.345L74.6607 103.339Z" fill="white"/>
<path d="M10.8872 91.6162H10.8162C10.1029 91.6162 9.52469 92.1928 9.52469 92.904C9.52469 93.6152 10.1029 94.1918 10.8162 94.1918H10.8872C11.6005 94.1918 12.1787 93.6152 12.1787 92.904C12.1787 92.1928 11.6005 91.6162 10.8872 91.6162Z" fill="white"/>
<path d="M12.1787 102.887V97.3548C12.1787 96.3479 11.3586 95.5281 10.3512 95.5281H6.51553V97.3548H9.88631V102.887H5.7471V104.714H15.7367V102.887H12.1787Z" fill="white"/>
<path d="M36.859 93.3593V91.5454H32.8683C31.8157 91.5454 30.9633 92.3975 30.9633 93.4496V95.5346H27.9929V97.3614H30.9633V104.714H33.2622V97.3614H36.7104V95.5346H33.2622V93.3657H36.859V93.3593Z" fill="white"/>
<path d="M1.82745 92.9073V89.0343H5.66316V87.2075H1.82745H0V89.0343V92.9073H1.82745Z" fill="white"/>
<path d="M294 98.762C294 85.928 283.592 75.5239 270.753 75.5239C257.915 75.5239 247.507 85.928 247.507 98.762C247.507 111.596 257.915 122 270.753 122C283.592 122 294 111.596 294 98.762Z" fill="white"/>
<path d="M269.417 87.6917H279.367V88.2791C279.367 90.4673 277.585 92.2489 275.396 92.2489H265.445V91.6615C265.445 89.4732 267.227 87.6917 269.417 87.6917Z" fill="black"/>
<path d="M263.095 98.1488L264.8 94.3597C264.8 94.3597 279.361 92.4619 279.361 101.944C279.361 111.427 262.146 109.148 262.146 109.148L263.786 105.546C263.786 105.546 274.718 106.011 274.718 101.802C274.718 97.5936 263.088 98.1617 263.088 98.1617L263.095 98.1488Z" fill="black"/>
<path d="M267.279 104.552C268.802 104.552 270.036 103.318 270.036 101.796C270.036 100.274 268.802 99.0396 267.279 99.0396C265.756 99.0396 264.522 100.274 264.522 101.796C264.522 103.318 265.756 104.552 267.279 104.552Z" fill="black"/>
<path d="M241.695 87.1428H156.915V110.381H241.695V87.1428Z" fill="white"/>
<path d="M239.874 104.681V108.554H236.032V110.381H239.874H241.695V108.554V104.681H239.874Z" fill="black"/>
<path d="M174.46 104.681V95.5474H176.746V96.1865C176.746 96.2639 176.746 96.3414 176.727 96.4318C176.714 96.4963 176.707 96.5609 176.701 96.6383C176.701 96.7158 176.688 96.7868 176.675 96.8642C176.946 96.3672 177.321 95.9735 177.786 95.683C178.251 95.399 178.851 95.2505 179.574 95.2505C180.259 95.2505 180.853 95.4054 181.35 95.7088C181.847 96.0122 182.228 96.4447 182.493 97.0063C182.758 97.5678 182.887 98.2198 182.887 98.9686V104.675H180.582V99.3042C180.582 98.6071 180.427 98.0584 180.117 97.6582C179.807 97.258 179.361 97.0579 178.787 97.0579C178.386 97.0579 178.038 97.1547 177.728 97.3548C177.424 97.5549 177.179 97.8325 177.004 98.1875C176.83 98.5426 176.74 98.9363 176.74 99.3559V104.668H174.454L174.46 104.681Z" fill="black"/>
<path d="M199.773 105.023C198.85 105.023 198.03 104.83 197.32 104.436C196.609 104.042 196.054 103.481 195.66 102.751C195.266 102.022 195.072 101.157 195.072 100.156C195.072 99.1557 195.273 98.3101 195.673 97.5677C196.073 96.8254 196.629 96.2574 197.339 95.8571C198.049 95.4569 198.863 95.2568 199.773 95.2568C200.684 95.2568 201.497 95.4569 202.208 95.8571C202.918 96.2574 203.473 96.8254 203.874 97.5677C204.274 98.3101 204.474 99.175 204.474 100.156C204.474 101.137 204.274 102.015 203.874 102.751C203.473 103.487 202.918 104.042 202.208 104.436C201.497 104.83 200.684 105.023 199.773 105.023ZM199.773 103.229C200.245 103.229 200.664 103.106 201.02 102.861C201.375 102.616 201.652 102.267 201.853 101.802C202.053 101.344 202.15 100.789 202.15 100.156C202.15 99.1815 201.93 98.4262 201.497 97.884C201.058 97.3418 200.484 97.0707 199.773 97.0707C199.302 97.0707 198.882 97.1933 198.527 97.4386C198.172 97.6839 197.894 98.0325 197.694 98.4973C197.494 98.962 197.397 99.5171 197.397 100.163C197.397 101.124 197.61 101.873 198.043 102.415C198.475 102.958 199.05 103.229 199.773 103.229Z" fill="black"/>
<path d="M206.534 104.681V95.5473H208.82V97.103C208.807 97.1933 208.801 97.2773 208.794 97.3676C208.788 97.458 208.781 97.5484 208.768 97.6516C209.104 96.9545 209.602 96.38 210.254 95.9282C210.906 95.4763 211.726 95.2568 212.695 95.2568C213.005 95.2568 213.386 95.2827 213.838 95.3343V97.5225C213.437 97.4709 213.037 97.4451 212.637 97.4451C211.887 97.4451 211.229 97.5613 210.661 97.7937C210.092 98.026 209.64 98.3875 209.311 98.8781C208.982 99.3687 208.814 99.9948 208.814 100.757V104.688H206.528L206.534 104.681Z" fill="black"/>
<path d="M215.801 104.681V95.5474H217.822V96.3349C217.822 96.3995 217.815 96.4576 217.802 96.5221C217.802 96.5867 217.802 96.6448 217.796 96.7029C217.79 96.761 217.783 96.8126 217.77 96.8642C217.957 96.3414 218.203 95.9412 218.506 95.6701C218.81 95.3925 219.191 95.2569 219.636 95.2569C220.063 95.2569 220.437 95.3925 220.766 95.6572C221.096 95.9283 221.328 96.3349 221.47 96.8836C221.658 96.3737 221.916 95.9735 222.239 95.683C222.562 95.399 222.994 95.2505 223.53 95.2505C223.982 95.2505 224.376 95.3731 224.731 95.6249C225.08 95.8766 225.351 96.2252 225.538 96.6706C225.726 97.1224 225.816 97.6324 225.816 98.2069V104.681H223.795V98.6006C223.795 98.1165 223.724 97.7357 223.588 97.471C223.453 97.1999 223.233 97.0708 222.936 97.0708C222.639 97.0708 222.426 97.1612 222.265 97.3355C222.103 97.5097 221.987 97.7421 221.916 98.0391C221.845 98.3295 221.813 98.691 221.813 99.1171V104.694H219.811V98.6136C219.811 98.1294 219.74 97.7486 219.604 97.4839C219.468 97.2128 219.249 97.0837 218.952 97.0837C218.687 97.0837 218.474 97.1741 218.306 97.3484C218.138 97.5227 218.016 97.7615 217.945 98.0713C217.867 98.3747 217.835 98.7298 217.835 99.13V104.707H215.814L215.801 104.681Z" fill="black"/>
<path d="M230.924 105.023C230.349 105.023 229.82 104.907 229.335 104.675C228.851 104.442 228.464 104.113 228.173 103.681C227.889 103.248 227.74 102.751 227.74 102.177C227.74 101.215 228.057 100.511 228.696 100.053C229.335 99.5947 230.22 99.3042 231.357 99.1622L232.816 98.975C233.055 98.9363 233.249 98.8847 233.397 98.8072C233.546 98.7298 233.655 98.6394 233.714 98.5232C233.778 98.4135 233.81 98.2714 233.81 98.1101C233.81 97.7744 233.675 97.4968 233.397 97.2774C233.119 97.0579 232.732 96.9482 232.215 96.9482C231.641 96.9482 231.189 97.0837 230.846 97.3613C230.511 97.6389 230.323 98.0132 230.285 98.5038H227.928C227.979 97.8648 228.18 97.3032 228.528 96.8126C228.877 96.322 229.361 95.9347 229.981 95.6636C230.601 95.386 231.311 95.2505 232.125 95.2505C233.061 95.2505 233.823 95.4054 234.417 95.7153C235.011 96.0251 235.438 96.4769 235.709 97.0643C235.98 97.6518 236.109 98.3812 236.109 99.2526V104.681H233.978V104.307C233.978 104.158 233.985 104.01 234.004 103.868C234.023 103.726 234.043 103.577 234.069 103.429C233.817 103.913 233.436 104.3 232.919 104.591C232.403 104.875 231.738 105.023 230.924 105.023ZM231.576 103.339C232.015 103.339 232.409 103.248 232.758 103.061C233.107 102.874 233.384 102.616 233.584 102.286C233.785 101.957 233.881 101.576 233.881 101.157V100.163C233.804 100.24 233.681 100.305 233.507 100.369C233.333 100.434 233.113 100.486 232.855 100.537L231.88 100.705C231.279 100.808 230.827 100.963 230.524 101.17C230.22 101.383 230.065 101.693 230.065 102.106C230.065 102.493 230.207 102.796 230.485 103.016C230.762 103.235 231.131 103.345 231.583 103.345L231.576 103.339Z" fill="black"/>
<path d="M167.803 91.6162H167.732C167.018 91.6162 166.44 92.1928 166.44 92.904C166.44 93.6152 167.018 94.1918 167.732 94.1918H167.803C168.516 94.1918 169.094 93.6152 169.094 92.904C169.094 92.1928 168.516 91.6162 167.803 91.6162Z" fill="black"/>
<path d="M169.094 102.887V97.3548C169.094 96.3479 168.274 95.5281 167.267 95.5281H163.431V97.3548H166.802V102.887H162.662V104.714H172.652V102.887H169.094Z" fill="black"/>
<path d="M193.774 93.3593V91.5454H189.784C188.731 91.5454 187.879 92.3975 187.879 93.4496V95.5346H184.908V97.3614H187.879V104.714H190.178V97.3614H193.626V95.5346H190.178V93.3657H193.774V93.3593Z" fill="black"/>
<path d="M158.743 92.9073V89.0343H162.579V87.2075H158.743H156.915V89.0343V92.9073H158.743Z" fill="black"/>
</g>
<defs>
<clipPath id="clip0_23_51">
<rect width="294" height="122" fill="white"/>
</clipPath>
</defs>
</svg>
