<svg width="86" height="94" viewBox="0 0 86 94" fill="none" xmlns="http://www.w3.org/2000/svg">
<g clip-path="url(#clip0_23_130)">
<path d="M78.41 70.1899V85.7499H63V93.0799H78.41H85.74V85.7499V70.1899H78.41Z" fill="#2063F3"/>
<path d="M43.54 17.71H43.25C40.3892 17.71 38.07 20.0269 38.07 22.885C38.07 25.743 40.3892 28.06 43.25 28.06H43.54C46.4008 28.06 48.72 25.743 48.72 22.885C48.72 20.0269 46.4008 17.71 43.54 17.71Z" fill="#2063F3"/>
<path d="M48.72 62.9599V40.7499C48.72 36.6999 45.44 33.4199 41.39 33.4199H25.98V40.7499H39.5V62.9599H22.88V70.2899H63V62.9599H48.72Z" fill="#2063F3"/>
<path d="M7.33 22.88V7.33H22.74V0H7.33H0V7.33V22.88H7.33Z" fill="#2063F3"/>
</g>
<defs>
<clipPath id="clip0_23_130">
<rect width="85.74" height="93.08" fill="white"/>
</clipPath>
</defs>
</svg>
