<svg width="306" height="172" viewBox="0 0 306 172" fill="none" xmlns="http://www.w3.org/2000/svg">
<g clip-path="url(#clip0_23_279)">
<path opacity="0.2" d="M305.545 0H0V14.413H305.545V0Z" fill="#FF0000"/>
<path opacity="0.2" d="M305.545 14.4131H0V28.7464H305.545V14.4131Z" fill="#0000FF"/>
<path opacity="0.2" d="M305.545 43.0796H0V57.4129H305.545V43.0796Z" fill="#0000FF"/>
<path opacity="0.2" d="M305.545 71.7461H0V86.0794H305.545V71.7461Z" fill="#0000FF"/>
<path opacity="0.2" d="M305.545 100.413H0V114.746H305.545V100.413Z" fill="#0000FF"/>
<path opacity="0.2" d="M305.545 129.08H0V143.413H305.545V129.08Z" fill="#0000FF"/>
<path opacity="0.2" d="M305.545 157.667H0V172H305.545V157.667Z" fill="#FF0000"/>
<path opacity="0.2" d="M25.4621 0H0V172H25.4621V0Z" fill="#FF0000"/>
<path opacity="0.2" d="M50.9241 14.3335H25.4621V157.667H50.9241V14.3335Z" fill="#1B1464"/>
<path opacity="0.2" d="M101.848 14.3335H76.3862V157.667H101.848V14.3335Z" fill="#1B1464"/>
<path opacity="0.2" d="M152.772 14.3335H127.31V157.667H152.772V14.3335Z" fill="#1B1464"/>
<path opacity="0.2" d="M203.696 14.3335H178.234V157.667H203.696V14.3335Z" fill="#1B1464"/>
<path opacity="0.2" d="M254.621 14.3335H229.159V157.667H254.621V14.3335Z" fill="#1B1464"/>
<path opacity="0.2" d="M305.545 0H280.083V172H305.545V0Z" fill="#FF0000"/>
</g>
<defs>
<clipPath id="clip0_23_279">
<rect width="305.545" height="172" fill="white"/>
</clipPath>
</defs>
</svg>
