<svg width="251" height="114" viewBox="0 0 251 114" fill="none" xmlns="http://www.w3.org/2000/svg">
<g clip-path="url(#clip0_26_132)">
<path d="M192.514 60.6388V59.4254H193.733V58.212H194.952V54.5732H193.733V53.3598H192.514V52.1464H191.295V48.5076H193.732V49.721H194.951V48.5076H199.824V47.2942H201.044V43.6554H202.263V42.442H201.044V40.0166H199.824V38.8032H198.605V36.3778H199.824V35.1644H196.169V32.739H198.605V33.9524H199.824V32.739H201.044V35.1644H203.48V37.5898H205.917V35.1644H204.698V33.951H203.479V30.3122H207.135V24.248H205.916V23.0346H204.696V20.6092H199.823V16.9704H208.352V14.5451H210.789V15.7585H212.008V13.3331H213.227V18.1838H212.008V19.3973H213.227V20.6107H214.446V21.8241H215.665V23.0375H218.102V21.8241H216.883V20.6107H218.102V19.3973H216.883V18.1838H215.664V16.9704H214.445V15.757H219.318V14.5436H221.755V13.3302H218.099V12.1168H224.192V10.9034H220.536V9.68997H215.662V8.47656H209.57V9.68997H208.351V8.47656H201.041V7.26315H193.73V6.04974H188.857V7.26315H182.764V6.04974H168.143V4.83633H170.579V3.62292H163.269V1.21341H155.959V2.42682H162.052V3.64023H159.615V4.85364H157.178V6.06705H152.305V10.9178H151.086V6.06417H147.43V8.48955H149.867V9.70296H146.211V8.48955H143.774V9.70296H137.681V10.9164H136.462V9.70296H135.243V10.9164H134.024V12.1298H131.587V13.3432H129.151V12.1298H127.932V10.9164H132.805V9.70296H130.368V8.48955H126.713V7.27613H120.62V8.48955H118.183V9.70296H116.964V10.9164H115.745V12.1298H114.526V13.3432H112.089V16.982H115.745V19.4074H118.182V18.1939H119.401V16.9805H120.62V15.7671H119.401V13.3417H120.62V12.1283H121.839V10.9149H123.058V13.3403H121.839V15.7657H126.713V16.9791H123.057V18.1925H121.838V20.6179H114.527V18.1925H113.308V20.6179H112.089V21.8313H110.87V23.0447H108.434V24.2581H107.214V25.4715H103.559V26.6849H105.995V29.1103H99.9028V35.1745H102.34V36.3879H103.559V35.1745H105.995V32.7491H107.214V31.5357H108.434V30.3223H112.089V29.1089H114.526V30.3223H115.745V31.5357H116.964V32.7491H118.183V35.1745H119.402V32.7491H120.621V31.5357H118.185V30.3223H116.966V29.1089H115.747V27.8955H118.183V29.1089H119.402V30.3223H121.839V33.9611H123.058V35.1745H124.277V32.7491H125.496V31.5357H127.933V27.8969H129.152V26.6835H131.589V29.1089H132.808V26.6835H135.245V29.1089H136.464V30.3223H137.683V32.7477H135.246V31.5342H130.373V32.7477H126.717V33.9611H127.936V35.1745H134.029V41.2386H127.936V40.0252H124.28V38.8118H123.061V41.2372H118.188V38.8118H114.532V35.173H113.313V36.3864H106.003V38.8118H103.566V37.5984H102.347V38.8118H99.91V40.0252H98.691V42.4506H97.4719V43.664H95.0351V46.0894H93.8161V48.5148H92.597V50.9402H93.8161V53.3655H92.597V58.2163H95.0337V60.6417H96.2528V63.0671H98.6895V64.2805H101.126V63.0671H107.219V61.8536H110.875V64.279H114.53V67.9178H113.311V70.3432H114.53V71.5566H115.749V73.982H116.969V80.0461H115.749V84.8969H116.969V87.3223H118.188V93.3864H119.407V94.5999H120.626V98.2386H127.936V97.0252H129.155V95.8118H130.374V94.5984H131.593V93.385H132.812V89.7462H134.031V86.1074H135.251V83.682H136.47V82.4686H138.906V76.4045H137.687V71.5537H138.906V70.3403H140.125V69.1269H141.345V67.9135H142.564V66.7001H143.783V65.4867H145.002V64.2732H146.221V61.8479H147.44V58.2091H143.784V59.4225H141.347V58.2091H140.128V55.7837H138.909V54.5703H137.69V52.1449H136.471V50.9315H135.252V47.2927H134.033V44.8673H132.814V43.6539H131.595V42.4405H135.251V44.8659H136.47V47.2913H137.689V49.7166H138.908V50.9301H140.127V53.3554H141.346V56.9942H143.783V55.7808H146.219V54.5674H148.656V53.354H149.875V52.1406H152.312V50.9272H153.531V49.7138H154.75V48.5004H153.531V47.2869H151.094V46.0735H149.875V47.2869H147.438V46.0735H146.219V44.8601H145V41.2213H146.219V42.4347H147.438V43.6482H148.658V44.8616H149.877V43.6482H151.096V44.8616H152.315V46.075H159.625V47.2884H162.062V49.7138H163.281V48.5004H164.5V52.1391H165.719V55.7779H166.938V58.2033H168.157V60.6287H170.594V54.5645H171.813V53.3511H173.032V52.1377H174.251V50.9243H175.47V48.4989H180.344V50.9243H181.563V52.1377H182.782V54.5631H184.001V53.3497H185.22V55.775H186.439V61.8392H187.658V64.2646H188.877V65.478H190.096V66.6914H191.315V63.0526H190.096V61.8392H188.877V60.6258H187.658V56.987H188.877V58.2004H191.314V60.6258H192.533L192.514 60.6388ZM147.431 36.3836H144.995V35.1702H143.775V31.5314H142.556V30.318H141.337V27.8926H142.556V26.6792H146.212V29.1045H144.993V30.318H147.43V36.3821L147.431 36.3836ZM102.348 19.4045H103.567V21.8298H102.348V23.0433H101.129V20.6179H102.348V19.4045ZM107.222 23.0433V24.2567H103.566V23.0433H104.785V21.8298H106.004V20.6164H104.785V19.403H103.566V18.1896H106.003V19.403H107.222V21.8284H108.441V23.0418H107.222V23.0433ZM116.969 35.1716H118.188V36.385H116.969V35.1716ZM113.313 30.3208H114.532V31.5342H113.313V30.3208ZM114.532 33.9596H113.313V32.7462H114.532V33.9596ZM109.658 32.7462V33.9596H108.439V32.7462H109.658ZM144.993 78.8313H146.212V86.1074H144.993V89.7462H143.774V90.9596H141.337V86.1089H142.556V82.4701H143.775V81.2567H144.995V78.8313H144.993ZM126.717 36.385V37.5984H124.28V36.385H126.717ZM132.809 36.385V37.5984H131.59V36.385H132.809ZM93.819 41.2358H95.038V42.4492H93.819V41.2358ZM171.8 59.4268H173.019V63.0656H171.8V59.4268ZM193.732 50.9373H194.951V52.1507H193.732V50.9373ZM116.97 2.42538H114.533V1.21341H123.063V2.42682H121.843V3.64023H120.624V2.42682H119.405V3.64023H118.186V4.85364H116.967V2.42538H116.97ZM141.339 7.27613H138.902V6.06272H140.121V4.84931H141.34V3.6359H146.214V4.84931H142.558V6.06272H141.339V7.27613ZM104.785 8.48955H103.566V7.27613H104.785V8.48955ZM104.785 14.5537H103.566V13.3403H104.785V14.5537ZM207.135 38.8089H208.354V40.0224H207.135V38.8089ZM212.008 38.8089H210.789V37.5955H208.352V36.3821H212.008V32.7433H213.227V33.9567H214.446V37.5955H212.01V38.8089H212.008ZM202.261 46.0851H203.48V48.5105H202.261V46.0851ZM143.777 7.27613V8.48955H142.558V7.27613H143.777ZM210.792 29.106H213.229V31.5314H210.792V29.106ZM208.355 20.6164V21.8298H209.574V23.0433H210.793V25.4686H212.012V26.682H209.576V24.2567H208.357V23.0433H207.137V20.6179H208.357L208.355 20.6164ZM98.6953 13.3403H93.8219V12.1269H95.0409V10.9135H99.9144V12.1269H98.6953V13.3403ZM151.089 86.106H152.308V87.3194H151.089V86.106ZM68.2326 24.2552V25.4686H69.4517V26.682H64.5783V25.4686H65.7974V24.2552H68.2341H68.2326ZM51.1741 8.48955H49.955V7.27613H51.1741V8.48955ZM53.6108 6.06417H51.1741V4.85076H53.6108V6.06417ZM57.2666 6.06417H54.8299V4.85076H57.2666V6.06417ZM40.2081 6.06417H37.7714V4.85076H38.9905V3.63735H43.8639V4.85076H40.2081V6.06417ZM41.4272 6.06417H45.083V4.85076H48.7388V8.48955H41.4287V6.06417H41.4272ZM54.8299 13.3403V12.1269H57.2666V13.3403H54.8299ZM17.0585 24.2552H18.2776V25.4686H17.0585V24.2552ZM15.8394 18.1911H17.0585V19.4045H15.8394V18.1911ZM63.3592 1.21341H60.9225V0H63.3592V1.21341ZM64.5783 4.8522H58.4857V3.63879H64.5783V4.8522ZM45.083 46.0865H43.8639V44.8731H45.083V46.0865ZM38.9905 59.4268V54.5761H35.3347V52.1507H36.5538V49.7253H34.117V50.9387H32.898V52.1521H29.2421V49.7267H28.0231V47.3014H29.2421V43.6626H30.4612V42.4492H32.898V41.2358H35.3347V42.4492H36.5538V41.2358H41.4272V46.0865H42.6463V40.0224H43.8654V38.8089H46.3021V37.5955H47.5212V36.3821H48.7403V33.9567H49.9594V32.7433H51.1785V31.5299H54.8343V29.1045H57.271V27.8911H59.7077V29.1045H62.1444V27.8911H60.9254V25.4658H57.2695V24.2523H64.5797V23.0389H68.2355V20.6136H65.7988V15.7628H64.5797V16.9762H62.143V14.5508H57.2695V16.9762H56.0505V19.4016H54.8314V20.615H53.6123V21.8284H52.3932V23.0418H51.1741V19.403H47.5183V18.1896H45.0816V15.7642H47.5183V14.5508H49.955V13.3374H53.6108V10.912H58.4843V9.69863H59.7034V8.48522H57.2666V9.69863H54.8299V7.27325H52.3932V9.69863H51.1741V10.912H49.955V9.69863H43.8625V10.912H42.6434V9.69863H37.77V8.48522H24.3672V7.27181H14.6218V8.48522H9.74835V10.9106H4.87345V12.124H8.52926V13.3374H3.65581V14.5508H2.43672V15.7642H1.21909V18.1896H0V19.403H2.43672V18.1896H4.87345V16.9762H7.31017V15.7628H17.0585V16.9762H19.4952V20.615H18.2762V23.0404H19.4952V26.6792H17.0585V29.1045H15.8394V30.318H14.6203V32.7433H13.4013V37.5941H15.838V46.0836H17.0571V47.297H18.2762V44.8717H17.0571V40.0209H18.2762V43.6597H19.4952V46.0851H20.7143V47.2985H21.9334V50.9373H23.1525V52.1507H25.5892V53.3641H28.026V54.5775H29.245V53.3641H31.6818V55.7895H35.3376V57.0029H36.5567V59.4283H37.7757V60.6417H41.4316V59.4283H38.9948L38.9905 59.4268ZM47.5197 32.7462H45.083V31.5328H47.5197V32.7462ZM41.4272 30.3208H42.6463V27.8955H45.083V26.682H41.4272V25.4686H46.3007V27.894H48.7374V29.1074H49.9565V30.3208H48.7374V29.1074H47.5183V30.3208H45.0816V29.1074H43.8625V31.5328H41.4258V30.3194L41.4272 30.3208ZM75.5443 72.7671H77.981V76.4059H76.7619V77.6193H75.5428V78.8327H74.3237V87.3223H73.1046V88.5357H69.4488V89.7491H68.2297V93.3879H67.0106V95.8133H65.7916V98.2386H60.9181V99.4521H63.3548V101.877H59.699V104.303H58.4799V109.154H59.699V111.579H58.4799V114.004H56.0432V112.791H54.8241V110.366H53.605V109.152H52.3859V107.939H53.605V105.513H52.3859V104.3H51.1669V95.8104H49.9478V83.682H48.7287V82.4686H46.292V81.2552H45.0729V80.0418H43.8538V77.6164H42.6347V75.1911H41.4156V73.9776H40.1965V71.5523H41.4156V70.3389H40.1965V67.9135H41.4156V66.7001H42.6347V65.4867H43.8538V61.8479H41.4171V60.6345H43.8538V59.421H45.0729V58.2076H46.292V56.9942H47.5111V60.633H48.7301V58.2076H52.3859V59.421H57.2594V60.6345H58.4785V61.8479H59.6976V63.0613H63.3534V64.2747H64.5725V66.7001H63.3534V70.3389H64.5725V67.9135H65.7916V70.3389H67.0106V69.1255H69.4474V70.3389H74.3208V71.5523H75.5399V72.7657L75.5443 72.7671ZM64.5783 112.788H65.7974V114.001H64.5783V112.788ZM63.3592 7.27758H58.4857V6.06417H64.5783V7.27758H67.015V8.49099H68.2341V9.7044H69.4532V10.9178H67.0164V13.3432H65.7974V14.5566H64.5783V13.3432H59.7048V12.1298H62.1415V10.9164H65.7974V9.70296H64.5783V8.48955H63.3592V7.27613V7.27758ZM68.2326 3.63879H64.5768V2.42538H65.7959V1.21341H69.4517V0H76.7619V1.21341H70.6693V2.42682H68.2326V3.64023V3.63879ZM93.8204 9.70296H87.7279V10.9164H82.8544V12.1298H81.6353V14.5552H80.4163V15.7686H77.9795V14.5552H76.7604V9.7044H77.9795V8.49099H79.1986V7.27758H77.9795V4.8522H76.7604V3.63879H71.887V2.42538H77.9795V1.21341H79.1986V0H102.35V1.21341H98.6939V3.63879H97.4748V4.8522H92.6013V6.06561H95.038V7.27902H92.6013V8.49243H93.8204V9.70584V9.70296ZM43.8639 50.9358V49.7224H41.4272V48.509H38.9905V47.2956H42.6463V48.509H45.083V49.7224H46.3021V50.9358H43.8654H43.8639ZM47.5197 50.9358H51.1756V52.1492H47.5197V50.9358ZM52.3932 52.1492V50.9358H53.6123V52.1492H52.3932ZM42.6463 53.3627V52.1492H43.8654V53.3627H42.6463ZM203.48 59.4268H202.261V58.2134H203.48V59.4268ZM202.261 60.6402H201.042V59.4268H202.261V60.6402ZM204.698 52.1507V55.7895H207.135V57.0029H203.479V52.1521H204.698V52.1507ZM207.135 58.2149V57.0014H208.354V58.2149H207.135ZM204.698 59.4283V58.2149H205.917V59.4283H204.698ZM209.571 61.8536H208.352V63.0671H207.133V61.8536H205.914V60.6402H207.133V59.4268H209.57V61.8522L209.571 61.8536ZM210.79 67.9178H209.571V65.4924H210.79V67.9178ZM214.446 104.301H216.883V105.515H215.664V106.728H214.445V104.303L214.446 104.301ZM201.044 75.1954H202.263V76.4088H201.044V75.1954ZM205.917 76.4088H203.48V75.1954H205.917V76.4088ZM208.354 77.6222H207.135V75.1968H209.571V76.4102H208.352V77.6236L208.354 77.6222ZM233.941 104.303H236.378V105.516H235.159V106.73H233.94V107.943H231.503V109.156H229.067V107.943H230.286V106.73H232.722V105.516H233.941V104.303ZM240.034 99.4521H241.253V103.091H240.034V104.304H237.597V103.091H238.816V101.877H240.035V99.4521H240.034ZM248.563 83.6864H249.782V84.8998H248.563V83.6864ZM251 82.473V83.6864H249.781V82.473H251ZM240.034 81.2596H241.253V82.473H240.034V81.2596ZM237.597 86.1103H236.378V84.8969H238.815V86.1103H240.034V88.5357H238.815V87.3223H237.596V86.1089L237.597 86.1103ZM204.699 67.9193V69.1327H205.918V71.558H204.699V72.7715H203.48V66.7073H208.354V67.9207H204.698L204.699 67.9193ZM212.01 71.558H210.79V70.3446H212.01V71.558ZM190.078 70.3446H191.297V72.77H188.86V71.5566H187.641V69.1312H186.422V67.9178H185.203V65.4924H183.984V64.279H182.764V63.0656H185.201V64.279H186.42V66.7044H188.857V69.1298H190.076V70.3432L190.078 70.3446ZM198.607 75.1954H192.514V73.982H198.607V75.1954ZM198.607 76.4088V75.1954H199.826V76.4088H198.607ZM202.263 69.1327H201.044V71.558H197.388V70.3446H196.169V69.1312H194.95V66.7058H197.386V65.4924H198.605V64.279H199.824V63.0656H202.261V69.1298L202.263 69.1327ZM225.414 72.7715V73.9849H226.633V76.4102H229.069V77.6236H225.414V75.1983H222.977V76.4117H220.54V75.1983H218.103V72.7729H214.448V70.3475H213.229V69.1341H215.665V71.5595H216.884V70.3461H221.758V71.5595H224.195V72.7729H225.414V72.7715ZM230.287 73.9849H227.85V72.7715H229.069V71.558H230.289V73.9834L230.287 73.9849ZM232.724 73.9849H231.505V72.7715H232.724V73.9849ZM232.724 75.1983V73.9849H233.943V75.1983H232.724ZM233.943 76.4117V75.1983H235.162V76.4117H233.943ZM235.162 77.6251V76.4117H236.381V77.6251H235.162ZM226.633 89.7534H227.852V93.3922H226.633V95.8176H225.414V97.031H224.195V98.2444H222.975V99.4578H221.756V100.671H220.537V101.885H218.101V103.098H216.882V101.885H213.226V97.0339H212.007V98.2473H210.788V97.0339H209.568V95.8205H204.695V97.0339H202.258V98.2473H198.602V99.4607H194.947V98.2473H196.166V88.5458H197.385V87.3324H199.822V86.119H204.695V83.6936H205.914V82.4802H207.133V81.2668H209.57V82.4802H210.789V80.0548H212.008V78.8414H216.882V80.0548H215.662V82.4802H216.882V83.6936H220.537V77.6294H221.756V80.0548H222.975V84.9056H224.195V86.119H225.414V88.5443H226.633V89.7578V89.7534Z" fill="#2063F3"/>
</g>
<defs>
<clipPath id="clip0_26_132">
<rect width="251" height="114" fill="white"/>
</clipPath>
</defs>
</svg>
