<svg width="283" height="159" viewBox="0 0 283 159" fill="none" xmlns="http://www.w3.org/2000/svg">
<g clip-path="url(#clip0_26_135)">
<path d="M283 0.0603027H0V158.918H283V0.0603027Z" fill="#2063F3"/>
<path d="M283 105.892H0V106.186H283V105.892Z" fill="white"/>
<path d="M283 52.9392H94.3333V53.2334H283V52.9392Z" fill="white"/>
<path d="M188.814 106.039H188.519V158.954H188.814V106.039Z" fill="white"/>
<path d="M94.4807 0.0603027H94.1859V106.039H94.4807V0.0603027Z" fill="white"/>
<path d="M188.667 132.349H184.982V132.643H188.667V132.349Z" fill="white"/>
<path d="M177.73 132.643H170.478V132.349H177.73V132.643ZM163.226 132.643H155.974V132.349H163.226V132.643ZM148.722 132.643H141.471V132.349H148.722V132.643ZM134.219 132.643H126.967V132.349H134.219V132.643ZM119.715 132.643H112.463V132.349H119.715V132.643ZM105.211 132.643H97.9593V132.349H105.211V132.643ZM90.7074 132.643H83.4555V132.349H90.7074V132.643ZM76.2036 132.643H68.9518V132.349H76.2036V132.643ZM61.6999 132.643H54.448V132.349H61.6999V132.643ZM47.1961 132.643H39.9443V132.349H47.1961V132.643ZM32.6924 132.643H25.4405V132.349H32.6924V132.643ZM18.1886 132.643H10.9368V132.349H18.1886V132.643Z" fill="white"/>
<path d="M3.6849 132.349H0V132.643H3.6849V132.349Z" fill="white"/>
<path d="M230.135 53.0495H229.84C229.84 45.8877 231.246 38.9406 234.017 32.401C236.696 26.0835 240.528 20.4102 245.41 15.5386C250.291 10.667 255.976 6.84116 262.307 4.17C268.86 1.40323 275.823 0.00146484 282.999 0.00146484V0.294174C253.85 0.294174 230.134 23.9595 230.134 53.0495H230.135Z" fill="white"/>
<path d="M41.4683 105.952H41.1736C41.1736 103.493 41.3445 101.02 41.6791 98.6033L41.971 98.6445C41.6379 101.048 41.4683 103.507 41.4683 105.953V105.952ZM43.4832 91.4753L43.2002 91.3944C43.8724 89.038 44.7184 86.7052 45.7163 84.4635L45.986 84.5827C44.9955 86.8125 44.1539 89.1322 43.4847 91.4753H43.4832ZM49.4233 78.1063L49.1727 77.9504C50.4698 75.872 51.9261 73.8627 53.5003 71.98L53.7273 72.1683C52.1604 74.0407 50.713 76.0382 49.4233 78.1063ZM58.8095 66.8818L58.612 66.6641C60.4293 65.0167 62.3794 63.4826 64.4061 62.1014L64.5726 62.3441C62.5577 63.7165 60.618 65.2433 58.8109 66.8818H58.8095ZM70.9048 58.6477L70.7736 58.3844C72.9742 57.2974 75.2721 56.3546 77.6024 55.5838L77.6953 55.8633C75.3782 56.6297 73.0936 57.5666 70.9048 58.6477ZM84.8086 54.0512L84.7556 53.7614C87.164 53.3245 89.6314 53.051 92.0929 52.9495L92.1047 53.2436C89.6579 53.3451 87.2038 53.6173 84.8086 54.0512Z" fill="white"/>
<path d="M94.3333 159C87.1566 159 80.1951 157.597 73.6419 154.831C67.3112 152.159 61.6262 148.334 56.7444 143.463C51.8627 138.591 48.0289 132.918 45.3522 126.6C42.5797 120.061 41.175 113.112 41.175 105.952H41.4698C41.4698 135.04 65.1843 158.707 94.3348 158.707C123.485 158.707 147.2 135.042 147.2 105.952H147.495C147.495 113.114 146.088 120.061 143.317 126.6C140.639 132.918 136.807 138.591 131.925 143.463C127.043 148.334 121.358 152.16 115.028 154.831C108.474 157.598 101.512 159 94.3363 159H94.3333Z" fill="white"/>
</g>
<defs>
<clipPath id="clip0_26_135">
<rect width="283" height="159" fill="white"/>
</clipPath>
</defs>
</svg>
