<svg width="181" height="181" viewBox="0 0 181 181" fill="none" xmlns="http://www.w3.org/2000/svg">
<path d="M180.5 0.5H0.5V180.5H180.5V0.5Z" stroke="#2063F3" stroke-miterlimit="10"/>
<path d="M153.5 27.5H27.5V153.5H153.5V27.5Z" stroke="#2063F3" stroke-miterlimit="10"/>
<path d="M126.5 54.5H54.5V126.5H126.5V54.5Z" stroke="#2063F3" stroke-miterlimit="10"/>
<path d="M90.5 63.5H72.5H63.5V72.5V90.5H72.5V72.5H90.5V63.5Z" fill="#2063F3"/>
<path d="M36.5 9.5H18.5H9.5V18.5V36.5H18.5V18.5H36.5V9.5Z" fill="#2063F3"/>
<path d="M63.5 36.5H45.5H36.5V45.5V63.5H45.5V45.5H63.5V36.5Z" fill="#2063F3"/>
<path d="M90.5 117.5H108.5H117.5V108.5V90.5H108.5V108.5H90.5V117.5Z" fill="#2063F3"/>
<path d="M144.5 171.5H162.5H171.5V162.5V144.5H162.5V162.5H144.5V171.5Z" fill="#2063F3"/>
<path d="M117.5 144.5H135.5H144.5V135.5V117.5H135.5V135.5H117.5V144.5Z" fill="#2063F3"/>
</svg>
