<svg width="208" height="151" viewBox="0 0 208 151" fill="none" xmlns="http://www.w3.org/2000/svg">
<g clip-path="url(#clip0_26_102)">
<path d="M69.3585 62.5895V63.9485H70.717V62.5895H74.7925V61.2305H76.151V62.5895H77.5095H78.868V63.9485H80.2264H84.3019V66.6665H82.9434V68.0255H80.2264V69.3845H84.3019V68.0255H85.6604V66.6665H91.0944V65.3075H92.4529V62.5895V61.2305H91.0944V59.8715H89.7359V58.5125H88.3774V55.7945H85.6604V50.3585H87.0189V48.9995H85.6604V47.6405H87.0189V46.2815H84.3019V47.6405V48.9995H82.9434V50.3585H81.5849H80.2264V51.7175H78.868V53.0765H76.151V54.4355H74.7925V57.1535H73.434V59.8715H70.717V61.2305H69.3585V62.5895Z" fill="#0063FF" stroke="white" stroke-miterlimit="10"/>
<path d="M171.245 148.206H172.604V146.847H175.321V141.411H176.679V140.052H173.962V141.411H172.604V140.052H168.528V141.411H169.887V142.77H168.528V144.129H167.17V145.488H168.528V146.847H169.887V148.206H171.245Z" fill="#0063FF" stroke="white" stroke-miterlimit="10"/>
<path d="M145.434 140.052V141.411V142.77H146.792V144.129H148.151V142.77H149.509V140.052H145.434Z" fill="#0063FF" stroke="white" stroke-miterlimit="10"/>
<path d="M135.925 145.489H138.641V148.207H137.283V149.566H135.925V148.207H133.208V146.848H135.925V145.489Z" fill="#0063FF" stroke="white" stroke-miterlimit="10"/>
<path d="M138.642 134.616V137.334H140V134.616H141.358V131.898H140V130.539H138.642V129.18H137.283V130.539H134.566V133.257H137.283V134.616H138.642Z" fill="#0063FF" stroke="white" stroke-miterlimit="10"/>
<path d="M164.453 134.617H160.377V135.976H157.66V137.335H152.226V140.053H153.585V141.412H154.943V142.771H156.302V144.13H159.019V140.053H160.377V138.694H161.736V137.335H163.094V135.976H164.453V134.617Z" fill="#0063FF" stroke="white" stroke-miterlimit="10"/>
<path d="M195.698 131.899H199.774V130.54H202.491V129.181H203.849V125.104H201.132V127.822H197.057V129.181H195.698V131.899Z" fill="#0063FF" stroke="white" stroke-miterlimit="10"/>
<path d="M197.057 133.258H194.34V135.976H192.981V137.335H191.623V141.412H187.547V142.771H184.83V144.13H191.623V142.771H192.981V141.412H197.057V133.258Z" fill="#0063FF" stroke="white" stroke-miterlimit="10"/>
<path d="M34.0377 150.924H112.83V148.206H107.396V146.847H106.038V145.488H101.962V144.129H97.8868V142.77H92.4528V144.129H91.0943V145.488H89.7358V146.847H81.5849V148.206H80.2264V146.847H78.8679V145.488H74.7924V146.847H73.4339V148.206H70.717V146.847H66.6415V145.488H65.283V144.129H59.849V142.77H57.1321V141.411H54.4151V140.052H53.0566V138.693H51.6981V137.334H50.3396V138.693H44.9056V140.052H43.5472V141.411H40.8302V142.77H39.4717V144.129H38.1132V146.847H36.7547V148.206H35.3962V149.565H34.0377V150.924Z" fill="#0063FF" stroke="white" stroke-miterlimit="10"/>
<path d="M184.83 78.8975V80.2565H186.189V81.6155H187.547V78.8975H184.83Z" fill="#0063FF" stroke="white" stroke-miterlimit="10"/>
<path d="M156.302 82.9745V85.6925H161.736V84.3335H164.453V82.9745H165.811V80.2565H164.453V78.8975H161.736V80.2565H160.377V81.6155H159.019V82.9745H156.302Z" fill="#0063FF" stroke="white" stroke-miterlimit="10"/>
<path d="M161.736 87.0515H159.019V88.4105H160.377V91.1285H161.736V89.7695H163.094V91.1285H165.811V88.4105H164.453H161.736V87.0515Z" fill="#0063FF" stroke="white" stroke-miterlimit="10"/>
<path d="M175.321 74.8205V72.1025H178.038V70.7435H179.396V69.3845H180.755V68.0255H182.113V66.6665H184.83V65.3075H186.189V63.9485H188.906V66.6665H187.547V68.0255H190.264V69.3845H194.34V72.1025H191.623V73.4615H190.264V76.1795H188.906V77.5385H184.83V76.1795H180.755V73.4615H179.396V74.8205H175.321Z" fill="#0063FF" stroke="white" stroke-miterlimit="10"/>
<path d="M195.698 65.3075V62.5895H199.774V61.2305H203.849V62.5895H205.208V63.9485H206.566V65.3075H207.925V69.3845H205.208V68.0255H203.849V66.6665H202.491V65.3075H201.132V66.6665H198.415V65.3075H195.698Z" fill="#0063FF" stroke="white" stroke-miterlimit="10"/>
<path d="M91.0944 21.8195V24.5375H92.4529V25.8965H93.8113V27.2555H92.4529V29.9735H93.8113V32.6915H96.5283V29.9735H97.8868V32.6915H101.962V31.3325H103.321V29.9735H107.396V34.0505H111.472V32.6915H110.113V29.9735H114.189V28.6145H111.472V27.2555H110.113V25.8965H108.755V24.5375H107.396H103.321H99.2453V23.1785H97.8868V21.8195H91.0944Z" fill="#0063FF" stroke="white" stroke-miterlimit="10"/>
<path d="M66.6415 12.3065V13.6655H70.717V15.0245H73.4339V16.3835H74.7924V17.7425H76.1509V19.1015H77.5094V20.4605H81.5849V19.1015H82.9434V17.7425H78.8679V16.3835H80.2264V15.0245H82.9434V12.3065H84.3019V13.6655H85.6603V15.0245H87.0188V13.6655H88.3773V12.3065H87.0188V10.9475H88.3773V9.58848H91.0943V8.22948H88.3773V6.87048H84.3019V8.22948H82.9434H81.5849V6.87048H80.2264V8.22948H70.717V10.9475H69.3585V12.3065H66.6415Z" fill="#0063FF" stroke="white" stroke-miterlimit="10"/>
<path d="M69.3585 12.3065H65.283V10.9475H63.9245V12.3065H62.566V13.6655H58.4905V15.0245H57.1321V16.3835H54.4151V13.6655H53.0566V15.0245H51.6981V16.3835H48.9811V15.0245H50.3396V13.6655H42.1887V15.0245H39.4717V16.3835H35.3962V15.0245H34.0377V13.6655H36.7547V10.9475H34.0377V9.58852H32.6792V8.22952H31.3207V6.87052H32.6792V5.51152H35.3962V4.15252H42.1887V5.51152H44.9056V4.15252H47.6226V5.51152H50.3396V4.15252H51.6981V2.79352H53.0566V4.15252H55.7736V5.51152H59.849V6.87052H66.6415V8.22952H70.717V10.9475H69.3585V12.3065Z" fill="#0063FF" stroke="white" stroke-miterlimit="10"/>
<path d="M35.3962 4.1525H32.6792V2.7935H28.6038V1.4345H27.2453V0.0755005H24.5283V1.4345H23.1698V0.0755005H20.4528V1.4345H19.0943V2.7935H15.0189V4.1525H13.6604V5.5115H17.7358V6.8705H15.0189V8.2295H12.3019V6.8705H5.50943V8.2295H2.79245V9.5885H1.43396V10.9475H0.07547V13.6655H1.43396V15.0245V17.7425H2.79245V16.3835H4.15094V15.0245H5.50943V17.7425H4.15094V19.1015H2.79245V20.4605H4.15094V21.8195H5.50943V19.1015H6.86792V23.1785H5.50943V24.5375H8.22641V25.8965H6.86792V27.2555H4.15094V31.3325H5.50943V29.9735H6.86792V28.6145H16.3774V31.3325H15.0189V34.0505H16.3774V32.6915H24.5283V34.0505H29.9623V32.6915H31.3208V31.3325H32.6792V28.6145H34.0377V27.2555H36.7547V23.1785H35.3962V21.8195H32.6792V20.4605H34.0377V19.1015H35.3962V17.7425H36.7547V16.3835H35.3962V15.0245H34.0377V13.6655H36.7547V10.9475H34.0377V9.5885H32.6792V8.2295H31.3208V6.8705H32.6792V5.5115H35.3962V4.1525Z" fill="#0063FF" stroke="white" stroke-miterlimit="10"/>
<path d="M88.3774 13.6655H89.7358V12.3065H92.4528V13.6655H91.0943V15.0245H93.8113V16.3835H89.7358V17.7425H92.4528V19.1015H93.8113V20.4605H95.1698V21.8195H97.8868V23.1785H99.2453V24.5375H103.321V23.1785H101.962V21.8195H104.679V16.3835H108.755V15.0245H110.113V12.3065H111.472V10.9475H114.189V9.58848H112.83V8.22948H111.472V9.58848H101.962V8.22948H99.2453V6.87048H96.5283V8.22948H95.1698V9.58848H88.3774V10.9475H87.0189V12.3065H88.3774V13.6655Z" fill="#0063FF" stroke="white" stroke-miterlimit="10"/>
<path d="M114.189 9.5885H118.264V13.6655H120.981V15.0245H127.774V16.3835H126.415V19.1015H123.698V20.4605H122.34V21.8195H120.981V23.1785H118.264V25.8965H119.623V32.6915H110.113V29.9735H114.189V28.6145H111.472V27.2555H110.113V25.8965H108.755V24.5375H103.321V23.1785H101.962V21.8195H104.679V16.3835H108.755V15.0245H110.113V12.3065H111.472V10.9475H114.189V9.5885Z" fill="#0063FF" stroke="white" stroke-miterlimit="10"/>
<path d="M111.472 32.6915V35.4095H112.83V38.1275H111.472V39.4865H110.113V40.8455H111.472V42.2045H107.396V47.6405H112.83V48.9995H115.547V54.4355H116.906V55.7945H114.189V57.1535H112.83V59.8715H114.189V61.2305H116.906V63.9485H118.264V65.3075H119.623V63.9485H123.698V66.6665H125.057V68.0255H129.132V65.3075H131.849V62.5895H134.566V61.2305H137.283V54.4355H135.925V53.0765H144.075V50.3585H145.434V48.9995H144.075V44.9225H146.792V42.2045H145.434V40.8455H146.792V39.4865H145.434V35.4095H146.792V34.0505H148.151V32.6915H149.509V25.8965H150.868V23.1785H149.509V19.1015H135.925V17.7425H130.491V16.3835H126.415V19.1015H123.698V20.4605H122.34V21.8195H120.981V23.1785H118.264V25.8965H119.623V32.6915H111.472Z" fill="#0063FF" stroke="white" stroke-miterlimit="10"/>
<path d="M149.509 19.1015V16.3835H152.226V17.7425H154.943V19.1015H164.453V20.4605H165.811V21.8195H167.17V23.1785H168.528V24.5375H172.604V23.1785H175.321V24.5375H180.755V23.1785H187.547V24.5375H188.906V25.8965H186.189V27.2555H187.547V28.6145H188.906V31.3325H187.547V32.6915H186.189V34.0505H184.83V35.4095H182.113V36.7685H180.755V38.1275H176.679V39.4865H175.321V40.8455H173.962V43.5635H172.604H169.887V44.9225H163.094V46.2815H159.019V47.6405H156.302H154.943V48.9995H152.226V50.3585H150.868V51.7175H154.943V54.4355H152.226V55.7945H145.434V54.4355H144.075V50.3585H145.434V48.9995H144.075V44.9225H146.792V42.2045H145.434V40.8455H146.792V39.4865H145.434V35.4095H146.792V34.0505H148.151V32.6915H149.509V25.8965H150.868V23.1785H149.509V19.1015Z" fill="#0063FF" stroke="white" stroke-miterlimit="10"/>
<path d="M32.6792 31.3325V32.6915H39.4717V38.1275H44.9056V40.8455H42.1887V42.2045H39.4717V43.5635H38.1132V44.9225H36.7547V47.6405H32.6792V48.9995H34.0377V57.1535V58.5125H32.6792V59.8715H31.3207V61.2305H36.7547V59.8715H39.4717V58.5125H42.1887V57.1535H44.9056V58.5125H46.2641V61.2305H47.6226V59.8715H51.6981V61.2305H53.0566V62.5895H54.4151V63.9485H55.7736V62.5895H57.1321V63.9485H63.9245V62.5895H65.283V61.2305H68V62.5895H69.3585V61.2305H70.717V59.8715H73.4339V57.1535H74.7924V54.4355H76.1509V53.0765H78.8679V51.7175H80.2264V50.3585H82.9434V48.9995H84.3019V46.2815H88.3773V44.9225H92.4528V43.5635H97.8868V44.9225H99.2453V46.2815H100.604V47.6405H106.038V46.2815H107.396V42.2045H111.472V40.8455H110.113V39.4865H111.472V38.1275H112.83V35.4095H111.472V34.0505H107.396V29.9735H103.321V31.3325H101.962V32.6915H97.8868V29.9735H96.5283V32.6915H93.8113V29.9735H92.4528V27.2555H93.8113V25.8965H92.4528V24.5375H91.0943V21.8195H95.1698V20.4605H93.8113V19.1015H92.4528V17.7425H89.7358V16.3835H93.8113V15.0245H91.0943V13.6655H92.4528V12.3065H89.7358V13.6655H87.0189V15.0245H85.6604V13.6655H84.3019V12.3065H82.9434V15.0245H80.2264V16.3835H78.8679V17.7425H82.9434V19.1015H81.5849V20.4605H77.5094V19.1015H76.1509V17.7425H74.7924V16.3835H73.4339V15.0245H70.717V13.6655H66.6415V12.3065H65.283V10.9475H63.9245V12.3065H62.566V13.6655H58.4906V15.0245H57.1321V16.3835H54.4151V13.6655H53.0566V15.0245H51.6981V16.3835H48.9811V15.0245H50.3396V13.6655H42.1887V15.0245H39.4717V16.3835H36.7547V17.7425H35.3962V19.1015H34.0377V20.4605H32.6792V21.8195H35.3962V23.1785H36.7547V27.2555H34.0377V28.6145H32.6792V31.3325Z" fill="#0063FF" stroke="white" stroke-miterlimit="10"/>
<path d="M31.3207 61.2305V70.7435H28.6038V72.1025H27.2453V70.7435H21.8113V72.1025H23.1698V74.8205H24.5283V76.1795H25.8868V77.5385H27.2453V80.2565H28.6038V81.6155H29.9623V85.6925H27.2453V87.0515H25.8868V88.4105H24.5283V93.8465H25.8868V95.2055H27.2453V96.5645H28.6038V97.9235H29.9623V96.5645H32.6792V97.9235H35.3962V99.2825H38.1132V97.9235H39.4717V99.2825H40.8302V100.642H44.9056V99.2825H46.2641V97.9235H50.3396V99.2825H51.6981V92.4875H53.0566V91.1285H55.7736V89.7695H58.4906V87.0515H62.566V85.6925H63.9245V78.8975H65.283V81.6155H66.6415V76.1795H61.2075V74.8205H59.849V69.3845H58.4906V68.0255H57.1321V66.6665H55.7736V63.9485H54.4151V62.5895H53.0566V61.2305H51.6981V59.8715H47.6226V61.2305H46.2641V58.5125H44.9056V57.1535H42.1887V58.5125H39.4717V59.8715H36.7547V61.2305H31.3207Z" fill="#0063FF" stroke="white" stroke-miterlimit="10"/>
<path d="M74.7924 95.2055V93.8465H72.0754V95.2055H70.717V93.8465H69.3585V92.4875H68V91.1285H63.9245V88.4105H61.2075V87.0515H62.566V85.6925H63.9245V78.8975H65.283V81.6155H66.6415V76.1795H61.2075V74.8205H59.849V69.3845H58.4905V68.0255H57.1321V66.6665H55.7736V62.5895H57.1321V63.9485H63.9245V62.5895H65.283V61.2305H68V62.5895H69.3585V63.9485H70.717V62.5895H74.7924V61.2305H76.1509V62.5895H78.8679V63.9485H84.3019V66.6665H82.9434V68.0255H80.2264V69.3845H84.3019V68.0255H85.6604V66.6665H91.0943V65.3075H92.4528V61.2305H91.0943V59.8715H89.7358V58.5125H88.3773V55.7945H85.6604V50.3585H87.0188V48.9995H85.6604V47.6405H87.0188V46.2815H88.3773V44.9225H92.4528V43.5635H97.8868V44.9225H99.2453V46.2815H100.604V47.6405H106.038V46.2815H107.396V47.6405H112.83V48.9995H115.547V54.4355H116.906V55.7945H114.189V57.1535H112.83V59.8715H114.189V61.2305H116.906V63.9485H118.264V65.3075H119.623V63.9485H123.698V66.6665H125.057V68.0255H122.34V70.7435H120.981V72.1025H118.264V73.4615H116.906V76.1795H118.264V77.5385H122.34V80.2565H120.981V82.9745H122.34V84.3335H126.415V89.7695H123.698V88.4105H118.264V95.2055H116.906V96.5645H115.547V95.2055H114.189V93.8465H111.472V95.2055H108.755V96.5645H107.396V97.9235H106.038V99.2825H104.679V100.641H100.604V97.9235H103.321V95.2055H100.604V92.4875H84.3019V93.8465H81.5849V95.2055H74.7924Z" fill="#0063FF" stroke="white" stroke-miterlimit="10"/>
<path d="M125.057 89.7695V92.4875H123.698V96.5645H126.415V97.9235H125.057V100.641H126.415V102H127.774V103.359H130.491V102H131.849V100.641H133.208V97.9235H134.566V96.5645H135.925V95.2055H137.283V93.8465H138.641V91.1285H142.717V89.7695H145.434V87.0515H144.075V85.6925H142.717V84.3335H140V81.6155H138.641V72.1025H140V69.3845H142.717V65.3075H144.075V62.5895H146.792V59.8715H148.151V57.1535H150.868V55.7945H145.434V54.4355H144.075V53.0765H135.925V54.4355H137.283V61.2305H134.566V62.5895H131.849V65.3075H129.132V68.0255H122.34V70.7435H120.981V72.1025H118.264V73.4615H116.906V76.1795H118.264V77.5385H122.34V80.2565H120.981V82.9745H122.34V84.3335H126.415V89.7695H125.057Z" fill="#0063FF" stroke="white" stroke-miterlimit="10"/>
<path d="M104.679 100.642V102.001H108.755V103.36H110.113V106.078H111.472V110.155H114.189V111.514H119.623V110.155H122.34V108.796H130.491V103.36H127.774V102.001H126.415V100.642H125.057V97.9235H126.415V96.5645H123.698V92.4875H125.057V89.7695H123.698V88.4105H118.264V95.2055H116.906V96.5645H115.547V95.2055H114.189V93.8465H111.472V95.2055H108.755V96.5645H107.396V97.9235H106.038V99.2825H104.679V100.642Z" fill="#0063FF" stroke="white" stroke-miterlimit="10"/>
<path d="M28.6038 97.9235V99.2825H27.2453V100.642H23.1698V104.719H20.4528V115.591H27.2453V114.232H29.9623V115.591H31.3207V116.95H34.0377V118.309H36.7547V119.668H39.4717V121.027H36.7547V123.745H39.4717V127.822H40.8302V129.181H42.1887V131.899H44.9057V133.258H47.6226V134.617H48.9811V135.976H51.6981V134.617H54.4151V133.258H55.7736V131.899H57.1321V130.54H58.4906V127.822H68V126.463H69.3585V125.104H70.717V123.745H76.1509V125.104H78.8679V123.745H81.5849V125.104H85.6604V126.463H87.0189V125.104H88.3773V123.745H96.5283V125.104H99.2453V123.745H100.604V122.386H101.962V121.027H103.321V122.386H104.679V123.745H106.038V125.104H108.755V122.386H111.472V116.95H112.83V115.591H114.189V114.232H116.906V111.514H114.189V110.155H111.472V106.078H110.113V103.36H108.755V102.001H104.679V100.642H100.604V97.9235H103.321V95.2055H100.604V92.4875H84.3019V93.8465H81.5849V95.2055H74.7924V93.8465H72.0755V95.2055H70.717V93.8465H69.3585V92.4875H68V91.1285H63.9245V88.4105H61.2075V87.0515H58.4906V89.7695H55.7736V91.1285H53.0566V92.4875H51.6981V99.2825H50.3396V97.9235H46.2641V99.2825H44.9057V100.642H40.8302V99.2825H39.4717V97.9235H38.1132V99.2825H35.3962V97.9235H32.6792V96.5645H29.9623V97.9235H28.6038Z" fill="#0063FF" stroke="white" stroke-miterlimit="10"/>
<path d="M129.132 150.925V114.232H207.925" stroke="white" stroke-miterlimit="10"/>
</g>
<defs>
<clipPath id="clip0_26_102">
<rect width="208" height="151" fill="white"/>
</clipPath>
</defs>
</svg>
