<svg width="212" height="72" viewBox="0 0 212 72" fill="none" xmlns="http://www.w3.org/2000/svg">
<path d="M126.354 36.3536C126.549 36.1583 126.549 35.8417 126.354 35.6464L123.172 32.4645C122.976 32.2692 122.66 32.2692 122.464 32.4645C122.269 32.6597 122.269 32.9763 122.464 33.1716L125.293 36L122.464 38.8284C122.269 39.0237 122.269 39.3403 122.464 39.5355C122.66 39.7308 122.976 39.7308 123.172 39.5355L126.354 36.3536ZM85.5 36.5H126V35.5H85.5V36.5Z" fill="#B5B5B5"/>
<path d="M212 36C212 16.1177 195.882 0 176 0C156.118 0 140 16.1177 140 36C140 55.8823 156.118 72 176 72C195.882 72 212 55.8823 212 36Z" fill="white"/>
<path d="M173.93 18.85H189.34V19.76C189.34 23.15 186.58 25.91 183.19 25.91H167.78V25C167.78 21.61 170.54 18.85 173.93 18.85Z" fill="#2063F3"/>
<path d="M164.14 35.05L166.78 29.18C166.78 29.18 189.33 26.24 189.33 40.93C189.33 55.62 162.67 52.09 162.67 52.09L165.21 46.51C165.21 46.51 182.14 47.23 182.14 40.71C182.14 34.19 164.13 35.07 164.13 35.07L164.14 35.05Z" fill="#2063F3"/>
<path d="M170.62 44.97C172.978 44.97 174.89 43.0582 174.89 40.7C174.89 38.3417 172.978 36.43 170.62 36.43C168.262 36.43 166.35 38.3417 166.35 40.7C166.35 43.0582 168.262 44.97 170.62 44.97Z" fill="#2063F3"/>
<path d="M72 36C72 16.1177 55.8823 0 36 0C16.1177 0 0 16.1177 0 36C0 55.8823 16.1177 72 36 72C55.8823 72 72 55.8823 72 36Z" fill="#00A6DD"/>
<path d="M33.93 18.85H49.34V19.76C49.34 23.15 46.58 25.91 43.19 25.91H27.78V25C27.78 21.61 30.54 18.85 33.93 18.85Z" fill="white"/>
<path d="M24.14 35.05L26.78 29.18C26.78 29.18 49.33 26.24 49.33 40.93C49.33 55.62 22.67 52.09 22.67 52.09L25.21 46.51C25.21 46.51 42.14 47.23 42.14 40.71C42.14 34.19 24.13 35.07 24.13 35.07L24.14 35.05Z" fill="white"/>
<path d="M30.62 44.97C32.9783 44.97 34.89 43.0582 34.89 40.7C34.89 38.3417 32.9783 36.43 30.62 36.43C28.2618 36.43 26.35 38.3417 26.35 40.7C26.35 43.0582 28.2618 44.97 30.62 44.97Z" fill="white"/>
</svg>
