<svg width="292" height="123" viewBox="0 0 292 123" fill="none" xmlns="http://www.w3.org/2000/svg">
<path d="M32.131 17.608H50.038V35.007H32.131V17.608ZM50.038 93.681H74.041V106H6.604V93.681H34.544V56.343H11.811V44.024H50.038V93.681Z" fill="#2063F3"/>
<path d="M141.527 17.608H159.434V35.007H141.527V17.608ZM159.434 93.681H183.437V106H116V93.681H143.94V56.343H121.207V44.024H159.434V93.681Z" fill="#2063F3"/>
<path d="M258.074 17.0818H257.582C252.723 17.0818 248.784 21.0171 248.784 25.8716C248.784 30.7261 252.723 34.6614 257.582 34.6614H258.074C262.934 34.6614 266.873 30.7261 266.873 25.8716C266.873 21.0171 262.934 17.0818 258.074 17.0818Z" fill="#2063F3"/>
<path d="M266.89 93.9398V56.2158C266.89 49.3368 261.319 43.7656 254.44 43.7656H228.265V56.2158H251.229V93.9398H223V106.39H291.145V93.9398H266.89Z" fill="#2063F3"/>
<path d="M150.151 18.375H150.641C155.28 18.375 159.021 22.0231 159.021 26.5C159.021 30.9769 155.28 34.625 150.641 34.625H150.151C145.512 34.625 141.771 30.9769 141.771 26.5C141.771 22.0231 145.512 18.375 150.151 18.375Z" stroke="#FF8743" stroke-width="0.75"/>
<path d="M145.396 44H147.396C154.023 44 159.396 49.3726 159.396 56V59" stroke="#FF8743" stroke-width="0.75"/>
<path d="M115.854 75.3536C116.049 75.1583 116.049 74.8417 115.854 74.6464L112.672 71.4645C112.476 71.2692 112.16 71.2692 111.964 71.4645C111.769 71.6597 111.769 71.9763 111.964 72.1716L114.793 75L111.964 77.8284C111.769 78.0237 111.769 78.3403 111.964 78.5355C112.16 78.7308 112.476 78.7308 112.672 78.5355L115.854 75.3536ZM75 75.5H115.5V74.5H75V75.5Z" fill="#B5B5B5"/>
<path d="M225.854 75.3536C226.049 75.1583 226.049 74.8417 225.854 74.6464L222.672 71.4645C222.476 71.2692 222.16 71.2692 221.964 71.4645C221.769 71.6597 221.769 71.9763 221.964 72.1716L224.793 75L221.964 77.8284C221.769 78.0237 221.769 78.3403 221.964 78.5355C222.16 78.7308 222.476 78.7308 222.672 78.5355L225.854 75.3536ZM185 75.5H225.5V74.5H185V75.5Z" fill="#B5B5B5"/>
</svg>
