<svg width="291" height="148" viewBox="0 0 291 148" fill="none" xmlns="http://www.w3.org/2000/svg">
<path d="M10.12 5.16H15.76V10.64H10.12V5.16ZM15.76 29.12H23.32V33H2.08V29.12H10.88V17.36H3.72V13.48H15.76V29.12ZM27.2244 33V13.48H32.1044V14.36C32.1044 14.9733 32.051 15.6133 31.9444 16.28C33.1977 13.9867 35.2644 12.84 38.1444 12.84C40.3577 12.84 42.091 13.56 43.3444 15C44.5977 16.4133 45.2244 18.3467 45.2244 20.8V33H40.3044V21.52C40.3044 20.0267 39.971 18.8533 39.3044 18C38.6377 17.1467 37.691 16.72 36.4644 16.72C35.1844 16.72 34.131 17.1867 33.3044 18.12C32.5044 19.0533 32.1044 20.2267 32.1044 21.64V33H27.2244ZM55.8488 33V17.36H49.5288V13.48H55.8488V12.68C55.8488 9.72 56.6888 7.58667 58.3688 6.28C60.0754 4.94666 62.2621 4.28 64.9288 4.28C66.3954 4.28 67.7288 4.41333 68.9288 4.68V8.48C67.9154 8.34667 67.0488 8.28 66.3288 8.28C62.5954 8.28 60.7288 9.64 60.7288 12.36V13.48H68.7688V17.36H60.7288V33H55.8488ZM83.9531 33.72C81.9798 33.72 80.2331 33.3067 78.7131 32.48C77.1931 31.6267 76.0065 30.4267 75.1531 28.88C74.3265 27.3067 73.9131 25.4533 73.9131 23.32C73.9131 21.2133 74.3398 19.3733 75.1931 17.8C76.0465 16.2 77.2331 14.9733 78.7531 14.12C80.2731 13.2667 82.0065 12.84 83.9531 12.84C85.8998 12.84 87.6331 13.2667 89.1531 14.12C90.6731 14.9733 91.8598 16.2 92.7131 17.8C93.5665 19.3733 93.9931 21.2133 93.9931 23.32C93.9931 25.4533 93.5665 27.3067 92.7131 28.88C91.8598 30.4267 90.6731 31.6267 89.1531 32.48C87.6331 33.3067 85.8998 33.72 83.9531 33.72ZM83.9531 29.88C85.4998 29.88 86.7265 29.3067 87.6331 28.16C88.5665 26.9867 89.0331 25.3733 89.0331 23.32C89.0331 21.24 88.5665 19.6267 87.6331 18.48C86.6998 17.3067 85.4731 16.72 83.9531 16.72C82.4331 16.72 81.2065 17.3067 80.2731 18.48C79.3398 19.6267 78.8731 21.24 78.8731 23.32C78.8731 25.3733 79.3265 26.9867 80.2331 28.16C81.1665 29.3067 82.4065 29.88 83.9531 29.88ZM101.578 33V13.48H106.458V15.76C106.458 16.6667 106.418 17.4 106.338 17.96C107.058 16.4667 108.111 15.24 109.498 14.28C110.911 13.32 112.658 12.84 114.738 12.84C115.404 12.84 116.218 12.8933 117.178 13V17.68C116.324 17.5733 115.471 17.52 114.618 17.52C112.164 17.52 110.191 18.1067 108.698 19.28C107.204 20.4267 106.458 22.2 106.458 24.6V33H101.578ZM121.362 33V13.48H125.682V14.76C125.682 15.3733 125.642 15.88 125.562 16.28C126.389 13.9867 127.722 12.84 129.562 12.84C130.469 12.84 131.269 13.1333 131.962 13.72C132.682 14.28 133.189 15.1467 133.482 16.32C134.335 14 135.802 12.84 137.882 12.84C139.349 12.84 140.522 13.4267 141.402 14.6C142.309 15.7733 142.762 17.2933 142.762 19.16V33H138.442V20C138.442 17.8133 137.829 16.72 136.602 16.72C135.695 16.72 135.069 17.1067 134.722 17.88C134.375 18.6267 134.202 19.6933 134.202 21.08V33H129.922V20C129.922 17.8133 129.309 16.72 128.082 16.72C127.255 16.72 126.642 17.12 126.242 17.92C125.869 18.6933 125.682 19.7467 125.682 21.08V33H121.362ZM153.666 33.72C152.44 33.72 151.306 33.48 150.266 33C149.226 32.4933 148.4 31.7867 147.786 30.88C147.173 29.9467 146.866 28.8667 146.866 27.64C146.866 25.5867 147.546 24.08 148.906 23.12C150.266 22.1333 152.16 21.4933 154.586 21.2L157.706 20.8C158.48 20.6933 159.026 20.4933 159.346 20.2C159.666 19.9067 159.826 19.4933 159.826 18.96C159.826 18.24 159.533 17.6533 158.946 17.2C158.36 16.72 157.52 16.48 156.426 16.48C155.2 16.48 154.226 16.7733 153.506 17.36C152.786 17.9467 152.386 18.76 152.306 19.8H147.266C147.4 17.72 148.266 16.04 149.866 14.76C151.493 13.48 153.613 12.84 156.226 12.84C159.213 12.84 161.373 13.5733 162.706 15.04C164.066 16.48 164.746 18.6 164.746 21.4V33H160.186V32.2C160.186 31.6667 160.253 31.04 160.386 30.32C159.853 31.36 159.026 32.1867 157.906 32.8C156.813 33.4133 155.4 33.72 153.666 33.72ZM155.066 30.12C156.48 30.12 157.653 29.68 158.586 28.8C159.52 27.92 159.986 26.8 159.986 25.44V23.32C159.64 23.6667 158.906 23.9333 157.786 24.12L155.706 24.48C154.426 24.6933 153.453 25.0267 152.786 25.48C152.146 25.9333 151.826 26.6 151.826 27.48C151.826 28.3067 152.12 28.96 152.706 29.44C153.32 29.8933 154.106 30.12 155.066 30.12ZM185.891 33.36C182.824 33.36 180.397 32.6533 178.611 31.24C176.824 29.8 175.931 27.5733 175.931 24.56V17.36H168.971V13.48H175.931V6.44H180.811V13.48H189.011V17.36H180.811V24.12C180.811 26.0667 181.304 27.4133 182.291 28.16C183.304 28.9067 184.757 29.28 186.651 29.28C187.531 29.28 188.437 29.2133 189.371 29.08V32.96C188.304 33.2267 187.144 33.36 185.891 33.36ZM201.995 5.16H207.635V10.64H201.995V5.16ZM207.635 29.12H215.195V33H193.955V29.12H202.755V17.36H195.595V13.48H207.635V29.12ZM225.139 33L217.739 13.48H223.019L227.299 26.36C227.513 26.8933 227.753 27.7333 228.019 28.88C228.179 28.08 228.406 27.24 228.699 26.36L232.939 13.48H237.979L230.819 33H225.139ZM251.844 33.72C249.87 33.72 248.124 33.3067 246.604 32.48C245.084 31.6267 243.897 30.4267 243.044 28.88C242.217 27.3067 241.804 25.4533 241.804 23.32C241.804 21.2133 242.23 19.3733 243.084 17.8C243.937 16.2 245.124 14.9733 246.644 14.12C248.164 13.2667 249.897 12.84 251.844 12.84C253.79 12.84 255.524 13.2667 257.044 14.12C258.564 14.9733 259.75 16.2 260.604 17.8C261.457 19.3733 261.884 21.2133 261.884 23.32C261.884 25.4533 261.457 27.3067 260.604 28.88C259.75 30.4267 258.564 31.6267 257.044 32.48C255.524 33.3067 253.79 33.72 251.844 33.72ZM251.844 29.88C253.39 29.88 254.617 29.3067 255.524 28.16C256.457 26.9867 256.924 25.3733 256.924 23.32C256.924 21.24 256.457 19.6267 255.524 18.48C254.59 17.3067 253.364 16.72 251.844 16.72C250.324 16.72 249.097 17.3067 248.164 18.48C247.23 19.6267 246.764 21.24 246.764 23.32C246.764 25.3733 247.217 26.9867 248.124 28.16C249.057 29.3067 250.297 29.88 251.844 29.88ZM276.308 33.72C273.561 33.72 271.361 33.0533 269.708 31.72C268.081 30.3867 267.201 28.5733 267.068 26.28H272.028C272.081 27.4533 272.455 28.3867 273.148 29.08C273.868 29.7467 274.881 30.08 276.188 30.08C277.281 30.08 278.148 29.8533 278.788 29.4C279.428 28.92 279.748 28.3067 279.748 27.56C279.748 26.92 279.495 26.4267 278.988 26.08C278.481 25.7333 277.681 25.4533 276.588 25.24L274.228 24.76C269.935 23.9067 267.788 21.92 267.788 18.8C267.788 17.68 268.121 16.6667 268.788 15.76C269.481 14.8533 270.428 14.1467 271.628 13.64C272.855 13.1067 274.255 12.84 275.828 12.84C278.415 12.84 280.481 13.4667 282.028 14.72C283.575 15.9467 284.388 17.5867 284.468 19.64H279.588C279.508 18.68 279.135 17.92 278.468 17.36C277.801 16.7733 276.921 16.48 275.828 16.48C274.868 16.48 274.095 16.6667 273.508 17.04C272.921 17.4133 272.628 17.9333 272.628 18.6C272.628 19.1867 272.855 19.6533 273.308 20C273.788 20.32 274.641 20.6 275.868 20.84L278.228 21.32C282.468 22.1467 284.588 24.1333 284.588 27.28C284.588 28.5067 284.241 29.6133 283.548 30.6C282.881 31.5867 281.921 32.36 280.668 32.92C279.415 33.4533 277.961 33.72 276.308 33.72Z" fill="#2063F3"/>
<path d="M30.247 147.244V126.93H35.3268V128.348C35.3268 128.514 35.3102 128.697 35.2825 128.891C35.2548 129.029 35.2327 129.185 35.2216 129.351C35.205 129.517 35.1884 129.683 35.1607 129.849C35.77 128.741 36.5954 127.866 37.6369 127.224C38.6783 126.586 40.0023 126.265 41.6144 126.265C43.1378 126.265 44.4618 126.603 45.5697 127.284C46.6776 127.966 47.5252 128.93 48.1069 130.176C48.6885 131.423 48.9821 132.885 48.9821 134.547V147.244H43.8579V135.295C43.8579 133.738 43.5089 132.519 42.8165 131.633C42.124 130.747 41.138 130.298 39.8583 130.298C38.9719 130.298 38.1853 130.52 37.5039 130.963C36.8226 131.406 36.2907 132.026 35.903 132.813C35.5152 133.605 35.3213 134.475 35.3213 135.417V147.244H30.2414H30.247Z" fill="#2063F3"/>
<path d="M86.5578 147.997C84.5025 147.997 82.6855 147.56 81.1012 146.685C79.5168 145.809 78.2926 144.563 77.4173 142.94C76.542 141.317 76.1044 139.394 76.1044 137.173C76.1044 134.952 76.5476 133.057 77.4339 131.406C78.3203 129.755 79.5556 128.487 81.14 127.595C82.7243 126.708 84.5247 126.26 86.5522 126.26C88.5797 126.26 90.3857 126.703 91.9645 127.595C93.5488 128.481 94.7786 129.755 95.6705 131.406C96.5624 133.057 97.0056 134.979 97.0056 137.173C97.0056 139.367 96.5624 141.317 95.6705 142.94C94.7786 144.563 93.5488 145.815 91.9645 146.685C90.3801 147.56 88.5797 147.997 86.5522 147.997H86.5578ZM86.5578 144.003C87.6103 144.003 88.5354 143.732 89.3276 143.189C90.1198 142.646 90.7347 141.865 91.1778 140.835C91.621 139.81 91.8426 138.586 91.8426 137.173C91.8426 135.007 91.3551 133.323 90.3857 132.115C89.4162 130.908 88.1366 130.304 86.5522 130.304C85.4941 130.304 84.5746 130.575 83.7824 131.118C82.9902 131.661 82.3753 132.442 81.9321 133.472C81.489 134.497 81.2674 135.733 81.2674 137.178C81.2674 139.317 81.7438 140.99 82.7022 142.197C83.6605 143.405 84.9457 144.009 86.5522 144.009L86.5578 144.003Z" fill="#2063F3"/>
<path d="M101.598 147.244V126.93H106.678V130.387C106.65 130.581 106.628 130.775 106.617 130.968C106.6 131.162 106.584 131.373 106.556 131.594C107.304 130.038 108.406 128.764 109.869 127.761C111.331 126.758 113.137 126.26 115.303 126.26C115.996 126.26 116.843 126.315 117.84 126.426V131.295C116.954 131.185 116.062 131.129 115.176 131.129C113.508 131.129 112.046 131.384 110.783 131.899C109.52 132.414 108.523 133.218 107.786 134.314C107.049 135.411 106.683 136.807 106.683 138.497V147.239H101.603L101.598 147.244Z" fill="#2063F3"/>
<path d="M122.206 147.244V126.93H126.704V128.68C126.704 128.819 126.687 128.957 126.659 129.096C126.659 129.234 126.654 129.367 126.637 129.489C126.621 129.611 126.604 129.733 126.576 129.844C126.992 128.68 127.54 127.789 128.222 127.179C128.903 126.57 129.739 126.265 130.742 126.265C131.684 126.265 132.526 126.564 133.263 127.163C133.999 127.761 134.52 128.669 134.825 129.888C135.24 128.752 135.811 127.861 136.531 127.223C137.251 126.586 138.21 126.265 139.406 126.265C140.403 126.265 141.295 126.542 142.071 127.096C142.846 127.65 143.445 128.426 143.86 129.428C144.276 130.425 144.486 131.567 144.486 132.841V147.249H139.988V133.716C139.988 132.636 139.833 131.794 139.528 131.195C139.223 130.597 138.736 130.298 138.071 130.298C137.406 130.298 136.935 130.492 136.57 130.88C136.21 131.267 135.949 131.788 135.8 132.442C135.645 133.096 135.573 133.893 135.573 134.835V147.244H131.119V133.71C131.119 132.63 130.964 131.788 130.659 131.19C130.354 130.592 129.867 130.292 129.202 130.292C128.62 130.292 128.138 130.486 127.767 130.874C127.391 131.262 127.119 131.799 126.959 132.475C126.792 133.156 126.709 133.938 126.709 134.829V147.238H122.211L122.206 147.244Z" fill="#2063F3"/>
<path d="M155.848 147.997C154.574 147.997 153.394 147.742 152.308 147.227C151.228 146.712 150.364 145.981 149.727 145.022C149.089 144.064 148.768 142.945 148.768 141.671C148.768 139.533 149.477 137.959 150.89 136.946C152.308 135.932 154.275 135.273 156.801 134.968L160.047 134.552C160.573 134.469 161.005 134.342 161.338 134.176C161.67 134.01 161.908 133.799 162.047 133.55C162.185 133.301 162.257 132.996 162.257 132.636C162.257 131.888 161.953 131.267 161.343 130.786C160.734 130.298 159.859 130.054 158.717 130.054C157.438 130.054 156.43 130.359 155.676 130.968C154.928 131.578 154.507 132.425 154.43 133.505H149.184C149.294 132.087 149.738 130.835 150.519 129.739C151.294 128.642 152.369 127.789 153.748 127.179C155.122 126.57 156.712 126.265 158.518 126.265C160.601 126.265 162.302 126.614 163.62 127.307C164.938 127.999 165.897 129.002 166.495 130.304C167.093 131.611 167.393 133.234 167.393 135.173V147.249H162.645V146.418C162.645 146.086 162.667 145.759 162.706 145.438C162.75 145.117 162.795 144.79 162.85 144.457C162.296 145.538 161.443 146.402 160.291 147.039C159.138 147.676 157.659 147.997 155.859 147.997H155.848ZM157.305 144.252C158.274 144.252 159.15 144.042 159.931 143.626C160.706 143.211 161.316 142.635 161.764 141.898C162.207 141.161 162.429 140.325 162.429 139.378V137.173C162.263 137.339 161.986 137.494 161.598 137.633C161.21 137.771 160.723 137.898 160.141 138.009L157.975 138.386C156.64 138.608 155.637 138.957 154.956 139.427C154.275 139.898 153.937 140.591 153.937 141.51C153.937 142.369 154.247 143.045 154.873 143.532C155.499 144.02 156.308 144.258 157.31 144.258L157.305 144.252Z" fill="#2063F3"/>
<path d="M226.972 147.244L219.266 126.924H224.762L229.215 140.33C229.299 140.524 229.365 140.713 229.426 140.89C229.481 141.073 229.537 141.245 229.592 141.411C229.648 141.632 229.709 141.876 229.781 142.142C229.847 142.408 229.913 142.674 229.969 142.956C230.024 142.707 230.074 142.474 230.113 142.269C230.157 142.059 230.202 141.848 230.257 141.621C230.312 141.4 230.373 141.184 230.445 140.973C230.512 140.763 230.589 140.552 230.672 140.325L235.088 126.919H240.334L232.883 147.238H226.972V147.244Z" fill="#2063F3"/>
<path d="M253.125 147.997C251.069 147.997 249.252 147.56 247.668 146.685C246.084 145.809 244.859 144.563 243.984 142.94C243.109 141.317 242.671 139.394 242.671 137.173C242.671 134.952 243.114 133.057 244.006 131.406C244.893 129.755 246.128 128.487 247.712 127.595C249.297 126.708 251.097 126.26 253.125 126.26C255.152 126.26 256.958 126.703 258.537 127.595C260.121 128.481 261.351 129.755 262.243 131.406C263.129 133.057 263.578 134.979 263.578 137.173C263.578 139.367 263.135 141.317 262.243 142.94C261.357 144.563 260.121 145.815 258.537 146.685C256.953 147.56 255.152 147.997 253.125 147.997ZM253.125 144.003C254.177 144.003 255.102 143.732 255.894 143.189C256.687 142.646 257.302 141.865 257.745 140.835C258.188 139.81 258.409 138.586 258.409 137.173C258.409 135.007 257.922 133.323 256.953 132.115C255.983 130.908 254.703 130.304 253.119 130.304C252.061 130.304 251.141 130.575 250.349 131.118C249.557 131.661 248.942 132.442 248.499 133.472C248.056 134.497 247.834 135.733 247.834 137.178C247.834 139.317 248.311 140.99 249.269 142.197C250.227 143.405 251.513 144.009 253.119 144.009L253.125 144.003Z" fill="#2063F3"/>
<path d="M276.386 147.997C274.469 147.997 272.813 147.687 271.411 147.061C270.01 146.435 268.907 145.543 268.098 144.374C267.295 143.211 266.852 141.837 266.763 140.253H271.926C271.982 141.477 272.375 142.441 273.112 143.145C273.849 143.854 274.896 144.208 276.253 144.208C277.388 144.208 278.291 143.965 278.962 143.477C279.626 142.99 279.959 142.358 279.959 141.583C279.959 140.918 279.693 140.403 279.167 140.042C278.64 139.682 277.804 139.389 276.668 139.167L274.214 138.669C272.048 138.253 270.392 137.533 269.24 136.503C268.087 135.478 267.511 134.132 267.511 132.464C267.511 131.301 267.866 130.243 268.575 129.301C269.284 128.359 270.27 127.617 271.533 127.074C272.796 126.531 274.247 126.26 275.882 126.26C278.574 126.26 280.723 126.908 282.335 128.199C283.947 129.489 284.789 131.201 284.873 133.339H279.793C279.71 132.342 279.322 131.545 278.629 130.946C277.937 130.348 277.017 130.049 275.882 130.049C274.885 130.049 274.076 130.243 273.466 130.631C272.857 131.018 272.552 131.561 272.552 132.254C272.552 132.863 272.796 133.345 273.284 133.688C273.771 134.037 274.652 134.337 275.926 134.586L278.38 135.084C280.491 135.5 282.119 136.209 283.272 137.206C284.424 138.203 285 139.566 285 141.289C285 142.569 284.645 143.715 283.936 144.746C283.227 145.77 282.225 146.574 280.917 147.139C279.61 147.709 278.098 147.992 276.38 147.992L276.386 147.997Z" fill="#2063F3"/>
<path d="M15.4394 118.172H15.2788C13.6939 118.172 12.4092 119.455 12.4092 121.038C12.4092 122.622 13.6939 123.905 15.2788 123.905H15.4394C17.0242 123.905 18.309 122.622 18.309 121.038C18.309 119.455 17.0242 118.172 15.4394 118.172Z" fill="#2063F3"/>
<path d="M18.3145 143.239V130.935C18.3145 128.692 16.4975 126.875 14.2539 126.875H5.7173V130.935H13.2069V143.239H4V147.299H26.2252V143.239H18.3145Z" fill="#2063F3"/>
<path d="M207.6 118.172H207.439C205.854 118.172 204.569 119.455 204.569 121.038C204.569 122.622 205.854 123.905 207.439 123.905H207.6C209.184 123.905 210.469 122.622 210.469 121.038C210.469 119.455 209.184 118.172 207.6 118.172Z" fill="#2063F3"/>
<path d="M210.469 143.239V130.935C210.469 128.692 208.652 126.875 206.409 126.875H197.872V130.935H205.362V143.239H196.155V147.299H218.38V143.239H210.469Z" fill="#2063F3"/>
<path d="M73.2016 122.044V118H64.327C61.9837 118 60.0892 119.9 60.0892 122.238V126.875H53.4748V130.935H60.0892V147.299H65.1967V130.935H72.8692V126.875H65.1967V122.044H73.2016Z" fill="#2063F3"/>
<path d="M182.461 137.394V130.963H190.997V126.924H182.461V119.595H177.381V126.924H170.135V130.963H177.381V143.006C177.381 145.349 179.281 147.244 181.619 147.244H190.493V143.2H182.461V137.389V137.394Z" fill="#2063F3"/>
<path d="M148.646 98.8536C148.842 99.0488 149.158 99.0488 149.354 98.8536L152.536 95.6716C152.731 95.4763 152.731 95.1597 152.536 94.9645C152.34 94.7692 152.024 94.7692 151.828 94.9645L149 97.7929L146.172 94.9645C145.976 94.7692 145.66 94.7692 145.464 94.9645C145.269 95.1597 145.269 95.4763 145.464 95.6716L148.646 98.8536ZM148.5 58L148.5 98.5L149.5 98.5L149.5 58L148.5 58Z" fill="#B5B5B5"/>
</svg>
